<?xml version="1.0" encoding="utf-8"?>
<!-- Generator: Adobe Illustrator 23.0.2, SVG Export Plug-In . SVG Version: 6.00 Build 0)  -->
<svg version="1.1" id="Layer_1" xmlns="http://www.w3.org/2000/svg" xmlns:xlink="http://www.w3.org/1999/xlink" x="0px" y="0px"
	 viewBox="0 0 1920 1920" style="enable-background:new 0 0 1920 1920;" xml:space="preserve">
<style type="text/css">
	.st0{clip-path:url(#SVGID_2_);fill-rule:evenodd;clip-rule:evenodd;fill:url(#SVGID_3_);}
	.st1{clip-path:url(#SVGID_5_);fill:#FFFFFF;}
	.st2{clip-path:url(#SVGID_7_);fill:#FFFFFF;}
	.st3{clip-path:url(#SVGID_9_);fill:url(#SVGID_10_);}
	.st4{clip-path:url(#SVGID_12_);fill:#FFFFFF;}
	.st5{clip-path:url(#SVGID_14_);fill:url(#SVGID_15_);}
	.st6{clip-path:url(#SVGID_17_);fill:url(#SVGID_18_);}
	.st7{clip-path:url(#SVGID_20_);fill:url(#SVGID_21_);}
	.st8{clip-path:url(#SVGID_23_);fill:url(#SVGID_24_);}
	.st9{fill:url(#SVGID_25_);}
	.st10{fill:#F5F5F5;}
	.st11{fill:url(#SVGID_26_);}
	.st12{fill:#F3F8FB;}
	.st13{fill:none;}
	.st14{fill:url(#SVGID_27_);}
	.st15{fill:#FFFFFF;}
	.st16{fill:url(#SVGID_28_);}
	.st17{fill:#F0F6FA;}
	.st18{clip-path:url(#SVGID_30_);fill:#C1E7EB;}
	.st19{fill:#459199;}
	.st20{fill:#10515E;}
	.st21{fill:#DCF2F7;}
	.st22{fill:#9AE2ED;}
	.st23{clip-path:url(#SVGID_32_);fill:#E8FFFC;}
	.st24{opacity:0.44;clip-path:url(#SVGID_34_);fill:url(#SVGID_35_);enable-background:new    ;}
	.st25{clip-path:url(#SVGID_41_);}
	.st26{fill:#E8F1F7;}
	.st27{fill:url(#SVGID_42_);}
	.st28{clip-path:url(#SVGID_44_);fill:url(#SVGID_45_);}
	.st29{fill:url(#SVGID_46_);}
	.st30{fill:url(#SVGID_47_);}
	.st31{fill:url(#SVGID_48_);}
	.st32{fill:url(#SVGID_49_);}
	.st33{fill:url(#SVGID_50_);}
</style>
<g>
	<g>
		<defs>
			<path id="SVGID_1_" d="M1920.1,535.3c-45.8,9-88.9,30.1-124.3,59.5c-38,31.7-69.3,73.6-116.4,90.7
				c-55.8,20.3-117.9,0.6-175.6-14.8c-57.8-15.4-125.6-24.7-172.1,11.1c-29.4,22.7-43.4,58.8-66.7,87.3
				c-27,33.1-67.4,55.7-110.7,62.1c-32.4,4.8-66.8,1.1-96.9,13.4c-47.2,19.4-68.6,71.3-82.6,118.8s-28,99.8-69.5,128.6
				c-25.4,17.7-57.6,23.6-85.7,37.2c-54,26.1-89.1,82.9-90.9,140.8h1191.5L1920.1,535.3L1920.1,535.3z"/>
		</defs>
		<clipPath id="SVGID_2_">
			<use xlink:href="#SVGID_1_"  style="overflow:visible;"/>
		</clipPath>
		
			<linearGradient id="SVGID_3_" gradientUnits="userSpaceOnUse" x1="959.6518" y1="1497.2454" x2="959.6518" y2="122.7692" gradientTransform="matrix(0.7875 0 0 0.7875 204.2242 91.0192)">
			<stop  offset="0" style="stop-color:#195E4B"/>
			<stop  offset="5.363910e-02" style="stop-color:#1D664C"/>
			<stop  offset="0.1383" style="stop-color:#277D50"/>
			<stop  offset="0.2432" style="stop-color:#39A256"/>
			<stop  offset="0.3634" style="stop-color:#50D55E"/>
			<stop  offset="0.3859" style="stop-color:#55DF60"/>
			<stop  offset="0.6498" style="stop-color:#00DA9D"/>
			<stop  offset="1" style="stop-color:#195E4B"/>
		</linearGradient>
		<rect x="-0.1" y="187.7" class="st0" width="1920.1" height="1082.4"/>
	</g>
	<g>
		<defs>
			<path id="SVGID_4_" d="M1919.2,535.3c-45.8,9-88.9,30.1-124.3,59.5c-38,31.7-69.3,73.6-116.4,90.7
				c-55.8,20.3-117.9,0.6-175.6-14.8c-57.8-15.4-125.6-24.7-172.1,11.1c-29.4,22.7-43.4,58.8-66.7,87.3
				c-27,33.1-67.4,55.7-110.7,62.1c-32.4,4.8-66.8,1.1-96.9,13.4c-47.2,19.4-68.6,71.3-82.6,118.8s-28,99.8-69.5,128.6
				c-25.4,17.7-57.6,23.6-85.7,37.2c-54,26.1-89.1,82.9-90.9,140.8h1191.5L1919.2,535.3L1919.2,535.3z"/>
		</defs>
		<clipPath id="SVGID_5_">
			<use xlink:href="#SVGID_4_"  style="overflow:visible;"/>
		</clipPath>
		<path class="st1" d="M1524.4,1017.9c-16.2,9.7-44.8,3.2-60.8-7.1c-16-10.4-31-24.6-47.9-31.5c-54-21.9-111.2,36.9-166,19.4
			c-19.1-6.1-36.7-21.3-56.1-24.6c-15.6-2.6-31.4,2.6-46.7,7.8c-17.1,5.8-34.3,11.7-51.4,17.5c-2.1,0.7-4.4,1.6-5.8,4
			c-4.1,6.8,2.3,16.6,8.1,19.7c38.3,20.2,81.5-21,120.8-5.1c19.5,7.9,35.5,29,55.1,36.2c44.7,16.3,86.6-44.2,132.7-45.3
			c20.2-0.5,39.6,10.6,59.3,17.3C1485.5,1033,1507.8,1034.7,1524.4,1017.9c-3.8,1.8-7.5,3.6-11.3,5.4"/>
	</g>
	<g>
		<defs>
			<path id="SVGID_6_" d="M1919.2,535.3c-45.8,9-88.9,30.1-124.3,59.5c-38,31.7-69.3,73.6-116.4,90.7
				c-55.8,20.3-117.9,0.6-175.6-14.8c-57.8-15.4-125.6-24.7-172.1,11.1c-29.4,22.7-43.4,58.8-66.7,87.3
				c-27,33.1-67.4,55.7-110.7,62.1c-32.4,4.8-66.8,1.1-96.9,13.4c-47.2,19.4-68.6,71.3-82.6,118.8s-28,99.8-69.5,128.6
				c-25.4,17.7-57.6,23.6-85.7,37.2c-54,26.1-89.1,82.9-90.9,140.8h1191.5L1919.2,535.3L1919.2,535.3z"/>
		</defs>
		<clipPath id="SVGID_7_">
			<use xlink:href="#SVGID_6_"  style="overflow:visible;"/>
		</clipPath>
		<path class="st2" d="M1819.6,709.6c36.6-9.4,95.6,20.7,126.5,52.7c-81.3-31.9-112.5,22.1-157.8,27s-95.8-20.2-156.3-13.3
			c-70.9,8.2-112.7,45.2-182.8,27.2c-26.6-6.8-77.3-24.1-100-31.8c-93.9-31.8-346.9-6.7-346.9-6.7s199.4-58.2,273.5-54
			c56.5,3.2,104.3,16.4,160.8,14.7c21.9-0.7,43.9-1.9,65.1-10.1c17.8-6.9,34.7-18.5,52.4-25.8
			C1640.2,653.9,1702.3,740.2,1819.6,709.6L1819.6,709.6z"/>
	</g>
	<g>
		<defs>
			<path id="SVGID_8_" d="M1919.2,535.3c-45.8,9-88.9,30.1-124.3,59.5c-38,31.7-69.3,73.6-116.4,90.7
				c-55.8,20.3-117.9,0.6-175.6-14.8c-57.8-15.4-125.6-24.7-172.1,11.1c-29.4,22.7-43.4,58.8-66.7,87.3
				c-27,33.1-67.4,55.7-110.7,62.1c-32.4,4.8-66.8,1.1-96.9,13.4c-47.2,19.4-68.6,71.3-82.6,118.8s-28,99.8-69.5,128.6
				c-25.4,17.7-57.6,23.6-85.7,37.2c-54,26.1-89.1,82.9-90.9,140.8h1191.5L1919.2,535.3L1919.2,535.3z"/>
		</defs>
		<clipPath id="SVGID_9_">
			<use xlink:href="#SVGID_8_"  style="overflow:visible;"/>
		</clipPath>
		
			<linearGradient id="SVGID_10_" gradientUnits="userSpaceOnUse" x1="1601.7653" y1="5174.5664" x2="13.4629" y2="5174.5664" gradientTransform="matrix(-0.7875 1.023734e-03 1.023734e-03 -0.7074 1870.4498 4529.582)">
			<stop  offset="0" style="stop-color:#000000"/>
			<stop  offset="1" style="stop-color:#000000;stop-opacity:0"/>
		</linearGradient>
		<path class="st3" d="M960.5,829.1c62-28.3,131.2-31.1,194.4-8c54.8,20.1,106.9,59.4,164.1,57c29.4-1.3,58.4-13.8,87.7-11.1
			c31.1,2.8,60.8,22.6,91.9,19c33.8-3.9,63.5-34.9,97.4-33.8c13.7,0.4,26.9,6.1,39.9,11.8c23.6,10.3,47.2,20.7,70.8,31
			c-39.1,5.6-79.2-16.4-117.3-4c-23.2,7.5-42.9,27.1-65.7,36.4c-52.1,21.2-107.6-14.5-162.4-14c-38.7,0.4-77.5,19-115.5,9.8
			c-20.7-5-39.6-18-60.1-24c-38-11-77.4,3-115.4,14.3s-79.6,19.6-114.7-1.4c-8.7-5.2-17.1-12.6-21.1-23.5
			c-7.9-21.4,3.7-45.5,14.7-64.7"/>
	</g>
	<g>
		<defs>
			<path id="SVGID_11_" d="M1919.2,535.3c-45.8,9-88.9,30.1-124.3,59.5c-38,31.7-69.3,73.6-116.4,90.7
				c-55.8,20.3-117.9,0.6-175.6-14.8c-57.8-15.4-125.6-24.7-172.1,11.1c-29.4,22.7-43.4,58.8-66.7,87.3
				c-27,33.1-67.4,55.7-110.7,62.1c-32.4,4.8-66.8,1.1-96.9,13.4c-47.2,19.4-68.6,71.3-82.6,118.8s-28,99.8-69.5,128.6
				c-25.4,17.7-57.6,23.6-85.7,37.2c-54,26.1-89.1,82.9-90.9,140.8h1191.5L1919.2,535.3L1919.2,535.3z"/>
		</defs>
		<clipPath id="SVGID_12_">
			<use xlink:href="#SVGID_11_"  style="overflow:visible;"/>
		</clipPath>
		<path class="st4" d="M1855.5,946.1c-21.1-27.9-51.5-40.2-79.5-32.2c-22,6.3-41.7,24-63.2,33.1c-18.3,7.8-38,9.1-56.7,3.9
			c30.6,15.4,63.8,19.6,95.7,12.2c16.5-3.8,33.1-10.8,49.7-8.4c20.4,3,42.4,19.3,60,4.2c-2-5.8-4-11.6-6-17.4"/>
	</g>
	<g>
		<defs>
			<path id="SVGID_13_" d="M1919.2,535.3c-45.8,9-88.9,30.1-124.3,59.5c-38,31.7-69.3,73.6-116.4,90.7
				c-55.8,20.3-117.9,0.6-175.6-14.8c-57.8-15.4-125.6-24.7-172.1,11.1c-29.4,22.7-43.4,58.8-66.7,87.3
				c-27,33.1-67.4,55.7-110.7,62.1c-32.4,4.8-66.8,1.1-96.9,13.4c-47.2,19.4-68.6,71.3-82.6,118.8s-28,99.8-69.5,128.6
				c-25.4,17.7-57.6,23.6-85.7,37.2c-54,26.1-89.1,82.9-90.9,140.8h1191.5L1919.2,535.3L1919.2,535.3z"/>
		</defs>
		<clipPath id="SVGID_14_">
			<use xlink:href="#SVGID_13_"  style="overflow:visible;"/>
		</clipPath>
		
			<linearGradient id="SVGID_15_" gradientUnits="userSpaceOnUse" x1="1773.9979" y1="5307.6108" x2="1211.7969" y2="5192.3887" gradientTransform="matrix(0.7875 0 0 -0.7875 159.0885 4778.1938)">
			<stop  offset="0" style="stop-color:#000000"/>
			<stop  offset="1" style="stop-color:#000000;stop-opacity:0"/>
		</linearGradient>
		<path class="st5" d="M1060.1,655.7c49.5-27.9,120.7-40.2,186.4-32.2c51.6,6.3,97.7,24,148.3,33.1c43,7.8,89,9.1,133,3.9
			c-71.7,15.4-149.6,19.6-224.5,12.2c-38.8-3.8-77.6-10.8-116.6-8.4c-47.8,3-99.3,19.3-140.7,4.2c4.7-5.8,9.4-11.6,14-17.4"/>
	</g>
	<g>
		<defs>
			<path id="SVGID_16_" d="M1919.2,535.3c-45.8,9-88.9,30.1-124.3,59.5c-38,31.7-69.3,73.6-116.4,90.7
				c-55.8,20.3-117.9,0.6-175.6-14.8c-57.8-15.4-125.6-24.7-172.1,11.1c-29.4,22.7-43.4,58.8-66.7,87.3
				c-27,33.1-67.4,55.7-110.7,62.1c-32.4,4.8-66.8,1.1-96.9,13.4c-47.2,19.4-68.6,71.3-82.6,118.8s-28,99.8-69.5,128.6
				c-25.4,17.7-57.6,23.6-85.7,37.2c-54,26.1-89.1,82.9-90.9,140.8h1191.5L1919.2,535.3L1919.2,535.3z"/>
		</defs>
		<clipPath id="SVGID_17_">
			<use xlink:href="#SVGID_16_"  style="overflow:visible;"/>
		</clipPath>
		
			<linearGradient id="SVGID_18_" gradientUnits="userSpaceOnUse" x1="82.3855" y1="4755.9365" x2="350.1195" y2="4771.8022" gradientTransform="matrix(-0.7875 0 0 -0.7875 1873.9608 4778.1938)">
			<stop  offset="0" style="stop-color:#000000"/>
			<stop  offset="1" style="stop-color:#000000;stop-opacity:0"/>
		</linearGradient>
		<path class="st6" d="M1479.3,1028c34.4-39.8,83.9-57.4,129.5-46c35.9,9,67.9,34.3,103.1,47.3c29.9,11.1,61.9,13,92.5,5.5
			c-49.8,22-104,28-156.1,17.4c-27-5.5-53.9-15.4-81.1-11.9c-33.3,4.2-69,27.6-97.8,6c3.3-8.3,6.5-16.5,9.8-24.8"/>
	</g>
	<g>
		<defs>
			<path id="SVGID_19_" d="M1919.2,535.3c-45.8,9-88.9,30.1-124.3,59.5c-38,31.7-69.3,73.6-116.4,90.7
				c-55.8,20.3-117.9,0.6-175.6-14.8c-57.8-15.4-125.6-24.7-172.1,11.1c-29.4,22.7-43.4,58.8-66.7,87.3
				c-27,33.1-67.4,55.7-110.7,62.1c-32.4,4.8-66.8,1.1-96.9,13.4c-47.2,19.4-68.6,71.3-82.6,118.8s-28,99.8-69.5,128.6
				c-25.4,17.7-57.6,23.6-85.7,37.2c-54,26.1-89.1,82.9-90.9,140.8h1191.5L1919.2,535.3L1919.2,535.3z"/>
		</defs>
		<clipPath id="SVGID_20_">
			<use xlink:href="#SVGID_19_"  style="overflow:visible;"/>
		</clipPath>
		
			<linearGradient id="SVGID_21_" gradientUnits="userSpaceOnUse" x1="275.1682" y1="5469.543" x2="-1.927" y2="5224.3428" gradientTransform="matrix(-0.7875 0 0 -0.7875 1873.9608 4778.1938)">
			<stop  offset="0" style="stop-color:#000000"/>
			<stop  offset="1" style="stop-color:#000000;stop-opacity:0"/>
		</linearGradient>
		<path class="st7" d="M2094.9,651.2c-49.5-27.9-120.7-40.2-186.4-32.2c-51.6,6.3-97.7,24-148.3,33.1c-43,7.8-89,9.1-133,3.9
			c71.7,15.4,149.6,19.6,224.5,12.2c38.8-3.8,77.6-10.8,116.6-8.4c47.8,3,99.3,19.3,140.7,4.2c-4.7-5.8-9.4-11.6-14-17.4"/>
	</g>
	<g>
		<defs>
			<path id="SVGID_22_" d="M1919.2,535.3c-45.8,9-88.9,30.1-124.3,59.5c-38,31.7-69.3,73.6-116.4,90.7
				c-55.8,20.3-117.9,0.6-175.6-14.8c-57.8-15.4-125.6-24.7-172.1,11.1c-29.4,22.7-43.4,58.8-66.7,87.3
				c-27,33.1-67.4,55.7-110.7,62.1c-32.4,4.8-66.8,1.1-96.9,13.4c-47.2,19.4-68.6,71.3-82.6,118.8s-28,99.8-69.5,128.6
				c-25.4,17.7-57.6,23.6-85.7,37.2c-54,26.1-89.1,82.9-90.9,140.8h1191.5L1919.2,535.3L1919.2,535.3z"/>
		</defs>
		<clipPath id="SVGID_23_">
			<use xlink:href="#SVGID_22_"  style="overflow:visible;"/>
		</clipPath>
		
			<linearGradient id="SVGID_24_" gradientUnits="userSpaceOnUse" x1="-16.5577" y1="5007.0894" x2="251.7597" y2="5007.0894" gradientTransform="matrix(-0.7875 0 0 -0.7875 1873.9608 4778.1938)">
			<stop  offset="0" style="stop-color:#000000"/>
			<stop  offset="1" style="stop-color:#000000;stop-opacity:0"/>
		</linearGradient>
		<path class="st8" d="M1887,812.5c-52.4,9.3-105.2,16.8-158.2,22.4c-17.7,1.9-35.8,3.6-53.1-0.6c48.2,11.8,97.5,19.4,147.2,22.9
			c9,0.6,18.3,1.1,27.1-1c17.8-4.3,32-20,33.7-37.4"/>
	</g>
	
		<linearGradient id="SVGID_25_" gradientUnits="userSpaceOnUse" x1="1301.2253" y1="4908.0298" x2="1633.493" y2="4908.0298" gradientTransform="matrix(0.7875 0 0 -0.7875 204.2242 4778.1938)">
		<stop  offset="0" style="stop-color:#195E4B"/>
		<stop  offset="5.363910e-02" style="stop-color:#1D664C"/>
		<stop  offset="0.1383" style="stop-color:#277D50"/>
		<stop  offset="0.2432" style="stop-color:#39A256"/>
		<stop  offset="0.3634" style="stop-color:#50D55E"/>
		<stop  offset="0.3859" style="stop-color:#55DF60"/>
		<stop  offset="0.6498" style="stop-color:#00DA9D"/>
		<stop  offset="1" style="stop-color:#195E4B"/>
	</linearGradient>
	<path class="st9" d="M1229.3,992.3c-8.7-8,142.8-226.4,142.8-226.4l118.5,198.4C1490.6,964.3,1411.6,1160.3,1229.3,992.3z"/>
	<path class="st10" d="M1372.1,765.9l-51.9,74.7c15.2,11.7,24.5-17.5,31.5-14s-8.2,42,15.2,42s9.3-43.2,17.5-44.3
		c8.2-1.2,15.2,19.8,29.2,9.3L1372.1,765.9z"/>
	
		<linearGradient id="SVGID_26_" gradientUnits="userSpaceOnUse" x1="1366.8263" y1="5020.8174" x2="2175.9692" y2="5020.8174" gradientTransform="matrix(0.7875 0 0 -0.7875 204.2242 4778.1938)">
		<stop  offset="0" style="stop-color:#195E4B"/>
		<stop  offset="5.363910e-02" style="stop-color:#1D664C"/>
		<stop  offset="0.1383" style="stop-color:#277D50"/>
		<stop  offset="0.2432" style="stop-color:#39A256"/>
		<stop  offset="0.3634" style="stop-color:#50D55E"/>
		<stop  offset="0.3859" style="stop-color:#55DF60"/>
		<stop  offset="0.6498" style="stop-color:#00DA9D"/>
		<stop  offset="1" style="stop-color:#195E4B"/>
	</linearGradient>
	<polygon class="st11" points="1280.6,1102 1609.6,546.6 1728.7,747.3 1787.1,658.6 1917.8,882.6 1917.8,973.6 	"/>
	<path class="st12" d="M1609.6,546.6l-106.2,179.7c54.8,12.8,51.1-49.2,73.5-44.3c26.8,5.8-10.5,84,32.7,84s10.5-78.2,33.8-81.7
		s29.2,54.8,71.2,37.3L1609.6,546.6z"/>
	<line class="st13" x1="1903.7" y1="928.8" x2="1907" y2="857.8"/>
	
		<linearGradient id="SVGID_27_" gradientUnits="userSpaceOnUse" x1="1935.8422" y1="5053.4521" x2="2178.8899" y2="5053.4521" gradientTransform="matrix(0.7875 0 0 -0.7875 204.2242 4778.1938)">
		<stop  offset="0" style="stop-color:#195E4B"/>
		<stop  offset="5.363910e-02" style="stop-color:#1D664C"/>
		<stop  offset="0.1383" style="stop-color:#277D50"/>
		<stop  offset="0.2432" style="stop-color:#39A256"/>
		<stop  offset="0.3634" style="stop-color:#50D55E"/>
		<stop  offset="0.3859" style="stop-color:#55DF60"/>
		<stop  offset="0.6498" style="stop-color:#00DA9D"/>
		<stop  offset="1" style="stop-color:#195E4B"/>
	</linearGradient>
	<polyline class="st14" points="1920.1,884.9 1787.1,658.6 1728.7,747.3 1840.8,938.6 1903.7,928.8 	"/>
	<path class="st15" d="M1787.6,656.3l-51.9,78.9c15.2,12.3,24.5-18.5,31.5-14.8s-8.2,44.4,15.2,44.4c23.3,0,9.3-45.6,17.5-46.9
		c8.2-1.2,15.2,21,29.2,9.9L1787.6,656.3z"/>
	
		<linearGradient id="SVGID_28_" gradientUnits="userSpaceOnUse" x1="957.8105" y1="4933.3887" x2="1476.4137" y2="4933.3887" gradientTransform="matrix(0.7875 0 0 -0.7875 204.2242 4778.1938)">
		<stop  offset="0" style="stop-color:#195E4B"/>
		<stop  offset="5.363910e-02" style="stop-color:#1D664C"/>
		<stop  offset="0.1383" style="stop-color:#277D50"/>
		<stop  offset="0.2432" style="stop-color:#39A256"/>
		<stop  offset="0.3634" style="stop-color:#50D55E"/>
		<stop  offset="0.3859" style="stop-color:#55DF60"/>
		<stop  offset="0.6498" style="stop-color:#00DA9D"/>
		<stop  offset="1" style="stop-color:#195E4B"/>
	</linearGradient>
	<polygon class="st16" points="958.5,1102 1178.1,684.3 1366.9,1064.6 	"/>
	<path class="st17" d="M1177.9,677.3L1095.1,843c41.5,9.6,39.8-35.9,56.8-32.2c20.3,4.3-7.9,62.6,24.7,62.6
		c32.7,0,7.9-58.2,25.6-60.8c17.6-2.6,22.1,40.8,53.8,27.8L1177.9,677.3z"/>
	<g>
		<defs>
			<path id="SVGID_29_" d="M1919.2,535.3c-45.8,9-88.9,30.1-124.3,59.5c-38,31.7-69.3,73.6-116.4,90.7
				c-55.8,20.3-117.9,0.6-175.6-14.8c-57.8-15.4-125.6-24.7-172.1,11.1c-29.4,22.7-43.4,58.8-66.7,87.3
				c-27,33.1-67.4,55.7-110.7,62.1c-32.4,4.8-66.8,1.1-96.9,13.4c-47.2,19.4-68.6,71.3-82.6,118.8s-28,99.8-69.5,128.6
				c-25.4,17.7-57.6,23.6-85.7,37.2c-54,26.1-89.1,82.9-90.9,140.8h1191.5L1919.2,535.3L1919.2,535.3z"/>
		</defs>
		<clipPath id="SVGID_30_">
			<use xlink:href="#SVGID_29_"  style="overflow:visible;"/>
		</clipPath>
		<path class="st18" d="M815.8,929.5c0,0,142-27.5,334.5,65.1c135,64.9,406.9,136.2,406.9,136.2l-93.1,48.5l-642.7-15L815.8,929.5z"
			/>
	</g>
	<polygon class="st19" points="1096.2,876.9 1137.4,1016.2 1101,1016.6 1098.1,1016.6 1057.9,1017 	"/>
	<path class="st20" d="M1096.8,926.5c0.4,30.3,0.3,60.6,0.1,90.9c-0.2,30.2-2.6,60.7-1.7,90.9c0.1,1.7,2.4,1.6,2.6,0
		c2.9-29.9,1.8-60.8,1.9-90.9c0.1-30.3-0.6-60.6-1.6-90.9C1098.2,925.6,1096.8,925.6,1096.8,926.5L1096.8,926.5z"/>
	<path class="st20" d="M1115.1,973.6c-4.9,5.6-9.8,10.7-16.3,14.6c-1.3,0.7-0.1,2.7,1.1,1.9c6.5-3.8,12.5-9.1,16.1-15.8
		C1116.3,973.7,1115.5,973.1,1115.1,973.6L1115.1,973.6z"/>
	<path class="st20" d="M1099.4,958.9c-2.1-2.4-4.3-4.8-6.1-7.5c-1.7-2.4-2.7-5.3-4.4-7.6c-0.3-0.4-1-0.3-0.9,0.3
		c0.6,6.1,6.1,12.2,11,15.5C1099.3,959.8,1099.7,959.3,1099.4,958.9L1099.4,958.9z"/>
	<polygon class="st19" points="1004.9,877.8 1046.1,1017.2 1009.7,1017.5 1006.9,1017.6 966.6,1018 	"/>
	<path class="st20" d="M1006.1,925.4c0.4,30.8,0.3,61.7,0.1,92.5c-0.2,30.7-2.6,61.8-1.6,92.5c0.1,1.7,2.4,1.6,2.6,0
		c3-30.4,1.8-61.9,1.9-92.5c0.1-30.9-0.6-61.7-1.6-92.5C1007.5,924.5,1006.1,924.5,1006.1,925.4L1006.1,925.4z"/>
	<path class="st20" d="M1024.4,972.5c-4.9,5.6-9.8,10.7-16.3,14.6c-1.3,0.7-0.1,2.7,1.1,1.9c6.5-3.8,12.5-9.1,16.1-15.8
		C1025.5,972.6,1024.8,972,1024.4,972.5L1024.4,972.5z"/>
	<path class="st20" d="M1008.6,957.8c-2.1-2.4-4.3-4.8-6.1-7.5c-1.7-2.4-2.7-5.3-4.4-7.6c-0.3-0.4-1-0.3-0.9,0.3
		c0.6,6.1,6.1,12.2,11,15.5C1008.6,958.7,1008.9,958.2,1008.6,957.8L1008.6,957.8z"/>
	<polygon class="st19" points="916.8,893.3 958,1032.7 921.6,1033 918.7,1033.1 878.4,1033.5 	"/>
	<path class="st20" d="M916.4,929.8c0.4,31,0.3,62.1,0.1,93.1c-0.2,30.9-2.6,62.2-1.6,93.1c0.1,1.7,2.4,1.6,2.6,0
		c3.1-30.6,1.8-62.3,1.9-93.1c0.1-31-0.6-62-1.6-93.1C917.8,928.9,916.4,928.9,916.4,929.8L916.4,929.8z"/>
	<path class="st20" d="M934.7,976.9c-4.9,5.6-9.8,10.7-16.3,14.6c-1.3,0.7-0.1,2.7,1.1,1.9c6.5-3.8,12.5-9.1,16.1-15.8
		C935.9,977,935.1,976.4,934.7,976.9L934.7,976.9z"/>
	<path class="st20" d="M919,962.3c-2.1-2.4-4.3-4.8-6.1-7.5c-1.7-2.4-2.7-5.3-4.4-7.6c-0.3-0.4-1-0.3-0.9,0.3
		c0.6,6.1,6.1,12.2,11,15.5C918.9,963.1,919.3,962.6,919,962.3L919,962.3z"/>
	<polygon class="st21" points="1128.1,896.2 1169.4,1035.5 1133,1035.9 1130.1,1035.9 1089.8,1036.3 	"/>
	<path class="st20" d="M1128.5,947.1c0.3,27.4,0.3,54.8,0,82.1c-0.3,27.3-2.5,54.9-1.8,82.1c0,1.7,2.4,1.6,2.6,0
		c2.7-27.1,1.9-55,2-82.1c0.2-27.4-0.5-54.8-1.5-82.1C1129.8,946.2,1128.5,946.2,1128.5,947.1L1128.5,947.1z"/>
	<path class="st20" d="M1146.8,994.2c-4.9,5.6-9.8,10.7-16.3,14.6c-1.3,0.7-0.1,2.7,1.1,1.9c6.5-3.8,12.5-9.1,16.1-15.8
		C1147.9,994.4,1147.2,993.7,1146.8,994.2L1146.8,994.2z"/>
	<path class="st20" d="M1131,979.6c-2.1-2.4-4.3-4.8-6.1-7.5c-1.7-2.4-2.7-5.3-4.4-7.6c-0.3-0.4-1-0.3-0.9,0.3
		c0.6,6.1,6.1,12.2,11,15.5C1130.9,980.4,1131.3,979.9,1131,979.6L1131,979.6z"/>
	<polygon class="st22" points="1059,877.3 1100.2,1016.6 1063.8,1017 1060.9,1017 1020.7,1017.4 	"/>
	<path class="st20" d="M1059.7,924.8c0.4,31.2,0.3,62.4,0.1,93.7c-0.2,31.1-2.6,62.6-1.6,93.6c0.1,1.7,2.4,1.6,2.6,0
		c3.1-30.8,1.8-62.7,1.9-93.6c0.1-31.2-0.6-62.4-1.6-93.7C1061,923.9,1059.6,923.9,1059.7,924.8L1059.7,924.8z"/>
	<path class="st20" d="M1078,971.9c-4.9,5.6-9.8,10.7-16.3,14.6c-1.3,0.7-0.1,2.7,1.1,1.9c6.5-3.8,12.5-9.1,16.1-15.8
		C1079.1,972.1,1078.4,971.4,1078,971.9L1078,971.9z"/>
	<path class="st20" d="M1062.2,957.3c-2.1-2.4-4.3-4.8-6.1-7.5c-1.7-2.4-2.7-5.3-4.4-7.6c-0.3-0.4-1-0.3-0.9,0.3
		c0.6,6.1,6.1,12.2,11,15.5C1062.1,958.2,1062.5,957.6,1062.2,957.3L1062.2,957.3z"/>
	<polygon class="st22" points="962.2,881.7 1003.4,1021 967,1021.4 964.1,1021.4 923.9,1021.8 	"/>
	<path class="st20" d="M962.9,923.5c0.4,31.6,0.3,63.2,0.2,94.8c-0.2,31.5-2.7,63.4-1.6,94.8c0.1,1.7,2.4,1.6,2.6,0
		c3.2-31.2,1.8-63.5,1.9-94.8c0.1-31.6-0.6-63.2-1.6-94.8C964.3,922.6,962.9,922.6,962.9,923.5L962.9,923.5z"/>
	<path class="st20" d="M981.2,970.6c-4.9,5.6-9.8,10.7-16.3,14.6c-1.3,0.7-0.1,2.7,1.1,1.9c6.5-3.8,12.5-9.1,16.1-15.8
		C982.4,970.7,981.7,970.1,981.2,970.6L981.2,970.6z"/>
	<path class="st20" d="M965.5,956c-2.1-2.4-4.3-4.8-6.1-7.5c-1.7-2.4-2.7-5.3-4.4-7.6c-0.3-0.4-1-0.3-0.9,0.3
		c0.6,6.1,6.1,12.2,11,15.5C965.4,956.8,965.8,956.3,965.5,956L965.5,956z"/>
	<polygon class="st21" points="1034.6,897.1 1075.9,1036.5 1039.5,1036.9 1036.6,1036.9 996.3,1037.3 	"/>
	<path class="st20" d="M1034.1,948.1c0.3,27.4,0.3,54.8,0,82.1c-0.3,27.3-2.5,54.9-1.8,82.1c0,1.7,2.4,1.6,2.6,0
		c2.7-27.1,1.9-55,2-82.1c0.2-27.4-0.5-54.8-1.5-82.1C1035.5,947.2,1034.1,947.2,1034.1,948.1L1034.1,948.1z"/>
	<path class="st20" d="M1052.4,995.2c-4.9,5.6-9.8,10.7-16.3,14.6c-1.3,0.7-0.1,2.7,1.1,1.9c6.5-3.8,12.5-9.1,16.1-15.8
		C1053.6,995.3,1052.8,994.7,1052.4,995.2L1052.4,995.2z"/>
	<path class="st20" d="M1036.7,980.6c-2.1-2.4-4.3-4.8-6.1-7.5c-1.7-2.4-2.7-5.3-4.4-7.6c-0.3-0.4-1-0.3-0.9,0.3
		c0.6,6.1,6.1,12.2,11,15.5C1036.6,981.4,1037,980.9,1036.7,980.6L1036.7,980.6z"/>
	<polygon class="st21" points="938.6,912.7 979.8,1052.1 943.4,1052.4 940.5,1052.5 900.3,1052.9 	"/>
	<path class="st20" d="M939.7,949.1c0.3,27.4,0.3,54.8,0,82.1c-0.3,27.3-2.5,54.9-1.8,82.1c0,1.7,2.4,1.6,2.6,0
		c2.7-27.1,1.9-55,2-82.1c0.2-27.4-0.5-54.8-1.5-82.1C941.1,948.2,939.7,948.2,939.7,949.1L939.7,949.1z"/>
	<path class="st20" d="M958,996.2c-4.9,5.6-9.8,10.7-16.3,14.6c-1.3,0.7-0.1,2.7,1.1,1.9c6.5-3.8,12.5-9.1,16.1-15.8
		C959.2,996.3,958.5,995.7,958,996.2L958,996.2z"/>
	<path class="st20" d="M942.3,981.5c-2.1-2.4-4.3-4.8-6.1-7.5c-1.7-2.4-2.7-5.3-4.4-7.6c-0.3-0.4-1-0.3-0.9,0.3
		c0.6,6.1,6.1,12.2,11,15.5C942.2,982.4,942.6,981.9,942.3,981.5L942.3,981.5z"/>
	<polygon class="st15" points="1079.9,912.1 1121.1,1051.5 1084.7,1051.8 1081.8,1051.9 1041.6,1052.3 	"/>
	<path class="st20" d="M1080,973.3c0.1,23.3,0.2,46.6-0.1,69.9c-0.3,23.2-2.6,46.7-1.9,69.9c0,1.7,2.4,1.6,2.6,0
		c2.3-23,1.9-46.8,2.2-69.9c0.3-23.3-0.3-46.6-1.4-69.9C1081.3,972.4,1080,972.4,1080,973.3L1080,973.3z"/>
	<path class="st20" d="M1098.3,1020.3c-4.9,5.6-9.8,10.7-16.3,14.6c-1.3,0.7-0.1,2.7,1.1,1.9c6.5-3.8,12.5-9.1,16.1-15.8
		C1099.4,1020.5,1098.7,1019.8,1098.3,1020.3L1098.3,1020.3z"/>
	<path class="st20" d="M1082.5,1005.7c-2.1-2.4-4.3-4.8-6.1-7.5c-1.7-2.4-2.7-5.3-4.4-7.6c-0.3-0.4-1-0.3-0.9,0.3
		c0.6,6.1,6.1,12.2,11,15.5C1082.4,1006.6,1082.8,1006,1082.5,1005.7L1082.5,1005.7z"/>
	<polygon class="st15" points="1176.2,912 1217.5,1051.3 1181,1051.7 1178.2,1051.7 1137.9,1052.1 	"/>
	<path class="st20" d="M1176.5,972.3c0.1,23.3,0.2,46.6-0.1,69.9c-0.3,23.2-2.6,46.7-1.9,69.9c0,1.7,2.4,1.6,2.6,0
		c2.3-23,1.9-46.8,2.2-69.9c0.3-23.3-0.3-46.6-1.4-69.9C1177.9,971.4,1176.5,971.4,1176.5,972.3L1176.5,972.3z"/>
	<path class="st20" d="M1194.8,1019.3c-4.9,5.6-9.8,10.7-16.3,14.6c-1.3,0.7-0.1,2.7,1.1,1.9c6.5-3.8,12.5-9.1,16.1-15.8
		C1196,1019.5,1195.2,1018.8,1194.8,1019.3L1194.8,1019.3z"/>
	<path class="st20" d="M1179.1,1004.7c-2.1-2.4-4.3-4.8-6.1-7.5c-1.7-2.4-2.7-5.3-4.4-7.6c-0.3-0.4-1-0.3-0.9,0.3
		c0.6,6.1,6.1,12.2,11,15.5C1179,1005.6,1179.3,1005,1179.1,1004.7L1179.1,1004.7z"/>
	<polygon class="st15" points="986.5,911.6 1027.7,1050.9 991.3,1051.3 988.4,1051.3 948.2,1051.8 	"/>
	<path class="st20" d="M986.8,974.2c0.1,23.3,0.2,46.6-0.1,69.9c-0.3,23.2-2.6,46.7-1.9,69.9c0,1.7,2.4,1.6,2.6,0
		c2.3-23,1.9-46.8,2.2-69.9c0.3-23.3-0.3-46.6-1.4-69.9C988.2,973.3,986.8,973.3,986.8,974.2L986.8,974.2z"/>
	<path class="st20" d="M1005.1,1021.3c-4.9,5.6-9.8,10.7-16.3,14.6c-1.3,0.7-0.1,2.7,1.1,1.9c6.5-3.8,12.5-9.1,16.1-15.8
		C1006.2,1021.5,1005.5,1020.8,1005.1,1021.3L1005.1,1021.3z"/>
	<path class="st20" d="M989.3,1006.7c-2.1-2.4-4.3-4.8-6.1-7.5c-1.7-2.4-2.7-5.3-4.4-7.6c-0.3-0.4-1-0.3-0.9,0.3
		c0.6,6.1,6.1,12.2,11,15.5C989.3,1007.6,989.6,1007,989.3,1006.7L989.3,1006.7z"/>
	<g>
		<defs>
			<path id="SVGID_31_" d="M1919.2,535.3c-45.8,9-88.9,30.1-124.3,59.5c-38,31.7-69.3,73.6-116.4,90.7
				c-55.8,20.3-117.9,0.6-175.6-14.8c-57.8-15.4-125.6-24.7-172.1,11.1c-29.4,22.7-43.4,58.8-66.7,87.3
				c-27,33.1-67.4,55.7-110.7,62.1c-32.4,4.8-66.8,1.1-96.9,13.4c-47.2,19.4-68.6,71.3-82.6,118.8s-28,99.8-69.5,128.6
				c-25.4,17.7-57.6,23.6-85.7,37.2c-54.2,26.1-817,83-818.8,140.9h1919.2L1919.2,535.3L1919.2,535.3z"/>
		</defs>
		<clipPath id="SVGID_32_">
			<use xlink:href="#SVGID_31_"  style="overflow:visible;"/>
		</clipPath>
		<path class="st23" d="M2002.5,884.3c0,0-179.8-20.4-474.1,120.9C1258.8,1134.7,769.5,1116,769.5,1116s-814,24.5-820.6,160.1
			c-1.6,32.3,2079,105.7,2079,105.7L2002.5,884.3z"/>
	</g>
	<g>
		<defs>
			<path id="SVGID_33_" d="M1919.2,535.3c-45.8,9-88.9,30.1-124.3,59.5c-38,31.7-69.3,73.6-116.4,90.7
				c-55.8,20.3-117.9,0.6-175.6-14.8c-57.8-15.4-125.6-24.7-172.1,11.1c-29.4,22.7-43.4,58.8-66.7,87.3
				c-27,33.1-67.4,55.7-110.7,62.1c-32.4,4.8-66.8,1.1-96.9,13.4c-47.2,19.4-68.6,71.3-82.6,118.8s-28,99.8-69.5,128.6
				c-25.4,17.7-57.6,23.6-85.7,37.2c-54.2,26.1-817,83-818.8,140.9h1919.2L1919.2,535.3L1919.2,535.3z"/>
		</defs>
		<clipPath id="SVGID_34_">
			<use xlink:href="#SVGID_33_"  style="overflow:visible;"/>
		</clipPath>
		
			<linearGradient id="SVGID_35_" gradientUnits="userSpaceOnUse" x1="1125.9808" y1="4231.1064" x2="1159.1981" y2="4645.6138" gradientTransform="matrix(-0.7875 0 0 -0.7875 1873.9608 4778.1938)">
			<stop  offset="0" style="stop-color:#0E4073"/>
			<stop  offset="1" style="stop-color:#02969E;stop-opacity:0"/>
		</linearGradient>
		<path class="st24" d="M2025.7,883.2c0,0-192.5-24.5-511.1,127.8c-265.9,127.1-713,104.3-713,104.3s-642.1-26.5-907.8,187.3
			c-65.5,52.7,2135.8,57.7,2135.8,57.7L2025.7,883.2z"/>
	</g>
	<g>
		<defs>
			<path id="SVGID_36_" d="M1919.2,535.3c-45.8,9-88.9,30.1-124.3,59.5c-38,31.7-69.3,73.6-116.4,90.7
				c-55.8,20.3-117.9,0.6-175.6-14.8c-57.8-15.4-125.6-24.7-172.1,11.1c-29.4,22.7-43.4,58.8-66.7,87.3
				c-27,33.1-67.4,55.7-110.7,62.1c-32.4,4.8-66.8,1.1-96.9,13.4c-47.2,19.4-68.6,71.3-82.6,118.8s-28,99.8-69.5,128.6
				c-25.4,17.7-57.6,23.6-85.7,37.2c-54.2,26.1-817,83-818.8,140.9h1919.2L1919.2,535.3L1919.2,535.3z"/>
		</defs>
		<clipPath id="SVGID_37_">
			<use xlink:href="#SVGID_36_"  style="overflow:visible;"/>
		</clipPath>
	</g>
	<g>
		<defs>
			<path id="SVGID_38_" d="M1919.2,535.3c-45.8,9-88.9,30.1-124.3,59.5c-38,31.7-69.3,73.6-116.4,90.7
				c-55.8,20.3-117.9,0.6-175.6-14.8c-57.8-15.4-125.6-24.7-172.1,11.1c-29.4,22.7-43.4,58.8-66.7,87.3
				c-27,33.1-67.4,55.7-110.7,62.1c-32.4,4.8-66.8,1.1-96.9,13.4c-47.2,19.4-68.6,71.3-82.6,118.8s-28,99.8-69.5,128.6
				c-25.4,17.7-57.6,23.6-85.7,37.2c-54.2,26.1-817,83-818.8,140.9h1919.2L1919.2,535.3L1919.2,535.3z"/>
		</defs>
		<clipPath id="SVGID_39_">
			<use xlink:href="#SVGID_38_"  style="overflow:visible;"/>
		</clipPath>
	</g>
	<g>
		<defs>
			<path id="SVGID_40_" d="M-0.1,1270.1l1919.2,0V535.3h0.1c-45.8,9-88.9,30.1-124.3,59.5c-38,31.7-69.3,73.6-116.4,90.7
				c-55.8,20.3-117.9,0.6-175.6-14.8c-57.8-15.4-125.6-24.7-172.1,11.1c-29.4,22.7-43.4,58.8-66.7,87.3
				c-27,33.1-67.4,55.7-110.7,62.1c-32.4,4.8-66.8,1.1-96.9,13.4c-47.2,19.4-68.6,71.3-82.6,118.8s-28,99.8-69.5,128.6
				c-25.4,17.7-57.6,23.6-85.7,37.2"/>
		</defs>
		<clipPath id="SVGID_41_">
			<use xlink:href="#SVGID_40_"  style="overflow:visible;"/>
		</clipPath>
		<g class="st25">
			<polygon class="st26" points="1886.8,963.4 1956.7,1209.3 1892.7,1209.3 1887.6,1209.3 1816.8,1209.3 			"/>
		</g>
		<g class="st25">
			<path class="st20" d="M1884.3,1082.5c0,41-0.4,82-1.5,123c-0.5,18.1-1.1,36.2-1.9,54.3c-1,22.6-3.9,46.1-2.7,68.7
				c0.1,2.4,4.1,3.3,4.5,0.6c3.2-21.7,2.5-44.6,3.3-66.5c0.7-18.6,1.4-37.2,1.8-55.8c0.9-41.4,0-82.8-1.1-124.2
				C1886.7,1080.9,1884.3,1080.8,1884.3,1082.5L1884.3,1082.5z"/>
			<path class="st20" d="M1915.6,1165.6c-8.7,9.8-17.5,18.7-29,25.3c-2.2,1.3-0.2,4.7,2,3.4c11.5-6.6,22.2-15.7,28.6-27.5
				C1917.7,1165.8,1916.4,1164.7,1915.6,1165.6L1915.6,1165.6z"/>
			<path class="st20" d="M1888.2,1139.6c-3.7-4.2-7.5-8.6-10.6-13.2c-2.9-4.3-4.6-9.3-7.6-13.5c-0.5-0.6-1.8-0.5-1.7,0.5
				c0.9,10.7,10.5,21.6,19,27.4C1888.1,1141.1,1888.7,1140.1,1888.2,1139.6L1888.2,1139.6z"/>
		</g>
		<g class="st25">
			<polygon class="st15" points="1805,1008.7 1867.3,1227.7 1810.2,1227.7 1805.7,1227.7 1742.7,1227.7 			"/>
		</g>
		<g class="st25">
			<path class="st20" d="M1802.8,1114.7c0,36.5-0.4,73-1.3,109.5c-0.4,16.1-1,32.2-1.7,48.2c-0.9,20.2-3.3,41-2.4,61.2
				c0.1,2.2,3.7,2.9,4,0.5c2.7-19.3,2.2-39.5,3-59c0.7-16.6,1.2-33.2,1.6-49.8c0.8-37,0-73.8-1-110.7
				C1805,1113.3,1802.8,1113.3,1802.8,1114.7L1802.8,1114.7z"/>
			<path class="st20" d="M1830.7,1188.8c-7.7,8.8-15.6,16.7-25.8,22.5c-2,1.1-0.2,4.2,1.8,3.1c10.2-5.9,19.8-14,25.4-24.5
				C1832.5,1189,1831.4,1188,1830.7,1188.8L1830.7,1188.8z"/>
			<path class="st20" d="M1806.3,1165.6c-3.3-3.7-6.6-7.6-9.4-11.8c-2.6-3.9-4.1-8.3-6.8-12c-0.4-0.6-1.6-0.5-1.5,0.4
				c0.8,9.5,9.3,19.3,16.9,24.4C1806.1,1166.9,1806.7,1166.1,1806.3,1165.6L1806.3,1165.6z"/>
		</g>
	</g>
	<g>
		<g>
			<polygon class="st19" points="1926.3,749.4 1958.8,842.8 1934.1,844.2 1932.1,844.3 1904.8,845.9 			"/>
		</g>
		<g>
			<path class="st20" d="M1928.3,783.1c2.2,41.1,2.5,82.4,4.8,123.5c0.1,1.1,1.7,1.1,1.8,0c1.3-40.9-2-82.8-5.6-123.5
				C1929.2,782.5,1928.2,782.5,1928.3,783.1L1928.3,783.1z"/>
			<path class="st20" d="M1942.3,814.5c-3.1,4-6.3,7.6-10.6,10.4c-0.8,0.5-0.1,1.9,0.8,1.3c4.3-2.8,8.2-6.6,10.4-11.3
				C1943,814.6,1942.5,814.1,1942.3,814.5L1942.3,814.5z"/>
			<path class="st20" d="M1931.1,805.1c-1.6-1.6-3.2-3.3-4.5-5.1c-1.1-1.6-1.9-3.4-3.1-4.9c-0.2-0.3-0.6,0-0.6,0.3
				c0.6,4.1,4.6,8,7.9,10.1C1931,805.7,1931.3,805.3,1931.1,805.1L1931.1,805.1z"/>
		</g>
		<g>
			<polygon class="st19" points="1864.3,753 1896.8,846.4 1872.1,847.8 1870.1,847.9 1842.8,849.5 			"/>
		</g>
		<g>
			<path class="st20" d="M1866.6,785.3c2.3,41.9,2.4,83.9,5,125.7c0.1,1.1,1.7,1.1,1.8,0c1.4-41.6-2.2-84.3-5.8-125.7
				C1867.5,784.7,1866.6,784.7,1866.6,785.3L1866.6,785.3z"/>
			<path class="st20" d="M1880.6,816.7c-3.1,4-6.3,7.6-10.6,10.4c-0.8,0.5-0.1,1.9,0.8,1.3c4.3-2.8,8.2-6.6,10.4-11.3
				C1881.3,816.8,1880.9,816.3,1880.6,816.7L1880.6,816.7z"/>
			<path class="st20" d="M1869.4,807.3c-1.6-1.6-3.2-3.3-4.5-5.1c-1.1-1.6-1.9-3.4-3.1-4.9c-0.2-0.3-0.6,0-0.6,0.3
				c0.6,4.1,4.6,8,7.9,10.1C1869.3,807.9,1869.6,807.5,1869.4,807.3L1869.4,807.3z"/>
		</g>
		<g>
			<polygon class="st19" points="1804.9,766.4 1837.4,859.8 1812.7,861.2 1810.7,861.3 1783.4,862.9 			"/>
		</g>
		<g>
			<path class="st20" d="M1805.8,791.2c2.4,42.1,2.4,84.4,5,126.5c0.1,1.1,1.7,1.1,1.8,0c1.4-41.9-2.2-84.8-5.8-126.5
				C1806.7,790.6,1805.8,790.6,1805.8,791.2L1805.8,791.2z"/>
			<path class="st20" d="M1819.8,822.6c-3.1,4-6.3,7.6-10.6,10.4c-0.8,0.5-0.1,1.9,0.8,1.3c4.3-2.8,8.2-6.6,10.4-11.3
				C1820.6,822.7,1820.1,822.2,1819.8,822.6L1819.8,822.6z"/>
			<path class="st20" d="M1808.6,813.2c-1.6-1.6-3.2-3.3-4.5-5.1c-1.1-1.6-1.9-3.4-3.1-4.9c-0.2-0.3-0.6,0-0.6,0.3
				c0.6,4.1,4.6,8,7.9,10.1C1808.6,813.8,1808.8,813.4,1808.6,813.2L1808.6,813.2z"/>
		</g>
		<g>
			<polygon class="st21" points="1948.6,761.5 1981.1,854.8 1956.4,856.3 1954.4,856.4 1927.1,858 			"/>
		</g>
		<g>
			<path class="st20" d="M1950.5,796.1c1.8,37.2,2.1,74.5,4.1,111.7c0.1,1.1,1.7,1.1,1.8,0c1.1-37-1.5-74.8-5-111.7
				C1951.4,795.5,1950.4,795.5,1950.5,796.1L1950.5,796.1z"/>
			<path class="st20" d="M1964.4,827.5c-3.1,4-6.3,7.6-10.6,10.4c-0.8,0.5-0.1,1.9,0.8,1.3c4.3-2.8,8.2-6.6,10.4-11.3
				C1965.2,827.6,1964.7,827.1,1964.4,827.5L1964.4,827.5z"/>
			<path class="st20" d="M1953.3,818.1c-1.6-1.6-3.2-3.3-4.5-5.1c-1.1-1.6-1.9-3.4-3.1-4.9c-0.2-0.3-0.6,0-0.6,0.3
				c0.6,4.1,4.6,8,7.9,10.1C1953.2,818.7,1953.5,818.3,1953.3,818.1L1953.3,818.1z"/>
		</g>
		<g>
			<polygon class="st22" points="1901,750.9 1933.5,844.2 1908.8,845.7 1906.9,845.8 1879.5,847.4 			"/>
		</g>
		<g>
			<path class="st20" d="M1903,783.2c2.4,42.4,2.5,85,5.1,127.3c0.1,1.1,1.7,1.1,1.8,0c1.4-42.1-2.3-85.3-5.9-127.3
				C1903.9,782.6,1903,782.5,1903,783.2L1903,783.2z"/>
			<path class="st20" d="M1917,814.6c-3.1,4-6.3,7.6-10.6,10.4c-0.8,0.5-0.1,1.9,0.8,1.3c4.3-2.8,8.2-6.6,10.4-11.3
				C1917.7,814.7,1917.3,814.2,1917,814.6L1917,814.6z"/>
			<path class="st20" d="M1905.8,805.2c-1.6-1.6-3.2-3.3-4.5-5.1c-1.1-1.6-1.9-3.4-3.1-4.9c-0.2-0.3-0.6,0-0.6,0.3
				c0.6,4.1,4.6,8,7.9,10.1C1905.7,805.7,1906,805.4,1905.8,805.2L1905.8,805.2z"/>
		</g>
		<g>
			<polygon class="st22" points="1835.3,757 1867.9,850.4 1843.1,851.8 1841.2,851.9 1813.9,853.5 			"/>
		</g>
		<g>
			<path class="st20" d="M1837.2,785.4c2.5,42.9,2.4,86,5.1,128.9c0.1,1.1,1.7,1.1,1.8,0c1.6-42.6-2.4-86.4-6-128.9
				C1838.1,784.8,1837.2,784.8,1837.2,785.4L1837.2,785.4z"/>
			<path class="st20" d="M1851.2,816.8c-3.1,4-6.3,7.6-10.6,10.4c-0.8,0.5-0.1,1.9,0.8,1.3c4.3-2.8,8.2-6.6,10.4-11.3
				C1852,816.9,1851.5,816.4,1851.2,816.8L1851.2,816.8z"/>
			<path class="st20" d="M1840,807.4c-1.6-1.6-3.2-3.3-4.5-5.1c-1.1-1.6-1.9-3.4-3.1-4.9c-0.2-0.3-0.6,0-0.6,0.3
				c0.6,4.1,4.6,8,7.9,10.1C1840,808,1840.3,807.6,1840,807.4L1840,807.4z"/>
		</g>
		<g>
			<polygon class="st21" points="1885.1,765.2 1917.6,858.5 1892.9,860 1890.9,860.1 1863.6,861.7 			"/>
		</g>
		<g>
			<path class="st20" d="M1886.4,799.8c1.8,37.2,2,74.5,4.1,111.7c0.1,1.1,1.7,1.1,1.8,0c1.1-37-1.5-74.8-5-111.7
				C1887.3,799.2,1886.4,799.2,1886.4,799.8L1886.4,799.8z"/>
			<path class="st20" d="M1900.4,831.2c-3.1,4-6.3,7.6-10.6,10.4c-0.8,0.5-0.1,1.9,0.8,1.3c4.3-2.8,8.2-6.6,10.4-11.3
				C1901.1,831.3,1900.6,830.9,1900.4,831.2L1900.4,831.2z"/>
			<path class="st20" d="M1889.2,821.8c-1.6-1.6-3.2-3.3-4.5-5.1c-1.1-1.6-1.9-3.4-3.1-4.9c-0.2-0.3-0.6,0-0.6,0.3
				c0.6,4.1,4.6,8,7.9,10.1C1889.1,822.4,1889.4,822,1889.2,821.8L1889.2,821.8z"/>
		</g>
		<g>
			<polygon class="st21" points="1820.3,778.9 1852.8,872.2 1828.1,873.7 1826.2,873.8 1798.8,875.4 			"/>
		</g>
		<g>
			<path class="st20" d="M1822.3,803.5c1.8,37.2,2.1,74.5,4.1,111.7c0.1,1.1,1.7,1.1,1.8,0c1.1-37-1.5-74.8-5-111.7
				C1823.2,802.9,1822.3,802.9,1822.3,803.5L1822.3,803.5z"/>
			<path class="st20" d="M1836.3,834.9c-3.1,4-6.3,7.6-10.6,10.4c-0.8,0.5-0.1,1.9,0.8,1.3c4.3-2.8,8.2-6.6,10.4-11.3
				C1837,835.1,1836.6,834.6,1836.3,834.9L1836.3,834.9z"/>
			<path class="st20" d="M1825.1,825.5c-1.6-1.6-3.2-3.3-4.5-5.1c-1.1-1.6-1.9-3.4-3.1-4.9c-0.2-0.3-0.6,0-0.6,0.3
				c0.6,4.1,4.6,8,7.9,10.1C1825,826.1,1825.3,825.8,1825.1,825.5L1825.1,825.5z"/>
		</g>
		<g>
			<polygon class="st15" points="1916.3,773.9 1948.9,867.3 1924.1,868.7 1922.2,868.8 1894.9,870.4 			"/>
		</g>
		<g>
			<path class="st20" d="M1918.4,815.4c1.3,31.6,1.4,63.5,3.2,95.1c0.1,1.1,1.7,1.1,1.8,0c1-31.5-0.8-63.7-4-95.1
				C1919.3,814.8,1918.3,814.8,1918.4,815.4L1918.4,815.4z"/>
			<path class="st20" d="M1932.3,846.8c-3.1,4-6.3,7.6-10.6,10.4c-0.8,0.5-0.1,1.9,0.8,1.3c4.3-2.8,8.2-6.6,10.4-11.3
				C1933.1,846.9,1932.6,846.5,1932.3,846.8L1932.3,846.8z"/>
			<path class="st20" d="M1921.2,837.4c-1.6-1.6-3.2-3.3-4.5-5.1c-1.1-1.6-1.9-3.4-3.1-4.9c-0.2-0.3-0.6,0-0.6,0.3
				c0.6,4.1,4.6,8,7.9,10.1C1921.1,838,1921.4,837.6,1921.2,837.4L1921.2,837.4z"/>
		</g>
		<g>
			<polygon class="st15" points="1981.8,770.7 2014.3,864 1989.6,865.4 1987.6,865.6 1960.3,867.1 			"/>
		</g>
		<g>
			<path class="st20" d="M1983.9,811.6c1.3,31.6,1.4,63.5,3.2,95.1c0.1,1.1,1.7,1.1,1.8,0c1-31.5-0.8-63.7-4-95.1
				C1984.8,811,1983.9,811,1983.9,811.6L1983.9,811.6z"/>
			<path class="st20" d="M1997.9,843c-3.1,4-6.3,7.6-10.6,10.4c-0.8,0.5-0.1,1.9,0.8,1.3c4.3-2.8,8.2-6.6,10.4-11.3
				C1998.7,843.1,1998.2,842.6,1997.9,843L1997.9,843z"/>
			<path class="st20" d="M1986.7,833.6c-1.6-1.6-3.2-3.3-4.5-5.1c-1.1-1.6-1.9-3.4-3.1-4.9c-0.2-0.3-0.6,0-0.6,0.3
				c0.6,4.1,4.6,8,7.9,10.1C1986.7,834.2,1986.9,833.8,1986.7,833.6L1986.7,833.6z"/>
		</g>
		<g>
			<polygon class="st15" points="1852.8,776.6 1885.4,869.9 1860.6,871.4 1858.7,871.5 1831.4,873.1 			"/>
		</g>
		<g>
			<path class="st20" d="M1855.1,819.1c1.3,31.6,1.4,63.5,3.2,95.1c0.1,1.1,1.7,1.1,1.8,0c1-31.5-0.8-63.7-4-95.1
				C1856,818.5,1855,818.5,1855.1,819.1L1855.1,819.1z"/>
			<path class="st20" d="M1869,850.5c-3.1,4-6.3,7.6-10.6,10.4c-0.8,0.5-0.1,1.9,0.8,1.3c4.3-2.8,8.2-6.6,10.4-11.3
				C1869.8,850.6,1869.3,850.1,1869,850.5L1869,850.5z"/>
			<path class="st20" d="M1857.9,841.1c-1.6-1.6-3.2-3.3-4.5-5.1c-1.1-1.6-1.9-3.4-3.1-4.9c-0.2-0.3-0.6,0-0.6,0.3
				c0.6,4.1,4.6,8,7.9,10.1C1857.8,841.7,1858.1,841.3,1857.9,841.1L1857.9,841.1z"/>
		</g>
		<g>
			<polygon class="st15" points="1791.1,776.7 1823.6,870.1 1798.8,871.5 1796.9,871.6 1769.6,873.2 			"/>
		</g>
		<g>
			<path class="st20" d="M1792.8,822.7c1.3,31.6,1.4,63.5,3.2,95.1c0.1,1.1,1.7,1.1,1.8,0c1-31.5-0.8-63.7-4-95.1
				C1793.7,822.1,1792.7,822.1,1792.8,822.7L1792.8,822.7z"/>
			<path class="st20" d="M1806.7,854.1c-3.1,4-6.3,7.6-10.6,10.4c-0.8,0.5-0.1,1.9,0.8,1.3c4.3-2.8,8.2-6.6,10.4-11.3
				C1807.5,854.2,1807,853.8,1806.7,854.1L1806.7,854.1z"/>
			<path class="st20" d="M1795.6,844.7c-1.6-1.6-3.2-3.3-4.5-5.1c-1.1-1.6-1.9-3.4-3.1-4.9c-0.2-0.3-0.6,0-0.6,0.3
				c0.6,4.1,4.6,8,7.9,10.1C1795.5,845.3,1795.8,844.9,1795.6,844.7L1795.6,844.7z"/>
		</g>
	</g>
	<g>
		<g>
			<path class="st15" d="M1809.9,533.5c1,0,1-1.6,0-1.6S1808.9,533.5,1809.9,533.5L1809.9,533.5z"/>
		</g>
		<g>
			<path class="st15" d="M1724.5,477.2c1,0,1-1.6,0-1.6S1723.5,477.2,1724.5,477.2L1724.5,477.2z"/>
		</g>
		<g>
			<path class="st15" d="M1888,437.1c0.9,0,0.9-1.4,0-1.4S1887.1,437.1,1888,437.1L1888,437.1z"/>
		</g>
		<g>
			<path class="st15" d="M1880.8,678.7c0.9,0,0.9-1.3,0-1.3C1879.9,677.3,1879.9,678.7,1880.8,678.7L1880.8,678.7z"/>
		</g>
		<g>
			<path class="st15" d="M1548.2,594.9c0.6,0,0.6-0.9,0-0.9S1547.6,594.9,1548.2,594.9L1548.2,594.9z"/>
		</g>
		<g>
			<path class="st15" d="M1690,591.6c1,0,1-1.5,0-1.5C1689.1,590.1,1689.1,591.6,1690,591.6L1690,591.6z"/>
		</g>
		<g>
			<path class="st15" d="M1502.8,431.7c1,0,1-1.5,0-1.5S1501.8,431.7,1502.8,431.7L1502.8,431.7z"/>
		</g>
		<g>
			<path class="st15" d="M1580.9,500.8c1,0,1-1.5,0-1.5C1579.9,499.2,1579.9,500.8,1580.9,500.8L1580.9,500.8z"/>
		</g>
		<path class="st15" d="M1182.3,468.3c-0.1-0.6-0.3-1.1-0.4-1.7c-0.6-2.4-4.2-2.4-4.8,0c-0.1,0.6-0.3,1.1-0.4,1.7
			C1175.6,473,1183.4,473,1182.3,468.3L1182.3,468.3z"/>
		<g>
			<path class="st15" d="M1401.1,641.4c1.9,0,1.9-3,0-3C1399.1,638.4,1399.1,641.4,1401.1,641.4L1401.1,641.4z"/>
		</g>
		<g>
			<path class="st15" d="M1355.7,480.7c0.9,0,0.9-1.4,0-1.4C1354.7,479.3,1354.7,480.7,1355.7,480.7L1355.7,480.7z"/>
		</g>
		<path class="st15" d="M1122,569.7c0.4-1.4,0.7-2.5-0.3-3.8c-1.2-1.6-3.2-1.6-4.4,0c-0.9,1.2-0.7,2.4-0.3,3.8
			C1117.8,572.1,1121.2,572.1,1122,569.7L1122,569.7z"/>
		<g>
			<path class="st15" d="M1066.8,440.8c0.9,0,0.9-1.4,0-1.4C1065.9,439.3,1065.9,440.8,1066.8,440.8L1066.8,440.8z"/>
		</g>
		<g>
			<path class="st15" d="M1135.9,693.4c1.1,0,1.1-1.7,0-1.7C1134.8,691.7,1134.8,693.4,1135.9,693.4L1135.9,693.4z"/>
		</g>
		<g>
			<path class="st15" d="M1459.2,711.6c1.1,0,1.1-1.8,0-1.8S1458.1,711.6,1459.2,711.6L1459.2,711.6z"/>
		</g>
		<g>
			<path class="st15" d="M1531.9,660.1c0.4,0,0.4-0.6,0-0.6C1531.5,659.6,1531.5,660.1,1531.9,660.1L1531.9,660.1z"/>
		</g>
		<g>
			<path class="st15" d="M1786.3,742.1c0.6,0,0.6-1,0-1C1785.7,741.1,1785.7,742.1,1786.3,742.1L1786.3,742.1z"/>
		</g>
		<g>
			<path class="st15" d="M1911.6,587.5c0.4,0,0.4-0.7,0-0.7S1911.2,587.5,1911.6,587.5L1911.6,587.5z"/>
		</g>
		<path class="st15" d="M1645.8,407.7c0.3-1,0.5-1.6,0.2-2.5c-0.4-1.4-2.4-1.4-2.8,0c-0.3,1-0.1,1.6,0.2,2.5
			C1643.7,408.9,1645.5,408.9,1645.8,407.7L1645.8,407.7z"/>
		<g>
			<path class="st15" d="M1279.4,423.3c1.9,0,1.9-2.9,0-2.9S1277.5,423.3,1279.4,423.3L1279.4,423.3z"/>
		</g>
		<path class="st15" d="M1658.1,539c0.3-0.2,0.6-0.4,0.9-0.5c3-1.8,3-6.1,0-7.9c-0.3-0.2-0.6-0.4-0.9-0.5c-3.4-2-7.8,0.6-7.8,4.5
			C1650.3,538.4,1654.7,541,1658.1,539L1658.1,539z"/>
		<g>
			<path class="st15" d="M1793.6,623c1.7,0,1.7-2.6,0-2.6S1791.9,623,1793.6,623L1793.6,623z"/>
		</g>
		<g>
			<path class="st15" d="M1215.8,532.1c1.5,0,1.5-2.4,0-2.4S1214.3,532.1,1215.8,532.1L1215.8,532.1z"/>
		</g>
		<g>
			<path class="st15" d="M1573.7,649.9c1.3,0,1.3-2,0-2C1572.4,647.9,1572.4,649.9,1573.7,649.9L1573.7,649.9z"/>
		</g>
		<g>
			<path class="st15" d="M1468.3,543.9c0.4,0,0.4-0.7,0-0.7S1467.8,543.9,1468.3,543.9L1468.3,543.9z"/>
		</g>
		<path class="st15" d="M1585.4,554.5c-0.1-0.6-0.1-1.2-0.2-1.8c-0.1-0.9-1.3-0.9-1.4,0c-0.1,0.6-0.1,1.2-0.2,1.8
			C1583.6,555.6,1585.5,555.6,1585.4,554.5L1585.4,554.5z"/>
		<g>
			<path class="st15" d="M1699.1,636.6c0.4,0,0.4-0.7,0-0.7S1698.7,636.6,1699.1,636.6L1699.1,636.6z"/>
		</g>
		<g>
			<path class="st15" d="M1851.7,572.9c0.4,0,0.4-0.6,0-0.6C1851.3,572.4,1851.3,572.9,1851.7,572.9L1851.7,572.9z"/>
		</g>
		<g>
			<path class="st15" d="M1802.6,460.3c0.4,0,0.4-0.6,0-0.6C1802.3,459.7,1802.3,460.3,1802.6,460.3L1802.6,460.3z"/>
		</g>
		<g>
			<path class="st15" d="M1900.7,524.1c0.7,0,0.7-1.1,0-1.1C1900,523.1,1900,524.1,1900.7,524.1L1900.7,524.1z"/>
		</g>
		<g>
			<path class="st15" d="M1740.9,553.3c0.8,0,0.8-1.2,0-1.2S1740.1,553.3,1740.9,553.3L1740.9,553.3z"/>
		</g>
		<g>
			<path class="st15" d="M1264.8,491.3c0.5,0,0.5-0.8,0-0.8S1264.3,491.3,1264.8,491.3L1264.8,491.3z"/>
		</g>
		<g>
			<path class="st15" d="M1477.4,644c0.7,0,0.7-1,0-1C1476.7,643,1476.7,644,1477.4,644L1477.4,644z"/>
		</g>
		<g>
			<path class="st15" d="M1052.3,644.1c0.8,0,0.8-1.3,0-1.3C1051.5,642.9,1051.5,644.1,1052.3,644.1L1052.3,644.1z"/>
		</g>
		<g>
			<path class="st15" d="M1048.7,509.7c0.7,0,0.7-1.2,0-1.2C1047.9,508.5,1047.9,509.7,1048.7,509.7L1048.7,509.7z"/>
		</g>
		<g>
			<path class="st15" d="M1152.2,404.1c0.5,0,0.5-0.8,0-0.8S1151.7,404.1,1152.2,404.1L1152.2,404.1z"/>
		</g>
		<path class="st15" d="M1255.3,814.3c0.9-1.6,1.3-2.9,0.8-4.8c-1-3.9-6.9-3.9-7.9,0c-0.5,1.8-0.1,3.2,0.8,4.8
			C1250.3,816.7,1254,816.7,1255.3,814.3L1255.3,814.3z"/>
		<path class="st15" d="M1441.9,878.5c-6.2,1.7-3.9,11.1,2.3,9.4C1450,886.3,1447.7,877,1441.9,878.5L1441.9,878.5z"/>
		<g>
			<path class="st15" d="M1344.8,853c0.7,0,0.7-1.2,0-1.2C1344,851.8,1344,853,1344.8,853L1344.8,853z"/>
		</g>
		<g>
			<path class="st15" d="M1250.3,889.2c0.7,0,0.7-1,0-1C1249.7,888.2,1249.7,889.2,1250.3,889.2L1250.3,889.2z"/>
		</g>
		<path class="st15" d="M1391.7,959.6c0.1-0.9,0-1.7-0.3-2.6c-1.9-4.8-7.9-4.8-9.7,0c-0.3,0.8-0.4,1.7-0.3,2.6
			c0.3,2.8,2.2,5.2,5.2,5.2C1389.6,964.8,1391.4,962.4,1391.7,959.6L1391.7,959.6z"/>
		<g>
			<path class="st15" d="M1526.4,938.3c0.7,0,0.7-1.1,0-1.1C1525.7,937.2,1525.7,938.3,1526.4,938.3L1526.4,938.3z"/>
		</g>
		<g>
			<path class="st15" d="M1537.3,867.7c1,0,1-1.5,0-1.5S1536.3,867.7,1537.3,867.7L1537.3,867.7z"/>
		</g>
		<g>
			<path class="st15" d="M1622.7,936.5c0.7,0,0.7-1.1,0-1.1S1622,936.5,1622.7,936.5L1622.7,936.5z"/>
		</g>
		<path class="st15" d="M1477.9,1003.9c-0.7-1.9-1.8-3.9-4.1-3.9c-2.3,0-3.4,2-4.1,3.9c-1,2.6,1.6,5.4,4.1,5.4
			C1476.3,1009.2,1478.9,1006.5,1477.9,1003.9L1477.9,1003.9z"/>
		<g>
			<path class="st15" d="M1319.3,998.2c0.6,0,0.6-1,0-1C1318.7,997.2,1318.7,998.2,1319.3,998.2L1319.3,998.2z"/>
		</g>
		<g>
			<path class="st15" d="M924.2,1142c0.7,0,0.7-1.1,0-1.1C923.4,1140.8,923.4,1142,924.2,1142L924.2,1142z"/>
		</g>
		<g>
			<path class="st15" d="M1308.4,784c0.7,0,0.7-1.2,0-1.2S1307.7,784,1308.4,784L1308.4,784z"/>
		</g>
		<g>
			<path class="st15" d="M1121.3,882.2c0.9,0,0.9-1.4,0-1.4S1120.4,882.2,1121.3,882.2L1121.3,882.2z"/>
		</g>
		<g>
			<path class="st15" d="M1052.3,871.2c0.9,0,0.9-1.3,0-1.3S1051.4,871.2,1052.3,871.2L1052.3,871.2z"/>
		</g>
		<path class="st15" d="M1054.7,919.2c0.2-0.3,0.3-0.6,0.5-0.9c0.7-1.4,0.5-2.9-0.5-4c-0.1-0.1-0.2-0.2-0.3-0.3
			c-1-1.1-3.1-1.1-4.1,0c-0.1,0.1-0.2,0.2-0.3,0.3c-1,1.1-1.2,2.7-0.5,4c0.2,0.3,0.3,0.6,0.5,0.9
			C1050.9,920.9,1053.7,920.9,1054.7,919.2L1054.7,919.2z"/>
		<path class="st15" d="M1684.6,908.1c6.2,0,6.3-9.7,0-9.7C1678.3,898.4,1678.3,908.1,1684.6,908.1L1684.6,908.1z"/>
		<g>
			<path class="st15" d="M1626.3,863.9c0.8,0,0.8-1.2,0-1.2C1625.6,862.7,1625.6,863.9,1626.3,863.9L1626.3,863.9z"/>
		</g>
		<g>
			<path class="st15" d="M1646.4,818.6c0.9,0,0.9-1.4,0-1.4S1645.5,818.6,1646.4,818.6L1646.4,818.6z"/>
		</g>
		<g>
			<path class="st15" d="M1571.8,825.8c0.8,0,0.8-1.3,0-1.3S1571,825.8,1571.8,825.8L1571.8,825.8z"/>
		</g>
		<g>
			<path class="st15" d="M1744.5,812.1c1.9,0,1.9-3,0-3S1742.6,812.1,1744.5,812.1L1744.5,812.1z"/>
		</g>
		<g>
			<path class="st15" d="M1688.2,849.4c0.9,0,0.9-1.3,0-1.3C1687.3,848.1,1687.3,849.4,1688.2,849.4L1688.2,849.4z"/>
		</g>
		<g>
			<path class="st15" d="M1764.5,894.8c0.8,0,0.8-1.3,0-1.3C1763.7,893.6,1763.7,894.8,1764.5,894.8L1764.5,894.8z"/>
		</g>
		<path class="st15" d="M1835.3,983.3c5.7,0,11.2-5.1,11-11c-0.3-6-4.8-11-11-11c-5.7,0-11.3,5.1-11,11
			C1824.6,978.2,1829.2,983.3,1835.3,983.3L1835.3,983.3z"/>
		<g>
			<path class="st15" d="M1659.1,1056.3c2.9,0,2.9-4.5,0-4.5S1656.2,1056.3,1659.1,1056.3L1659.1,1056.3z"/>
		</g>
		<g>
			<path class="st15" d="M1742.7,1012.9c0.8,0,0.8-1.3,0-1.3C1741.9,1011.6,1741.9,1012.9,1742.7,1012.9L1742.7,1012.9z"/>
		</g>
		<g>
			<path class="st15" d="M1713.6,1171.2c3.6,0,3.6-5.5,0-5.5C1710.1,1165.7,1710.1,1171.2,1713.6,1171.2L1713.6,1171.2z"/>
		</g>
		<g>
			<path class="st15" d="M1600.9,1124.1c1.3,0,1.3-2,0-2S1599.6,1124.1,1600.9,1124.1L1600.9,1124.1z"/>
		</g>
		<g>
			<path class="st15" d="M1606.4,1219.3c2.1,0,2.1-3.3,0-3.3S1604.3,1219.3,1606.4,1219.3L1606.4,1219.3z"/>
		</g>
		<path class="st15" d="M1450.1,1249.6c3.4,0,6.7-3,6.6-6.6c-0.2-3.6-2.9-6.6-6.6-6.6c-3.4,0-6.7,3-6.6,6.6
			C1443.7,1246.6,1446.5,1249.6,1450.1,1249.6L1450.1,1249.6z"/>
		<g>
			<path class="st15" d="M1497.4,1147.7c1.3,0,1.3-2,0-2S1496.1,1147.7,1497.4,1147.7L1497.4,1147.7z"/>
		</g>
		<g>
			<path class="st15" d="M786.4,1211.6c1.3,0,1.3-2,0-2C785.2,1209.5,785.2,1211.6,786.4,1211.6L786.4,1211.6z"/>
		</g>
		<g>
			<path class="st15" d="M1696.7,1241.9c1.9,0,1.9-3,0-3C1694.7,1238.8,1694.7,1241.9,1696.7,1241.9L1696.7,1241.9z"/>
		</g>
		<g>
			<path class="st15" d="M1259,1246.6c1.2,0,1.2-1.9,0-1.9C1257.8,1244.6,1257.8,1246.6,1259,1246.6L1259,1246.6z"/>
		</g>
		<g>
			<path class="st15" d="M915.9,1164.2c1.2,0,1.2-1.9,0-1.9S914.7,1164.2,915.9,1164.2L915.9,1164.2z"/>
		</g>
		<g>
			<path class="st15" d="M1141.3,1168.1c1.9,0,1.9-3,0-3C1139.4,1165.2,1139.4,1168.1,1141.3,1168.1L1141.3,1168.1z"/>
		</g>
		<path class="st15" d="M1298.2,1163.7c0.2-0.2,0.4-0.4,0.6-0.6c4-4.1,1.3-12-4.9-11.8c-5.9,0.3-9.1,7.3-4.9,11.8
			c0.2,0.2,0.4,0.4,0.6,0.6C1291.9,1166,1296,1166,1298.2,1163.7L1298.2,1163.7z"/>
		<path class="st15" d="M909.7,1234.2c0.2-0.2,0.4-0.4,0.6-0.6c4-4.1,1.3-12-4.9-11.8c-5.9,0.3-9.1,7.3-4.9,11.8
			c0.2,0.2,0.4,0.4,0.6,0.6C903.4,1236.5,907.5,1236.5,909.7,1234.2L909.7,1234.2z"/>
		<path class="st15" d="M1420.4,1071.6c-0.5-0.1-1.1-0.2-1.6-0.3c-2.6-0.5-4.7,1.5-4.1,4.1c0.1,0.5,0.2,1.1,0.3,1.6
			c0.7,3.3,5.2,4.2,7.4,2C1424.6,1076.7,1423.8,1072.2,1420.4,1071.6L1420.4,1071.6z"/>
		<path class="st15" d="M1203.1,1012.4c3.9,0,7.6-3.4,7.4-7.4s-3.3-7.4-7.4-7.4c-3.9,0-7.6,3.4-7.4,7.4
			C1195.9,1009,1198.9,1012.4,1203.1,1012.4L1203.1,1012.4z"/>
		<g>
			<path class="st15" d="M1234,950.5c2.3,0,2.3-3.6,0-3.6S1231.7,950.5,1234,950.5L1234,950.5z"/>
		</g>
		<g>
			<path class="st15" d="M1074.1,932.2c2.1,0,2.1-3.3,0-3.3S1072,932.2,1074.1,932.2L1074.1,932.2z"/>
		</g>
		<g>
			<path class="st15" d="M1143.1,1085.1c2.6,0,2.6-4,0-4S1140.5,1085.1,1143.1,1085.1L1143.1,1085.1z"/>
		</g>
		<path class="st15" d="M1862.3,771.4c-0.7,3.8,3.7,7.1,6.8,4c1.9-1.9,1.4-5.1-0.8-6.4C1866.2,767.7,1862.7,768.7,1862.3,771.4
			L1862.3,771.4z"/>
		<g>
			<path class="st15" d="M1911.6,748c1.3,0,1.3-2,0-2S1910.3,748,1911.6,748L1911.6,748z"/>
		</g>
		<g>
			<path class="st15" d="M1462.8,820c0.4,0,0.4-0.7,0-0.7C1462.4,819.4,1462.4,820,1462.8,820L1462.8,820z"/>
		</g>
		<g>
			<path class="st15" d="M1739.1,858.2c0.4,0,0.4-0.7,0-0.7C1738.6,857.5,1738.6,858.2,1739.1,858.2L1739.1,858.2z"/>
		</g>
		<g>
			<path class="st15" d="M1180.2,786.3c2.2,0,2.2-3.4,0-3.4S1178,786.3,1180.2,786.3L1180.2,786.3z"/>
		</g>
	</g>
	<polygon class="st15" points="470.8,1448.6 731.2,1241.7 657.7,1218 812.7,1218 759.4,1180.4 1032.2,1180.4 974.9,1208.7 
		1267.4,1216 1176.9,1239.1 1320.3,1447.7 	"/>
	
		<linearGradient id="SVGID_42_" gradientUnits="userSpaceOnUse" x1="-259.4593" y1="4096.9443" x2="512.0963" y2="4096.9443" gradientTransform="matrix(0.7875 0 0 -0.7875 204.2242 4778.1938)">
		<stop  offset="0" style="stop-color:#0E4073"/>
		<stop  offset="1" style="stop-color:#02969E;stop-opacity:0"/>
	</linearGradient>
	<polygon class="st27" points="607.5,1270.1 470.8,1384.3 470.8,1448.6 360.1,1607.8 247.9,1632.5 -0.1,1833.6 -0.1,1270.1 	"/>
	<g>
		<defs>
			<polygon id="SVGID_43_" points="-0.1,1833.6 247.9,1632.5 360.1,1607.8 470.8,1448.6 731.2,1241.7 812.7,1218 759.4,1180.4 
				1032.2,1180.4 974.9,1208.7 1320.3,1447.7 1413.6,1583.4 1599.1,1719.3 1799.8,1752.3 1919.2,1926.2 -0.1,1926.2 			"/>
		</defs>
		<clipPath id="SVGID_44_">
			<use xlink:href="#SVGID_43_"  style="overflow:visible;"/>
		</clipPath>
		
			<linearGradient id="SVGID_45_" gradientUnits="userSpaceOnUse" x1="959.6518" y1="4568.627" x2="959.6518" y2="3779.5474" gradientTransform="matrix(0.7875 0 0 -0.7875 204.2242 4778.1938)">
			<stop  offset="0" style="stop-color:#0E4073"/>
			<stop  offset="1" style="stop-color:#02969E;stop-opacity:0"/>
		</linearGradient>
		<rect x="-0.1" y="1180.4" class="st28" width="1920.1" height="621.4"/>
	</g>
	
		<linearGradient id="SVGID_46_" gradientUnits="userSpaceOnUse" x1="1422.3185" y1="4038.1506" x2="2177.7468" y2="4038.1506" gradientTransform="matrix(0.7875 0 0 -0.7875 204.2242 4778.1938)">
		<stop  offset="0" style="stop-color:#0E4073"/>
		<stop  offset="1" style="stop-color:#02969E;stop-opacity:0"/>
	</linearGradient>
	<polygon class="st29" points="1324.3,1270.1 1436.4,1436.6 1413.6,1583.4 1599.1,1719.3 1799.8,1752.3 1919.2,1926.2 
		1919.2,1270.1 	"/>
	
		<linearGradient id="SVGID_47_" gradientUnits="userSpaceOnUse" x1="1235.1439" y1="4275.4839" x2="1564.6677" y2="4275.4839" gradientTransform="matrix(0.7875 0 0 -0.7875 204.2242 4778.1938)">
		<stop  offset="0" style="stop-color:#0E4073"/>
		<stop  offset="1" style="stop-color:#02969E;stop-opacity:0"/>
	</linearGradient>
	<polygon class="st30" points="1176.9,1239.1 1413.6,1583.4 1436.4,1436.6 1324.3,1270.1 	"/>
	
		<linearGradient id="SVGID_48_" gradientUnits="userSpaceOnUse" x1="575.8423" y1="4505.833" x2="772.6677" y2="4505.833" gradientTransform="matrix(0.7875 0 0 -0.7875 204.2242 4778.1938)">
		<stop  offset="0" style="stop-color:#0E4073"/>
		<stop  offset="1" style="stop-color:#02969E;stop-opacity:0"/>
	</linearGradient>
	<polygon class="st31" points="812.7,1218 731.2,1241.7 657.7,1218 	"/>
	
		<linearGradient id="SVGID_49_" gradientUnits="userSpaceOnUse" x1="978.6359" y1="4380.9443" x2="1417.2391" y2="4380.9443" gradientTransform="matrix(0.7875 0 0 -0.7875 204.2242 4778.1938)">
		<stop  offset="0" style="stop-color:#0E4073"/>
		<stop  offset="1" style="stop-color:#02969E;stop-opacity:0"/>
	</linearGradient>
	<polygon class="st32" points="974.9,1208.7 1320.3,1447.7 1176.9,1239.1 1267.4,1216 	"/>
	
		<linearGradient id="SVGID_50_" gradientUnits="userSpaceOnUse" x1="338.5089" y1="4359.4204" x2="669.1756" y2="4359.4204" gradientTransform="matrix(0.7875 0 0 -0.7875 204.2242 4778.1938)">
		<stop  offset="0" style="stop-color:#0E4073"/>
		<stop  offset="1" style="stop-color:#02969E;stop-opacity:0"/>
	</linearGradient>
	<polygon class="st33" points="470.8,1448.6 731.2,1241.7 607.5,1270.1 470.8,1384.3 	"/>
</g>
</svg>
