<?xml version="1.0" encoding="utf-8"?>
<!-- Generator: Adobe Illustrator 23.0.3, SVG Export Plug-In . SVG Version: 6.00 Build 0)  -->
<svg version="1.1" id="Layer_1" xmlns="http://www.w3.org/2000/svg" xmlns:xlink="http://www.w3.org/1999/xlink" x="0px" y="0px"
	 width="1617.8px" height="455.7px" viewBox="0 0 1617.8 455.7" style="enable-background:new 0 0 1617.8 455.7;"
	 xml:space="preserve">
<style type="text/css">
	.st0{fill:none;stroke:#FFFFFF;stroke-width:3;stroke-linecap:round;stroke-miterlimit:10;}
	.st1{fill:none;stroke:#7CB43D;stroke-width:3;stroke-linecap:round;stroke-miterlimit:10;}
	.st2{fill:#FFFFFF;}
	.st3{fill:none;stroke:#1D1D1D;stroke-width:3;stroke-linecap:round;stroke-miterlimit:10;}
	.st4{fill:none;stroke:#85B93E;stroke-width:3;stroke-miterlimit:10;}
	.st5{fill:none;stroke:#1D1D1D;stroke-width:3;stroke-miterlimit:10;}
	.st6{fill:none;stroke:#85B93E;stroke-width:3;stroke-linecap:round;stroke-miterlimit:10;}
	.st7{fill:url(#SVGID_1_);stroke:#1D1D1D;stroke-width:3;stroke-miterlimit:10;}
	.st8{fill:url(#SVGID_2_);stroke:#1D1D1D;stroke-width:3;stroke-miterlimit:10;}
	.st9{fill:url(#SVGID_3_);stroke:#1D1D1D;stroke-width:3;stroke-miterlimit:10;}
	.st10{fill:#7CB43D;}
</style>
<polyline class="st0" points="888.4,377.3 888.4,332.2 1025,332.2 1025,425.4 "/>
<g>
	<polyline class="st1" points="1281.1,119 1257,94.9 1280.1,71.8 1311.1,71.8 	"/>
	<polyline class="st1" points="1341.1,119 1365.3,94.9 1342.2,71.8 1311.1,71.8 	"/>
</g>
<path class="st0" d="M1616.3,47.8h-374.1c-4.6,0-8.3-3.7-8.3-8.3l0,0c0-4.6,3.7-8.3,8.3-8.3h374.1"/>
<g>
	<g>
		<path class="st2" d="M1100.8,22.4v9.3h-70.1v-9.3H1100.8 M1103.8,19.4h-76.1v15.3h76.1V19.4L1103.8,19.4z"/>
	</g>
	<polyline class="st1" points="1094.1,19.4 1093,1.5 1038.6,1.5 1037.5,19.4 	"/>
	<line class="st1" x1="1106.2" y1="215.3" x2="1095" y2="34.7"/>
	<line class="st1" x1="1036.5" y1="34.7" x2="1022.7" y2="259"/>
	<rect x="1027.7" y="19.4" class="st3" width="76.1" height="15.3"/>
</g>
<g>
	<g>
		<path class="st2" d="M947.1,111.7v9.3H877v-9.3H947.1 M950.1,108.7H874V124h76.1V108.7L950.1,108.7z"/>
	</g>
	<line class="st1" x1="947.1" y1="218.2" x2="941.3" y2="124"/>
	<line class="st1" x1="882.8" y1="124" x2="874.7" y2="256.1"/>
	<polyline class="st1" points="940.4,108.7 939.3,90.8 884.9,90.8 883.8,108.7 	"/>
	<rect x="874" y="108.7" class="st3" width="76.1" height="15.3"/>
</g>
<polyline class="st1" points="1230.9,199.3 1230.9,188.3 1391.3,188.3 1391.3,199.3 "/>
<g>
	<path class="st4" d="M1459.1,281.7v-28.8c0-26-21.1-47.1-47.1-47.1v30c9.4,0,17.1,7.7,17.1,17.1v28.8"/>
	<g>
		<g>
			<g>
				<g>
					<g>
						<path class="st2" d="M1458.9,284.8v14v5.2l5-1.3c4-1,8.1-1.6,12.3-1.6c26.6,0,48.2,21.6,48.2,48.2v68.5v3.9h-30.9v-3.9v-18
							v-5.2l-5,1.3c-4,1-8.1,1.6-12.3,1.6c-26.6,0-48.2-21.6-48.2-48.2v-64.5H1458.9 M1462.9,280.8H1424v68.5
							c0,28.8,23.4,52.2,52.2,52.2c4.6,0,9.1-0.6,13.3-1.7v18h-7.8v7.9h54.6v-7.9h-7.9v-68.5c0-28.8-23.4-52.2-52.2-52.2
							c-4.6,0-9.1,0.6-13.3,1.7L1462.9,280.8L1462.9,280.8z"/>
					</g>
				</g>
			</g>
		</g>
		<g>
			<g>
				<path class="st5" d="M1489.5,399.8c-4.2,1.1-8.7,1.7-13.3,1.7c-28.8,0-52.2-23.4-52.2-52.2v-68.5h38.9v18
					c4.2-1.1,8.7-1.7,13.3-1.7c28.8,0,52.2,23.4,52.2,52.2v68.5h7.9v7.9h-54.6v-7.9h7.8C1489.5,417.8,1489.5,399.8,1489.5,399.8z"/>
				<path class="st6" d="M1491.2,305.1c-3.5-1.2-7.2-2-11-2.3l-3.7,7.6c-1.2-0.1-2.5,0-3.7,0.1c-0.5,0-0.9,0.1-1.3,0.1l-4.5-7.1
					c-3.7,0.8-7.3,1.9-10.6,3.5l0.6,8.4c-1.5,0.8-2.9,1.7-4.2,2.7l-7.4-3.9c-2.8,2.4-5.4,5.2-7.5,8.3l4.7,7
					c-0.9,1.4-1.6,2.9-2.3,4.4l-8.4,0.3c-1.2,3.5-2,7.2-2.3,11l7.6,3.7c-0.1,1.2,0,2.5,0.1,3.7c0,0.5,0,0.9,0.1,1.3l-7.1,4.5
					c0.8,3.7,1.9,7.3,3.5,10.6l8.4-0.6c0.8,1.5,1.7,2.9,2.7,4.2l-3.9,7.4c2.4,2.9,5.2,5.4,8.3,7.5l7-4.7c1.4,0.9,2.9,1.6,4.4,2.3
					l0.3,8.4c3.5,1.2,7.2,2,11,2.3l3.7-7.6c1.2,0,2.5,0,3.7-0.1c0.5,0,0.9,0,1.3-0.1l4.5,7.1c3.7-0.8,7.3-1.9,10.6-3.5l-0.6-8.4
					c1.5-0.8,2.9-1.7,4.2-2.7l7.4,3.9c2.9-2.4,5.4-5.2,7.5-8.3l-4.7-7c0.9-1.4,1.6-2.9,2.3-4.4l8.4-0.3c1.2-3.5,2-7.2,2.3-11
					l-7.6-3.7c0-1.2,0-2.5-0.1-3.7c0-0.5,0-0.9-0.1-1.3l7.1-4.5c-0.8-3.7-1.9-7.3-3.5-10.6l-8.4,0.6c-0.8-1.5-1.7-2.9-2.7-4.2
					l3.9-7.4c-2.4-2.9-5.2-5.4-8.3-7.5l-7,4.7c-1.4-0.9-2.9-1.6-4.4-2.3L1491.2,305.1z M1503.6,349.3c0,15.1-12.3,27.4-27.4,27.4
					s-27.4-12.3-27.4-27.4s12.3-27.4,27.4-27.4S1503.6,334.2,1503.6,349.3z"/>
			</g>
		</g>
	</g>
</g>
<g>
	<g id="Dev_x5F_Bounty">
		<line class="st1" x1="1028" y1="425.7" x2="1616.3" y2="425.7"/>
		<line class="st1" x1="1155.7" y1="440" x2="1411.6" y2="440"/>
		<g>
			<line class="st1" x1="1192.9" y1="454.2" x2="1297.5" y2="454.2"/>
			<line class="st1" x1="1332.7" y1="454.2" x2="1374.4" y2="454.2"/>
		</g>
	</g>
</g>
<polyline class="st3" points="885.4,377.3 885.4,329.2 1028,329.2 1028,415.4 "/>
<rect x="885.4" y="295.2" class="st1" width="142.6" height="26.6"/>
<polyline class="st3" points="835.2,425.7 988.8,425.7 1120.3,425.7 1142.4,425.7 1210.1,425.7 1232.5,425.7 1412.1,425.7 
	1412.1,201.1 1210.1,201.1 1210.1,289.2 1142.4,289.2 1142.4,196.4 988.8,276.8 988.8,196.4 835.2,276.8 835.2,377.3 "/>
<line class="st1" x1="1036.9" y1="389.3" x2="1403.2" y2="389.3"/>
<g>
	<circle class="st1" cx="1061.3" cy="361.1" r="12.5"/>
	<circle class="st1" cx="1124.8" cy="361.1" r="12.5"/>
	<circle class="st1" cx="1188.3" cy="361.1" r="12.5"/>
	<circle class="st1" cx="1378.8" cy="361.1" r="12.5"/>
	<circle class="st1" cx="1315.3" cy="361.1" r="12.5"/>
	<circle class="st1" cx="1251.8" cy="361.1" r="12.5"/>
</g>
<circle class="st1" cx="1258.7" cy="39.5" r="5.4"/>
<circle class="st1" cx="1341.1" cy="39.5" r="5.4"/>
<circle class="st1" cx="1423.6" cy="39.5" r="5.4"/>
<circle class="st1" cx="1588.5" cy="39.5" r="5.4"/>
<circle class="st1" cx="1506.1" cy="39.5" r="5.4"/>
<path class="st3" d="M1616.3,50.8h-374.1c-6.3,0-11.3-5.1-11.3-11.3l0,0c0-6.3,5.1-11.3,11.3-11.3h374.1"/>
<g>
	<path id="Chain_Brush_1_1_" class="st1" d="M1018,396.2v10.7c0,5.9-4.7,10.7-10.5,10.7h-21.1c-5.8,0-10.5-4.8-10.5-10.7h7.4
		c0,1.8,1.4,3.2,3.2,3.2h21.1c1.7,0,3.2-1.4,3.2-3.2v-10.7c0-1.8-1.4-3.2-3.2-3.2h-21.1c-1.7,0-3.2,1.4-3.2,3.2h-7.4
		c0-5.9,4.7-10.7,10.5-10.7h21.1C1013.3,385.6,1018,390.3,1018,396.2z M950,401.6c0,2.1,1.7,3.7,3.7,3.7h34.8c2,0,3.7-1.7,3.7-3.7
		s-1.7-3.7-3.7-3.7h-34.8C951.7,397.8,950,399.5,950,401.6z M954.8,410.1h-21.1c-1.7,0-3.2-1.4-3.2-3.2h-7.4
		c0,5.9,4.7,10.7,10.5,10.7h21.1c5.8,0,10.5-4.8,10.5-10.7h-7.4C957.9,408.7,956.5,410.1,954.8,410.1z M902.1,410.1H881
		c-1.7,0-3.2-1.4-3.2-3.2h-7.4c0,5.9,4.7,10.7,10.5,10.7H902c5.8,0,10.5-4.8,10.5-10.7h-7.4C905.2,408.7,903.8,410.1,902.1,410.1z
		 M901,397.8c-2,0-3.7,1.7-3.7,3.7s1.7,3.7,3.7,3.7h34.8c2,0,3.7-1.7,3.7-3.7s-1.7-3.7-3.7-3.7H901z M933.7,393h21.1
		c1.7,0,3.2,1.4,3.2,3.2h7.4c0-5.9-4.7-10.7-10.5-10.7h-21.1c-5.8,0-10.5,4.8-10.5,10.7h7.4C930.5,394.5,931.9,393,933.7,393z
		 M881,393h21.1c1.7,0,3.2,1.4,3.2,3.2h7.4c0-5.9-4.7-10.7-10.5-10.7h-21.1c-5.8,0-10.5,4.8-10.5,10.7h7.4
		C877.8,394.5,879.2,393,881,393z M848.3,397.8c-2,0-3.7,1.7-3.7,3.7s1.7,3.7,3.7,3.7h34.8c2,0,3.7-1.7,3.7-3.7s-1.7-3.7-3.7-3.7
		H848.3z M849.4,410.1h-21.1c-1.7,0-3.2-1.4-3.2-3.2h-7.4c0,5.9,4.7,10.7,10.5,10.7h21.1c5.8,0,10.5-4.8,10.5-10.7h-7.4
		C852.5,408.7,851.1,410.1,849.4,410.1z M828.3,393h21.1c1.7,0,3.2,1.4,3.2,3.2h7.4c0-5.9-4.7-10.7-10.5-10.7h-21.2
		c-5.8,0-10.5,4.8-10.5,10.7h7.4C825.1,394.5,826.5,393,828.3,393z M795.6,397.8c-2,0-3.7,1.7-3.7,3.7s1.7,3.7,3.7,3.7h34.8
		c2,0,3.7-1.7,3.7-3.7s-1.7-3.7-3.7-3.7H795.6z M796.7,410.1h-21.1c-1.7,0-3.2-1.4-3.2-3.2H765c0,5.9,4.7,10.7,10.5,10.7h21.1
		c5.8,0,10.5-4.8,10.5-10.7h-7.4C799.8,408.7,798.4,410.1,796.7,410.1z M775.6,393h21.1c1.7,0,3.2,1.4,3.2,3.2h7.4
		c0-5.9-4.7-10.7-10.5-10.7h-21.1c-5.8,0-10.5,4.8-10.5,10.7h7.4C772.4,394.5,773.8,393,775.6,393z M742.9,397.8
		c-2,0-3.7,1.7-3.7,3.7s1.7,3.7,3.7,3.7h34.8c2,0,3.7-1.7,3.7-3.7s-1.7-3.7-3.7-3.7H742.9z M744,410.1h-21.1c-1.7,0-3.2-1.4-3.2-3.2
		h-7.4c0,5.9,4.7,10.7,10.5,10.7h21.1c5.8,0,10.5-4.8,10.5-10.7H747C747.1,408.7,745.7,410.1,744,410.1z M690.2,397.8
		c-2,0-3.7,1.7-3.7,3.7s1.7,3.7,3.7,3.7H725c2,0,3.7-1.7,3.7-3.7s-1.7-3.7-3.7-3.7H690.2z M722.9,393H744c1.7,0,3.2,1.4,3.2,3.2h7.4
		c0-5.9-4.7-10.7-10.5-10.7H723c-5.8,0-10.5,4.8-10.5,10.7h7.4C719.7,394.5,721.2,393,722.9,393z M691.3,410.1h-21.1
		c-1.7,0-3.2-1.4-3.2-3.2h-7.4c0,5.9,4.7,10.7,10.5,10.7h21.2c5.8,0,10.5-4.8,10.5-10.7h-7.4C694.4,408.7,693,410.1,691.3,410.1z
		 M638.6,410.1h-21.1c-1.7,0-3.2-1.4-3.2-3.2h-7.4c0,5.9,4.7,10.7,10.5,10.7h21.1c5.8,0,10.5-4.8,10.5-10.7h-7.4
		C641.8,408.7,640.3,410.1,638.6,410.1z M670.2,393h21.1c1.7,0,3.2,1.4,3.2,3.2h7.4c0-5.9-4.7-10.7-10.5-10.7h-21.1
		c-5.8,0-10.5,4.8-10.5,10.7h7.4C667,394.5,668.5,393,670.2,393z M637.5,397.8c-2,0-3.7,1.7-3.7,3.7s1.7,3.7,3.7,3.7h34.8
		c2,0,3.7-1.7,3.7-3.7s-1.7-3.7-3.7-3.7H637.5z M585.9,410.1h-21.1c-1.7,0-3.2-1.4-3.2-3.2h-7.3c0,5.9,4.7,10.7,10.5,10.7h21.1
		c5.8,0,10.5-4.8,10.5-10.7H589C589.1,408.7,587.6,410.1,585.9,410.1z M617.5,393h21.1c1.7,0,3.2,1.4,3.2,3.2h7.4
		c0-5.9-4.7-10.7-10.5-10.7h-21.1c-5.8,0-10.5,4.8-10.5,10.7h7.4C614.4,394.5,615.8,393,617.5,393z M584.8,397.8
		c-2,0-3.7,1.7-3.7,3.7s1.7,3.7,3.7,3.7h34.8c2,0,3.7-1.7,3.7-3.7s-1.7-3.7-3.7-3.7H584.8z M564.8,393h21.1c1.7,0,3.2,1.4,3.2,3.2
		h7.4c0-5.9-4.7-10.7-10.5-10.7h-21.1c-5.8,0-10.5,4.8-10.5,10.7h7.4C561.7,394.5,563.1,393,564.8,393z M532.1,397.8
		c-2,0-3.7,1.7-3.7,3.7s1.7,3.7,3.7,3.7h34.8c2,0,3.7-1.7,3.7-3.7s-1.7-3.7-3.7-3.7H532.1z M533.2,410.1h-21.1
		c-1.7,0-3.2-1.4-3.2-3.2h-7.4c0,5.9,4.7,10.7,10.5,10.7h21.1c5.8,0,10.5-4.8,10.5-10.7h-7.4C536.4,408.7,534.9,410.1,533.2,410.1z
		 M479.5,397.8c-2,0-3.7,1.7-3.7,3.7s1.7,3.7,3.7,3.7h34.8c2,0,3.7-1.7,3.7-3.7s-1.7-3.7-3.7-3.7H479.5z M512.1,393h21.1
		c1.7,0,3.2,1.4,3.2,3.2h7.4c0-5.9-4.7-10.7-10.5-10.7h-21.1c-5.8,0-10.5,4.8-10.5,10.7h7.4C509,394.5,510.4,393,512.1,393z"/>
	<path id="Chain_Brush_1_2_" class="st1" d="M480.5,410.1h-21.1c-1.7,0-3.2-1.4-3.2-3.2h-7.4c0,5.9,4.7,10.7,10.5,10.7h21.1
		c5.8,0,10.5-4.8,10.5-10.7h-7.4C483.7,408.7,482.3,410.1,480.5,410.1z M427.8,410.1h-21.1c-1.7,0-3.2-1.4-3.2-3.2h-7.4
		c0,5.9,4.7,10.7,10.5,10.7h21.1c5.8,0,10.5-4.8,10.5-10.7h-7.4C431,408.7,429.6,410.1,427.8,410.1z M426.8,397.8
		c-2,0-3.7,1.7-3.7,3.7s1.7,3.7,3.7,3.7h34.8c2,0,3.7-1.7,3.7-3.7s-1.7-3.7-3.7-3.7H426.8z M459.4,393h21.1c1.7,0,3.2,1.4,3.2,3.2
		h7.4c0-5.9-4.7-10.7-10.5-10.7h-21.1c-5.8,0-10.5,4.8-10.5,10.7h7.4C456.3,394.5,457.7,393,459.4,393z M406.7,393h21.1
		c1.7,0,3.2,1.4,3.2,3.2h7.4c0-5.9-4.7-10.7-10.5-10.7h-21.1c-5.8,0-10.5,4.8-10.5,10.7h7.4C403.6,394.5,405,393,406.7,393z
		 M374.1,397.8c-2,0-3.7,1.7-3.7,3.7s1.7,3.7,3.7,3.7h34.8c2,0,3.7-1.7,3.7-3.7s-1.7-3.7-3.7-3.7H374.1z M375.1,410.1H354
		c-1.7,0-3.2-1.4-3.2-3.2h-7.4c0,5.9,4.7,10.7,10.5,10.7H375c5.8,0,10.5-4.8,10.5-10.7h-7.2C378.3,408.7,376.9,410.1,375.1,410.1z
		 M354,393h21.1c1.7,0,3.2,1.4,3.2,3.2h7.4c0-5.9-4.7-10.7-10.5-10.7h-21.1c-5.8,0-10.5,4.8-10.5,10.7h7.4
		C350.9,394.5,352.3,393,354,393z M321.4,397.8c-2,0-3.7,1.7-3.7,3.7s1.7,3.7,3.7,3.7h34.8c2,0,3.7-1.7,3.7-3.7s-1.7-3.7-3.7-3.7
		H321.4z M322.4,410.1h-21.1c-1.7,0-3.2-1.4-3.2-3.2h-7.4c0,5.9,4.7,10.7,10.5,10.7h21.1c5.8,0,10.5-4.8,10.5-10.7h-7.4
		C325.6,408.7,324.2,410.1,322.4,410.1z M301.3,393h21.1c1.7,0,3.2,1.4,3.2,3.2h7.4c0-5.9-4.7-10.7-10.5-10.7h-21.2
		c-5.8,0-10.5,4.8-10.5,10.7h7.4C298.2,394.5,299.6,393,301.3,393z M268.7,397.8c-2,0-3.7,1.7-3.7,3.7s1.7,3.7,3.7,3.7h34.8
		c2,0,3.7-1.7,3.7-3.7s-1.7-3.7-3.7-3.7H268.7z M269.7,410.1h-21.1c-1.7,0-3.2-1.4-3.2-3.2H238c0,5.9,4.7,10.7,10.5,10.7h21.1
		c5.8,0,10.5-4.8,10.5-10.7h-7.4C272.9,408.7,271.5,410.1,269.7,410.1z M216,397.8c-2,0-3.7,1.7-3.7,3.7s1.7,3.7,3.7,3.7h34.8
		c2,0,3.7-1.7,3.7-3.7s-1.7-3.7-3.7-3.7H216z M248.7,393h21.1c1.7,0,3.2,1.4,3.2,3.2h7.4c0-5.9-4.7-10.7-10.5-10.7h-21.1
		c-5.8,0-10.5,4.8-10.5,10.7h7.4C245.5,394.5,246.9,393,248.7,393z M217,410.1h-21.1c-1.7,0-3.2-1.4-3.2-3.2h-7.4
		c0,5.9,4.7,10.7,10.5,10.7h21.1c5.8,0,10.5-4.8,10.5-10.7H220C220.2,408.7,218.8,410.1,217,410.1z M164.3,410.1h-21
		c-1.7,0-3.2-1.4-3.2-3.2h-7.4c0,5.9,4.7,10.7,10.5,10.7h21.1c5.8,0,10.5-4.8,10.5-10.7h-7.4C167.5,408.7,166.1,410.1,164.3,410.1z
		 M196,393h21.1c1.7,0,3.2,1.4,3.2,3.2h7.4c0-5.9-4.7-10.7-10.5-10.7h-21.1c-5.8,0-10.5,4.8-10.5,10.7h7.4
		C192.8,394.5,194.2,393,196,393z M163.3,397.8c-2,0-3.7,1.7-3.7,3.7s1.7,3.7,3.7,3.7h34.8c2,0,3.7-1.7,3.7-3.7s-1.7-3.7-3.7-3.7
		H163.3z M111.7,410.1H90.6c-1.7,0-3.2-1.4-3.2-3.2H80c0,5.9,4.7,10.7,10.5,10.7h21.1c5.8,0,10.5-4.8,10.5-10.7h-7.4
		C114.8,408.7,113.4,410.1,111.7,410.1z M143.3,393h21c1.7,0,3.2,1.4,3.2,3.2h7.4c0-5.9-4.7-10.7-10.5-10.7h-21.1
		c-5.8,0-10.5,4.8-10.5,10.7h7.4C140.1,394.5,141.5,393,143.3,393z M110.6,397.8c-2,0-3.7,1.7-3.7,3.7s1.7,3.7,3.7,3.7h34.8
		c2,0,3.7-1.7,3.7-3.7s-1.7-3.7-3.7-3.7H110.6z M90.6,393h21.1c1.7,0,3.2,1.4,3.2,3.2h7.4c0-5.9-4.7-10.7-10.5-10.7H90.7
		c-5.8,0-10.5,4.8-10.5,10.7h7.4C87.4,394.5,88.8,393,90.6,393z M57.9,397.8c-2,0-3.7,1.7-3.7,3.7s1.7,3.7,3.7,3.7h34.8
		c2,0,3.7-1.7,3.7-3.7s-1.7-3.7-3.7-3.7H57.9z M59,410.1H37.9c-1.7,0-3.2-1.4-3.2-3.2h-7.4c0,5.9,4.7,10.7,10.5,10.7h21.1
		c5.8,0,10.5-4.8,10.5-10.7H62C62.1,408.7,60.7,410.1,59,410.1z M5.2,397.8c-2,0-3.7,1.7-3.7,3.7s1.7,3.7,3.7,3.7H40
		c2,0,3.7-1.7,3.7-3.7s-1.7-3.7-3.7-3.7H5.2z M37.9,393H59c1.7,0,3.2,1.4,3.2,3.2h7.4c0-5.9-4.7-10.7-10.5-10.7H38
		c-5.8,0-10.5,4.8-10.5,10.7h7.4C34.7,394.5,36.1,393,37.9,393z"/>
</g>
<linearGradient id="SVGID_1_" gradientUnits="userSpaceOnUse" x1="1281.1001" y1="328.8" x2="1341.1001" y2="328.8" gradientTransform="matrix(1 0 0 -1 0 447.8)">
	<stop  offset="1.685078e-03" style="stop-color:#00DA9D"/>
	<stop  offset="1" style="stop-color:#55DF60"/>
</linearGradient>
<rect x="1281.1" y="89" class="st7" width="60" height="60"/>
<linearGradient id="SVGID_2_" gradientUnits="userSpaceOnUse" x1="1300.6215" y1="386.5" x2="1321.6215" y2="386.5" gradientTransform="matrix(1 0 0 -1 0 447.8)">
	<stop  offset="1.685078e-03" style="stop-color:#00DA9D"/>
	<stop  offset="1" style="stop-color:#55DF60"/>
</linearGradient>
<circle class="st8" cx="1311.1" cy="61.3" r="10.5"/>
<linearGradient id="SVGID_3_" gradientUnits="userSpaceOnUse" x1="1283" y1="391.8" x2="1339.3" y2="391.8" gradientTransform="matrix(1 0 0 -1 0 447.8)">
	<stop  offset="1.685078e-03" style="stop-color:#00DA9D"/>
	<stop  offset="1" style="stop-color:#55DF60"/>
</linearGradient>
<rect x="1283" y="50.8" class="st9" width="56.3" height="10.4"/>
<circle class="st10" cx="1257" cy="95.4" r="5.4"/>
<circle class="st10" cx="1365.3" cy="95.4" r="5.4"/>
<polyline class="st0" points="835.2,422.7 1409.1,422.7 1409.1,204.1 1213.1,204.1 1213.1,292.2 1139.4,292.2 1139.4,201.4 
	985.8,281.8 985.8,201.4 838.2,278.8 838.2,377.3 "/>
<polyline class="st3" points="835.2,425.7 988.8,425.7 1120.3,425.7 1142.4,425.7 1210.1,425.7 1232.5,425.7 1412.1,425.7 
	1412.1,201.1 1210.1,201.1 1210.1,289.2 1142.4,289.2 1142.4,196.4 988.8,276.8 988.8,196.4 835.2,276.8 835.2,377.3 "/>
</svg>
