<?xml version="1.0" encoding="utf-8"?>
<!-- Generator: Adobe Illustrator 23.0.2, SVG Export Plug-In . SVG Version: 6.00 Build 0)  -->
<svg version="1.1" id="Layer_1" xmlns="http://www.w3.org/2000/svg" xmlns:xlink="http://www.w3.org/1999/xlink" x="0px" y="0px"
	 viewBox="0 0 1172 283" style="enable-background:new 0 0 1172 283;" xml:space="preserve">
<style type="text/css">
	.st0{opacity:0.4;}
	.st1{fill-rule:evenodd;clip-rule:evenodd;fill:#33BAAA;}
	.st2{fill-rule:evenodd;clip-rule:evenodd;fill:#1C9486;}
	.st3{fill:none;stroke:#0D6574;stroke-width:1.7741;}
	.st4{opacity:0.67;}
	.st5{fill:none;stroke:#0D6574;stroke-width:0.635;}
	.st6{fill-rule:evenodd;clip-rule:evenodd;fill:url(#Path-72-Copy-8_1_);}
	.st7{fill-rule:evenodd;clip-rule:evenodd;fill:url(#Path-344-Copy_1_);}
	.st8{fill-rule:evenodd;clip-rule:evenodd;fill:#0B4651;}
	.st9{fill-rule:evenodd;clip-rule:evenodd;fill:#EABB92;}
	.st10{fill-rule:evenodd;clip-rule:evenodd;fill:url(#Path-346_1_);}
	.st11{fill-rule:evenodd;clip-rule:evenodd;fill:#FFD7B3;}
	.st12{fill-rule:evenodd;clip-rule:evenodd;fill:url(#Path-344_1_);}
	.st13{fill:none;stroke:#FFFFFF;stroke-width:0.9173;}
	.st14{fill-rule:evenodd;clip-rule:evenodd;fill:#42D4C3;}
	.st15{fill-rule:evenodd;clip-rule:evenodd;fill:url(#Path-338_1_);}
	.st16{fill-rule:evenodd;clip-rule:evenodd;fill:url(#Path-336_1_);}
	.st17{fill-rule:evenodd;clip-rule:evenodd;fill:#FFFFFF;}
	.st18{fill-rule:evenodd;clip-rule:evenodd;fill:url(#Oval-17-Copy_1_);}
	.st19{fill-rule:evenodd;clip-rule:evenodd;fill:url(#Path-337_1_);}
	.st20{opacity:0.3;fill-rule:evenodd;clip-rule:evenodd;fill:#0B4651;enable-background:new    ;}
	.st21{fill-rule:evenodd;clip-rule:evenodd;fill:url(#Path-339_1_);}
	.st22{fill:none;stroke:#0B4651;stroke-width:0.882;stroke-linecap:round;stroke-linejoin:round;}
	.st23{fill-rule:evenodd;clip-rule:evenodd;fill:#87E581;}
	.st24{fill:#0B4651;}
	.st25{fill:none;stroke:url(#Oval-28_1_);stroke-width:2.1;stroke-linecap:round;stroke-linejoin:round;}
	.st26{fill:none;stroke:#56A096;stroke-width:1.68;stroke-linecap:round;stroke-linejoin:round;}
	.st27{fill:none;stroke:#0D6574;stroke-width:3.36;stroke-linecap:round;stroke-linejoin:round;}
	.st28{fill-rule:evenodd;clip-rule:evenodd;fill:url(#Oval-29_1_);}
	.st29{fill:none;stroke:#6AC264;stroke-width:2;stroke-linecap:round;stroke-linejoin:round;}
	.st30{fill-rule:evenodd;clip-rule:evenodd;fill:url(#Path-356_1_);}
	.st31{opacity:0.2;fill-rule:evenodd;clip-rule:evenodd;fill:#0B4651;enable-background:new    ;}
	.st32{fill-rule:evenodd;clip-rule:evenodd;fill:#29A99A;}
	.st33{fill:none;stroke:#0B4651;stroke-width:1.0451;stroke-linecap:round;stroke-linejoin:round;}
	.st34{fill:none;stroke:#0B4651;stroke-width:1.4;stroke-linecap:round;stroke-linejoin:round;}
	.st35{fill:none;stroke:#0B4651;stroke-width:0.56;stroke-linecap:round;stroke-linejoin:round;}
	.st36{fill-rule:evenodd;clip-rule:evenodd;}
	.st37{fill-rule:evenodd;clip-rule:evenodd;fill:#E0FCF9;}
	.st38{fill-rule:evenodd;clip-rule:evenodd;fill:#6AC264;}
	.st39{opacity:0.2;fill-rule:evenodd;clip-rule:evenodd;fill:#33BAAA;enable-background:new    ;}
	.st40{fill-rule:evenodd;clip-rule:evenodd;fill:url(#Path-371_1_);}
	.st41{fill-rule:evenodd;clip-rule:evenodd;fill:url(#Path-379_1_);}
	.st42{fill-rule:evenodd;clip-rule:evenodd;fill:#C8E8E5;}
	.st43{fill:none;stroke:#0B4651;stroke-width:0.616;}
	.st44{fill-rule:evenodd;clip-rule:evenodd;fill:#1B998A;}
	.st45{fill-rule:evenodd;clip-rule:evenodd;fill:#1D9F90;}
	.st46{fill:none;stroke:#0D6574;stroke-width:0.672;}
	.st47{fill-rule:evenodd;clip-rule:evenodd;fill:#2CB0A0;}
	.st48{fill-rule:evenodd;clip-rule:evenodd;fill:#7DD977;}
	.st49{fill:none;stroke:#2F8F83;stroke-width:2;stroke-linecap:round;stroke-linejoin:round;stroke-dasharray:6.84,4.48;}
	.st50{fill-rule:evenodd;clip-rule:evenodd;fill:url(#Path-387_1_);}
	.st51{fill-rule:evenodd;clip-rule:evenodd;fill:url(#Path-385_1_);}
	.st52{fill:#CAEBE2;}
	.st53{fill:url(#SVGID_1_);}
	.st54{fill:#00DA9D;}
	.st55{fill:url(#SVGID_2_);}
	.st56{fill:url(#SVGID_3_);}
	.st57{fill:url(#SVGID_4_);}
	.st58{fill:url(#SVGID_5_);}
	.st59{fill:url(#SVGID_6_);}
	.st60{fill:url(#SVGID_7_);}
	.st61{fill:url(#SVGID_8_);}
	.st62{fill:url(#SVGID_9_);}
	.st63{fill:url(#SVGID_10_);}
	.st64{fill:url(#SVGID_11_);}
	.st65{fill:none;stroke:#00DA9D;stroke-width:0.5;stroke-miterlimit:10;}
	.st66{fill-rule:evenodd;clip-rule:evenodd;fill:#0D6574;}
	.st67{opacity:0.2;fill-rule:evenodd;clip-rule:evenodd;fill:url(#Rectangle-82_1_);enable-background:new    ;}
	.st68{opacity:0.4;fill-rule:evenodd;clip-rule:evenodd;fill:url(#Rectangle-81-Copy_1_);enable-background:new    ;}
	.st69{opacity:0.4;fill-rule:evenodd;clip-rule:evenodd;fill:url(#Rectangle-81-Copy-3_1_);enable-background:new    ;}
	.st70{fill-rule:evenodd;clip-rule:evenodd;fill:url(#Rectangle-76-Copy_1_);}
	.st71{opacity:0.5;fill-rule:evenodd;clip-rule:evenodd;fill:#FFFFFF;enable-background:new    ;}
	.st72{fill-rule:evenodd;clip-rule:evenodd;fill:#8EE988;}
	.st73{opacity:0.8;fill-rule:evenodd;clip-rule:evenodd;fill:#0B4651;enable-background:new    ;}
	.st74{fill:url(#Oval-33-Copy_1_);}
	.st75{fill-rule:evenodd;clip-rule:evenodd;fill:url(#Path-366_1_);}
</style>
<title>Purposefully beautiful design + Built with innovative technology + Informed by immersive strategy</title>
<desc>Created with Sketch.</desc>
<g id="Pages">
	<g id="Home---Approach-v3-" transform="translate(-214.000000, -4379.000000)">
		<g id="Section-2" transform="translate(215.000000, 4173.000000)">
			<g transform="translate(0.000000, 203.000000)">
				<g id="Group-64" transform="translate(56.953688, 0.292329)">
					<g id="Group-21" class="st0">
						
							<g transform="translate(809.514640, 208.894392) rotate(-25.000000) translate(-809.514640, -208.894392) translate(748.310676, 163.338804)">
							<g id="Group-19" transform="translate(37.367340, 29.646396)">
								<path id="Path-31" class="st1" d="M8.5,54.9C20.9,25.3,37.2,8.7,57.6,5c5.6-1,11.6-1.8,17.9-2.4c1.9,16.6-21.4,12.5-18.6,17
									c3.8,6.3,2.3,21.2-13.2,16.2s-4.7,22-19.9,20.6C13.6,55.4,8.5,54.9,8.5,54.9z"/>
								<path id="Combined-Shape" class="st2" d="M36.7,14.3c0.3,0.8,0.6,1.7,0.8,3C39,25,29.6,37.6,9.2,55l-0.7-0.1
									C16.3,36.2,25.7,22.7,36.7,14.3z"/>
								<path id="Path-33" class="st3" d="M52.1,25.7c-7.5-3.7-15.8-3.4-25,0.9"/>
								<path id="Path-33-Copy" class="st3" d="M67.4,11.7c-7.5-3.7-15.8-3.4-25,0.9"/>
								<path id="Path-34" class="st3" d="M45.5,10.2c-17,13.1-27.3,27.9-31,44.4"/>
							</g>
							
								<g id="Group-7-Copy-4" transform="translate(41.459748, 45.271753) scale(-1, 1) translate(-41.459748, -45.271753) translate(0.232079, -0.000000)">
								<path class="st1" d="M36.9,85.5C22,68.4,15.2,56.5,16.2,49.7c1.6-10.2,14.5,1.6,13.9-3.7s-10.4-15.6-6.6-22.3
									s11.2,6.3,10.9,0.7C34.3,18.9,27.9,4.1,39,3s6.2,16.5,9.2,19c3,2.5,6.1-6,10.3-1.7S55.7,39,57.2,43.1
									c1.5,4.1,8.6-9.2,10.8,2.8C69.5,53.8,59.1,67,36.9,85.5z M37.3,35.4c-3.8-4.7-6-6.6-6.6-5.7C30.1,30.5,32.3,32.5,37.3,35.4z
									"/>
								<path id="Path-117" class="st3" d="M37,84.6c8.9-29.1,9.4-54.8,1.7-76.9"/>
								<path id="Path-118" class="st3" d="M41.8,68.7c-2.2-4.4-7.2-8.7-14.8-13"/>
								<path id="Path-119" class="st3" d="M44,40.3c3.6-7,7.4-10.9,11.5-11.8"/>
								<path id="Path-120" class="st3" d="M41.1,17.3L35.7,14"/>
							</g>
						</g>
					</g>
					<g id="Group-56" class="st4">
						<g transform="translate(107.956991, 185.903722)">
							<path id="Path-259" class="st1" d="M50,67.7c0-3.4-29.6-11.8-27.4-21.8s1.4-21.4-15.3-14S8.7,6.7,1.6,0
								c22,1,57,25.8,52.7,67.7C50,69.9,50,71.1,50,67.7z"/>
							<path id="Path-262" class="st3" d="M6.2,3.1C34.5,22.5,49,45.7,49.9,72.9"/>
							<path id="Path-263" class="st3" d="M28.6,45.9c7.8-0.7,13.5,0.7,17,4c-1-2.4-0.3-6.2,2-11.4"/>
							<path id="Path-264" class="st3" d="M12.8,18.5c8.4,0.6,14.1,2.2,17,4.8"/>
							<path id="Path-265" class="st3" d="M33.8,28.1c-0.2-5.9,0.3-9.2,1.4-9.6"/>
						</g>
					</g>
					<g id="Group-56-Copy" class="st4">
						
							<g transform="translate(183.045186, 250.760120) scale(-1, 1) translate(-183.045186, -250.760120) translate(156.410128, 214.287266)">
							<path class="st1" d="M48.6,67.7c0-3.4-29.6-11.8-27.4-21.8s5.2,7.6-8.7-7.6S11.2,8.6,0.2,0c22,1,57,25.8,52.7,67.7
								C48.6,69.9,48.6,71.1,48.6,67.7z"/>
							<path class="st3" d="M4.8,3.1c28.3,19.3,42.8,42.6,43.6,69.8"/>
							<path class="st5" d="M27.2,45.9c7.8-0.7,13.5,0.7,17,4c-1-2.4-0.3-6.2,2-11.4"/>
							<path class="st3" d="M11.3,18.5c8.4,0.6,14.1,2.2,17,4.8"/>
							<path class="st3" d="M32.3,28.1c-0.2-5.9,0.3-9.2,1.4-9.6"/>
						</g>
					</g>
				</g>
				
					<linearGradient id="Path-72-Copy-8_1_" gradientUnits="userSpaceOnUse" x1="864.9058" y1="0.5842" x2="864.7178" y2="2.0056" gradientTransform="matrix(152.4432 0 0 29.8027 -130762.7188 116.597)">
					<stop  offset="0" style="stop-color:#EDFFEC;stop-opacity:0"/>
					<stop  offset="0.2235" style="stop-color:#D6F4CB;stop-opacity:0.7688"/>
					<stop  offset="1" style="stop-color:#27D576;stop-opacity:0.3518"/>
				</linearGradient>
				<path id="Path-72-Copy-8" class="st6" d="M1016.7,155.9c7.5-4.2,6.8-6.9,11.4-7.5s5.9,2.6,13,1.3c7.1-1.3,7-17.3,27.5-17
					c20.5,0.3,19.7,20.5,26,20.5s5.9-4.8,15.3-4.8c9.4,0,13.5,14,33.4,14H990.9C1003.1,160.9,1011.7,158.7,1016.7,155.9z"/>
				<g id="Group-62" transform="translate(55.666090, 160.925606)">
					
						<linearGradient id="Path-344-Copy_1_" gradientUnits="userSpaceOnUse" x1="713.6811" y1="1.6349" x2="713.5356" y2="2.846" gradientTransform="matrix(19.1169 0 0 8.3744 -13605.916 98.8542)">
						<stop  offset="0" style="stop-color:#55A350"/>
						<stop  offset="1" style="stop-color:#33BAAA"/>
					</linearGradient>
					<path id="Path-344-Copy" class="st7" d="M39.1,114.8c-1.5,1.4-2.9,2.3-4.1,2.8c-5,2-9.6,3.2-9.6,4.8c8.7,0.7,14.3,0.9,16.8,0.7
						s3-3,1.5-8.3H39.1z"/>
					<polygon id="Path-347" class="st8" points="24.3,92.1 39.2,114.9 43.7,114.9 34,83.5 24.3,80.7 					"/>
					<path id="Path-345-Copy" class="st9" d="M36.5,71.7L33.6,72c-1.9,0.4-3.3,0.3-4.2-0.3s-2.1,0-3.5,1.8h-0.9
						c1.1-3.5,2.3-5.2,3.5-5.2c1.9,0,7.5,0.4,8.4,0C37.4,67.9,37.3,69.1,36.5,71.7z"/>
					
						<linearGradient id="Path-346_1_" gradientUnits="userSpaceOnUse" x1="718.5779" y1="1.2252" x2="718.1689" y2="2.064" gradientTransform="matrix(21.3403 0 0 13.6974 -15286.2295 41.5494)">
						<stop  offset="0" style="stop-color:#209049"/>
						<stop  offset="1" style="stop-color:#29A596"/>
					</linearGradient>
					<path id="Path-346" class="st10" d="M53.3,65.5c-3.7,2.3-6.8,3.9-9.2,4.7c-2.5,0.9-5.8,1.2-10,1L32,66.5l20.4-8.9L53.3,65.5z"
						/>
					<path id="Path-345" class="st11" d="M30.2,70.2l-2.9,0.3c-1.9,0.4-3.3,0.3-4.2-0.3c-0.9-0.6-2.1,0-3.5,1.8h-0.9
						c1.1-3.5,2.3-5.2,3.5-5.2c1.9,0,7.5,0.4,8.4,0C31.2,66.5,31.1,67.6,30.2,70.2z"/>
					
						<linearGradient id="Path-344_1_" gradientUnits="userSpaceOnUse" x1="715.1029" y1="1.5752" x2="714.9573" y2="2.7863" gradientTransform="matrix(19.7324 0 0 8.6441 -14085.8887 98.8438)">
						<stop  offset="0" style="stop-color:#7ECC79"/>
						<stop  offset="1" style="stop-color:#33BAAA"/>
					</linearGradient>
					<path id="Path-344" class="st12" d="M25,115.1c-8.4,2.8-12.6,5.3-12.6,7.5c9,0.7,14.7,1,17.3,0.7s3.1-3.1,1.5-8.6L25,115.1z"/>
					<path id="Path-343" class="st8" d="M56,73.9c-24.6-1.8-43.1-2-45.1,1.2c-2,3.2,2.7,16.6,14,40.1l6.5-0.4
						C28.9,98.1,27.5,88,27,84.4c8.2,6.4,20.1,12.2,33.9,9c3.8-1.1,6.1-7.2,6.8-18.4C60.1,74.3,56.1,73.9,56,73.9z"/>
					<polyline id="Path-348" class="st13" points="28.5,98.1 27.1,86.8 33.9,90.1 					"/>
					<path id="Rectangle-73" class="st14" d="M0.7,49.2L0.7,49.2c0.4-0.2,1-0.1,1.2,0.4l12,23.5c0.2,0.4,0.1,1-0.4,1.2l0,0
						c-0.4,0.2-1,0.1-1.2-0.4l-12-23.5C0.1,49.9,0.3,49.4,0.7,49.2z"/>
					<path id="Rectangle-73-Copy" class="st1" d="M40.7,70.9L40.7,70.9c0,0.5-0.3,0.9-0.8,1l-26.2,2.3c-0.5,0-0.9-0.3-1-0.8v0
						c0-0.5,0.3-0.9,0.8-1l26.2-2.3C40.2,70,40.6,70.4,40.7,70.9z"/>
					
						<linearGradient id="Path-338_1_" gradientUnits="userSpaceOnUse" x1="675.9916" y1="0.4882" x2="675.8461" y2="1.6993" gradientTransform="matrix(10.4753 0 0 20.7465 -7016.6787 11.8952)">
						<stop  offset="0" style="stop-color:#5AD665"/>
						<stop  offset="1" style="stop-color:#33BAAA"/>
					</linearGradient>
					<path id="Path-338" class="st15" d="M58.6,27.9c2.9,0.2,5.4,0.6,7.4,1c1.6,0.4,4.7,6.6,1.9,18.1c-0.1,0.5-0.8,1.1-1.9,1.7
						L58.6,27.9z"/>
					
						<g id="Group-23" transform="translate(48.722800, 17.692197) rotate(-11.000000) translate(-48.722800, -17.692197) translate(36.144493, 2.139668)">
						<polygon id="Path-157" class="st11" points="11.2,23.4 11.2,31.1 18.6,30.2 16.9,20.9 						"/>
						<path id="Path-156" class="st11" d="M4.5,11.8c-1.4,5-1.8,8.3-1.3,9.8c0.2,0.4,0.9,0.4,1.3,0.8c0.5,0.7,0,2,1.1,2.9
							c3.8,3.1,12.1,0.2,14.4-1.4c1-0.7,0-4.3-4.6-7.3C13.6,15.4,10,13.8,4.5,11.8z"/>
						<path id="Path-154" class="st8" d="M3.1,14.8c-2.9,1.4-3.4-2.9-1.5-2.9C-1.6,9.6,0.1,1,5.9,0.3c10.8-1.2,7.7,6.2,11.8,5.4
							c4.4-0.9,7.5,5.4,7.2,9.5c-0.1,1.9-1,3.3-3.1,4.6c0.5,0,1.4,1.2,0.8,2.5c-0.5,1-1.6,1.7-2.6,1.2c0.5,2.5-5.7,2.1-8.2-6.9
							C9.1,14.6,5.5,17.4,3.1,14.8z"/>
						
							<linearGradient id="Path-336_1_" gradientUnits="userSpaceOnUse" x1="514.7651" y1="51.3646" x2="514.6223" y2="52.5532" gradientTransform="matrix(5.8513 3.188595e-05 -1.823936e-05 12.5213 -2995.8535 -641.3165)">
							<stop  offset="0" style="stop-color:#BAFFB5"/>
							<stop  offset="1" style="stop-color:#2BBAA9"/>
						</linearGradient>
						<polygon id="Path-336" class="st16" points="15.4,4.8 11.9,16.7 14,17.3 17.7,5.7 						"/>
						<path id="Path-336-Copy" class="st17" d="M12.8,16.9c0.2,0,0.4,0,0.5,0s1.3-3.8,3.7-11.5l-0.6-0.2L12.8,16.9z"/>
						
							<linearGradient id="Oval-17-Copy_1_" gradientUnits="userSpaceOnUse" x1="516.4429" y1="38.2071" x2="516.3" y2="39.3956" gradientTransform="matrix(5.9192 3.696970e-05 4.596378e-05 5.9817 -3043.4287 -214.099)">
							<stop  offset="0" style="stop-color:#BAFFB5"/>
							<stop  offset="1" style="stop-color:#3CD8C5"/>
						</linearGradient>
						<path id="Oval-17-Copy" class="st18" d="M12.1,15.9c1.6,0,3,1.3,3,3c0,1.6-1.3,3-3,3s-3-1.3-3-3C9.2,17.2,10.5,15.9,12.1,15.9
							z"/>
						
							<ellipse id="Oval-17-Copy-3" transform="matrix(-0.9848 -0.1736 0.1736 -0.9848 20.6685 39.3392)" class="st17" cx="12.1" cy="18.8" rx="1.4" ry="1.4"/>
					</g>
					
						<linearGradient id="Path-337_1_" gradientUnits="userSpaceOnUse" x1="721.643" y1="3.922467e-02" x2="721.4975" y2="1.2503" gradientTransform="matrix(23.175 0 0 50.3183 -16663.2305 11.9033)">
						<stop  offset="0" style="stop-color:#6BE575"/>
						<stop  offset="1" style="stop-color:#33BAAA"/>
					</linearGradient>
					<path id="Path-337" class="st19" d="M46.9,38.6c-0.1-2.1,1.1-4.3,3.5-6.6c2.4-2.3,5.2-3.7,8.2-4.1c3.5,3.6,6.1,8.3,7.7,14.3
						c1.5,5.6,2,15.5,1.6,29.8c0,1.1,2.1,0,2.1,3.1c-1.5,2.1-4.7,2.9-6.6,3.1c-1.3,0.1-5.9-0.3-13.9-1.2c-2.9-2.5-2.7-4.2,0.6-5.3
						c-0.6-13.4-1.3-23.7-1.9-30.8C47.3,40.8,46.9,40.1,46.9,38.6z"/>
					<path id="Path-341" class="st20" d="M50.2,71.4c6.9-9.7,10.4-18.6,10.6-26.5c-2.8,1.6-6.7,6.9-11.6,15.8L50.2,71.4z"/>
					
						<linearGradient id="Path-339_1_" gradientUnits="userSpaceOnUse" x1="732.2763" y1="0.5199" x2="731.8673" y2="1.3587" gradientTransform="matrix(32.1077 0 0 34.3979 -23458.3125 20.3912)">
						<stop  offset="0" style="stop-color:#53D28C"/>
						<stop  offset="1" style="stop-color:#33BAAA"/>
					</linearGradient>
					<path id="Path-339" class="st21" d="M52.4,36.4l-5.9,18.3c-1.1,3.4-3.7,6.2-7.1,7.5l-10.7,4.2l1.1,4.3l9.5-1.3
						c6.7-0.9,12.7-4.9,16.1-10.7c1.1-1.8,1.7-3,1.9-3.4c0.5-0.9,1.6-4.4,3.4-10.3L52.4,36.4z"/>
					<path id="Path-340" class="st22" d="M50,66.4c6.3-7.7,9.8-14.6,10.7-20.9"/>
					<path id="Path-342" class="st22" d="M48.8,47.5c2.2-6.3,3.9-9.5,5.2-9.6"/>
					<path id="Path-161" class="st23" d="M54.1,71.2c5.4-3.3,5.7-18.2,14.1-18.2c7.6,0,9.1,21.3,6.1,28.9C71.3,88,70.1,96,55.1,96
						c-9.7,0-18.3-2.4-25.8-7.3c0.2-6,2-9.7,5.4-11.1C39.7,75.5,48.7,74.5,54.1,71.2z"/>
					<path id="Path-163" class="st24" d="M39.7,89.4L39.7,89.4c0.5,0.3,0.8,0.9,0.6,1.5l-14.1,33.6c-0.1,0.3-0.5,0.4-0.8,0.3l0,0
						l0,0c-0.3-0.1-0.5-0.5-0.3-0.8l13.2-34.1C38.5,89.4,39.1,89.2,39.7,89.4C39.7,89.4,39.7,89.4,39.7,89.4z"/>
					<path id="Path-163-Copy-6" class="st24" d="M67,89.4L67,89.4c-0.6,0.3-0.8,0.9-0.6,1.5l14.1,33.6c0.1,0.3,0.5,0.4,0.8,0.3l0,0
						l0,0c0.3-0.1,0.4-0.5,0.3-0.8L68.4,89.9C68.2,89.4,67.6,89.2,67,89.4C67.1,89.4,67.1,89.4,67,89.4z"/>
					<path id="Path-161-Copy-2" class="st22" d="M29.3,88.6c0.2-6,2-9.7,5.4-11.1c5.1-2,14-3,19.4-6.3s5.7-18.2,14.1-18.2"/>
				</g>
				<g id="Group-63" transform="translate(349.178201, 69.835640)">
					
						<linearGradient id="Oval-28_1_" gradientUnits="userSpaceOnUse" x1="142.9365" y1="0.3311" x2="142.7909" y2="1.5421" gradientTransform="matrix(29.7519 0 0 26.2385 -4227.5005 -8.7564)">
						<stop  offset="0" style="stop-color:#7ECC79"/>
						<stop  offset="1" style="stop-color:#33BAAA"/>
					</linearGradient>
					<path id="Oval-28" class="st25" d="M35.9,27.7c0.7-1.7,1.1-3.6,1.1-5.6c0-8.2-6.7-14.9-14.9-14.9S7.2,13.9,7.2,22.1
						c0,4.5,2,8.6,5.2,11.3"/>
					<path id="Oval-28-Copy" class="st26" d="M31.5,22.1c0-2.4-0.9-4.7-2.5-6.3 M22.1,12.8c-2.6,0-4.9,1.1-6.6,2.8 M12.8,22.1
						c0,2.5,1,4.8,2.6,6.5c1.7,1.8,4.1,2.9,6.8,2.9"/>
					<path id="Oval-28-Copy-2" class="st27" d="M0,22.1c0,6.1,2.5,11.7,6.5,15.7c4,4,9.5,6.5,15.7,6.5c4.2,0,8.1-1.2,11.4-3.2
						 M44.2,22.1C44.2,9.9,34.3,0,22.1,0"/>
				</g>
				
					<linearGradient id="Oval-29_1_" gradientUnits="userSpaceOnUse" x1="852.3002" y1="-37.599" x2="851.8912" y2="-36.7601" gradientTransform="matrix(-5.6463 -6.7285 6.74 -5.6559 5244.2324 5681.0869)">
					<stop  offset="0" style="stop-color:#62DF90"/>
					<stop  offset="1" style="stop-color:#33BAAA"/>
				</linearGradient>
				<path id="Oval-29" class="st28" d="M179.5,160.8c-1.6-1.9-1.3-4.6,0.5-6.2s4.6-1.3,6.2,0.5s1.3,4.6-0.5,6.2
					S181.1,162.7,179.5,160.8z"/>
				<path id="Path-350" class="st29" d="M90.7,163.9c27.9-22.3,55.7-26.4,83.2-12.4"/>
				<g id="Group-66" transform="translate(280.234813, 131.983481)">
					<path id="Path-358" class="st8" d="M15,145c-4.3,1.8-6.4,3.3-6.4,4.6s0.1,2.1,0.1,2.3H20V145H15z"/>
					<path id="Path-358-Copy" class="st8" d="M62.7,145c4.3,1.8,6.4,3.3,6.4,4.6s-0.1,2.1-0.1,2.3H57.7V145H62.7z"/>
					<path id="Path-357" class="st11" d="M19.6,101.8l-4.3,43c-0.1,1.1,0.7,2.1,1.8,2.2c0.1,0,0.1,0,0.2,0l0,0
						c1.3,0,2.5-0.9,2.7-2.2l8.8-43.1L19.6,101.8L19.6,101.8z"/>
					<path id="Path-357-Copy" class="st11" d="M50.7,101.8L62,143.7c0.2,0.9-0.3,1.9-1.2,2.1c-0.2,0-0.3,0.1-0.5,0.1l0,0
						c-1.4,0-2.6-0.9-3.1-2.1l-15.8-41.9C41.5,101.8,50.7,101.8,50.7,101.8z"/>
					
						<linearGradient id="Path-356_1_" gradientUnits="userSpaceOnUse" x1="283.532" y1="0.4779" x2="284.3585" y2="1.6348" gradientTransform="matrix(33.5638 0 0 28.5123 -9498.499 61.9775)">
						<stop  offset="0" style="stop-color:#7ECC79"/>
						<stop  offset="1" style="stop-color:#1FAD9D"/>
					</linearGradient>
					<polygon id="Path-356" class="st30" points="20.5,78 18.5,106.5 30.5,106.5 34,89.7 35.9,89.7 40.7,106.5 52.1,105.5 45.3,78 
											"/>
					<path id="Path-354" class="st11" d="M48.5,33.1l7.6-2.9L54.5,4.6c1.3-2.9,2.2-4.4,2.7-4.3s0.8,1.5,0.8,4.3
						c5.2-3.6,7.9-5.1,8.2-4.3c0.4,1.2-3.5,9.6-4.8,10.5c-0.9,0.6-0.4,8.5,1.3,23.6l-10.4,6.4L48.5,33.1z"/>
					<path id="Path-353" class="st8" d="M24.9,36.1c-5.2,0-8.3,0.4-9.2,1.3c-0.9,0.8-3.4,4.4-7.5,10.6l7.2,6l3.6-4.3v30.3
						c13.6,1.7,22.4,1.3,26.3-1.2c-2.2-9.2-3.6-20.2-4.1-32.9l11.5-4.7l-3.1-8.3l-12,3.3C37.6,36.1,24.9,36.1,24.9,36.1z"/>
					<path id="Path-352" class="st11" d="M26.2,27.5L24.9,36h-3.4c3.4,4.2,6.7,6.1,9.9,5.8s5.4-2.3,6.3-5.8h-4.2l-0.9-8.6H26.2z"/>
					<path class="st31" d="M33,32.3C33,32.3,32.9,32.3,33,32.3c-1.3,0.6-2.4,0.9-3.3,1c-0.9,0.1-2,0-3.3-0.4c-0.3-0.1-0.7-0.2-1-0.3
						l0.8-5.1h6.4L33,32.3z"/>
					
						<g id="Group-65" transform="translate(28.760196, 21.003823) rotate(-6.000000) translate(-28.760196, -21.003823) translate(18.984563, 9.650405)">
						<path id="Rectangle-74" class="st11" d="M2.7,3.4l13.7,0l0,12.4c0,2.8-1.8,5.3-4.4,6.2c-0.9,0.3-1.8,0.5-2.5,0.5
							C8.8,22.5,8,22.3,7,22l0,0c-2.6-0.9-4.4-3.4-4.4-6.2L2.7,3.4z"/>
						<path id="Path-351" class="st8" d="M2.6,17l1-10.3c5.8,1.9,9.9,2.4,12.2,1.5c0,1.2,0.1,3.7,0.5,7.4c2.3-4.8,3.3-10,3.1-15.5
							C16.4,2.2,3-0.4,2.2,0.9C-0.7,2.6-0.5,8,2.6,17z"/>
						<path id="Oval-30" class="st11" d="M3,13.9c0.5,0,0.5-1.3,0.5-2.3s0.2-1.5-0.3-1.5s-1.5-0.1-1.5,1S2.5,13.9,3,13.9z"/>
						<path id="Oval-30-Copy" class="st11" d="M16,13.9c-0.5,0-0.5-1.3-0.5-2.3c0-1-0.2-1.5,0.3-1.5c0.5,0,1.5-0.1,1.5,0.9
							C17.4,12.1,16.6,13.9,16,13.9z"/>
					</g>
					<path id="Path-355" class="st11" d="M8.4,48L0.2,61.5l16.2,12.6c0.7,1.8,1.3,3.1,1.8,3.8c0.4,0.7,0.9,1.4,1.2,2v-6.6l2.6,2.2
						l0,0c0.4-0.9,0.2-1.9-0.6-2.5l-2.1-1.7l-11-11.1l6.5-6.8L8.4,48z"/>
				</g>
				<g id="Group-67" transform="translate(347.389162, 237.286431)">
					<path id="Path-313" class="st32" d="M56,45.7c-5.1-31.9-19.7-47-43.8-45.2C-24,3,35.4,14.8,29.6,20.5s-12.3,9.9-9.1,15.6
						C22.6,40,34.4,43.1,56,45.7z"/>
					<path class="st20" d="M44.5,14.4c4.8,6.5,8.3,15.3,10.5,26.4l-1.5,4l-7.5-0.6C41.6,28.7,41.1,18.7,44.5,14.4z"/>
					<path id="Path-315" class="st33" d="M15.4,6.7c19.2,4.1,30.4,15.4,33.7,34"/>
					<polyline id="Path-316" class="st33" points="33.9,28.7 45.8,28.7 45.8,19.2 					"/>
					<path id="Path-317" class="st33" d="M26.2,5.7l4.5,6.7"/>
					<path id="Path-313-Copy" class="st1" d="M56,45.5c-5.6-0.1-8.4-0.7-8.2-1.6c3-19.4,20.9-31.9,36-31.9
						c24.4,0-13.2,10.9-7.4,16.7s11.9,3.5,8.7,9.2C83,41.7,73.3,44.2,56,45.5z"/>
					<path id="Path-318" class="st33" d="M50.9,42.7c9-13.6,17-20.9,24-21.7"/>
					<path id="Path-319" class="st33" d="M57.7,34c10.3-1,17.3,0,21,3.1"/>
				</g>
				<path id="Path-359" class="st34" d="M0,273.9h187.1"/>
				<path id="Path-359-Copy-2" class="st34" d="M208.8,273.9h187.1"/>
				<path id="Path-359-Copy" class="st35" d="M455.4,273.9h31.4"/>
				<path id="Path-359-Copy-3" class="st34" d="M515.4,273.9h234.7"/>
				<path id="Path-359-Copy-5" class="st34" d="M975.3,274h194.2"/>
				<g id="Group-68-Copy" transform="translate(371.142086, 181.564083)">
					<g transform="translate(27.966108, 27.951749) rotate(-29.000000) translate(-27.966108, -27.951749) ">
						<g>
							<path class="st36" d="M7.6,7.5c10.4,7.4,21,9.1,31.9,5.1c-4.7,11.9-1.7,21.3,9,28.2c-11,8.5-20.9,9.8-29.5,4
								S6.6,26.6,7.6,7.5z"/>
						</g>
						<g>
							<path class="st37" d="M7.6,7.5c10.4,7.4,21,9.1,31.9,5.1c-4.7,11.9-1.7,21.3,9,28.2c-11,8.5-20.9,9.8-29.5,4
								S6.6,26.6,7.6,7.5z"/>
						</g>
					</g>
					<g transform="translate(45.140314, 50.501065) rotate(-29.000000) translate(-45.140314, -50.501065) ">
						<g>
							<path id="path-42" class="st36" d="M49.3,47c-3.3,5.2-6.1,7.6-8.3,7.4c2.1-3.9,1.8-5.2,1.8-7.7C45.7,48.2,47.9,48.4,49.3,47z
								"/>
						</g>
						<g>
							<path class="st38" d="M49.3,47c-3.3,5.2-6.1,7.6-8.3,7.4c2.1-3.9,1.8-5.2,1.8-7.7C45.7,48.2,47.9,48.4,49.3,47z"/>
						</g>
					</g>
					<g>
						<g>
							<path id="path-44" class="st36" d="M21.6,46.2c5.1-0.3,9.1-2.5,12.2-6.6c1.1,2.3,3.6,4.1,6.8,4.7c2.1,0.4,1.3,2-2.3,5
								c-11.8,0.2-17.9,0-18.4-0.6C19.3,48,19.9,47.2,21.6,46.2z"/>
						</g>
						<g>
							<path class="st38" d="M21.6,46.2c5.1-0.3,9.1-2.5,12.2-6.6c1.1,2.3,3.6,4.1,6.8,4.7c2.1,0.4,1.3,2-2.3,5
								c-11.8,0.2-17.9,0-18.4-0.6C19.3,48,19.9,47.2,21.6,46.2z"/>
						</g>
					</g>
				</g>
				<polygon id="Triangle" class="st8" points="196.6,225 194.8,243.9 180.4,234.9 				"/>
				<path id="Path-72-Copy-7" class="st39" d="M244.1,128.4c6.2-14,3.9-16.2,0-16.8s-14.7,12.6-20.7,11.4s-14.8-28.4-32.2-28.2
					s-10.2,25.9-15.6,25.9s-2.7,1.2-10.7,1.2s3.9,12-13.1,12h114.2C261.3,119.1,254,117.2,244.1,128.4z"/>
				
					<linearGradient id="Path-371_1_" gradientUnits="userSpaceOnUse" x1="858.2909" y1="0.2574" x2="858.103" y2="1.6789" gradientTransform="matrix(71.0623 0 0 73.2053 -60009.9062 170.2355)">
					<stop  offset="0" style="stop-color:#EDFFEC;stop-opacity:0"/>
					<stop  offset="0.2235" style="stop-color:#D6F4CB;stop-opacity:0.7688"/>
					<stop  offset="1" style="stop-color:#27D576;stop-opacity:0.3518"/>
				</linearGradient>
				<path id="Path-371" class="st40" d="M968.4,193.3c-17.9,16.7-40.6,59.7-13.8,65.6c26.7,5.8,58.8-33.3,58.8-54.8
					S979.9,182.6,968.4,193.3z"/>
				<path id="Rectangle-83-Copy-2" class="st32" d="M1067.5,107.1L1067.5,107.1c2.2,0,4,1.8,4,4c0,0,0,0,0,0v5.7c0,2.8-2.2,5-5,5
					c-0.1,0-0.2,0-0.3,0l0,0c-2.6-0.2-4.6-2.5-4.4-5.1c0-0.2,0-0.3,0.1-0.5l0.9-5C1063.1,108.8,1065.1,107.1,1067.5,107.1z"/>
				<g id="Group-72" transform="translate(786.410035, 1.012111)">
					<path id="Path-383" class="st11" d="M42.5,62.1l-2,1.8l-1.2,0.4C37.4,65,35.9,66.3,35,68l-1.6,3h2.1c1.7,0,3.4-0.8,4.4-2.2
						l1.7-2.2v3.1c0.6,0.6,1,0.7,1.1,0.3c0.1-0.3,0.9-2.3,2.3-5.9L42.5,62.1z"/>
					<path id="Path-382" class="st11" d="M135,43.6l2.4-8.4c1,0.2,1.5,0.5,1.5,1.1c0,0.8,0,3.9,0,3.1c0-0.5,1.9-2.4,5.8-5.6
						c1,3,1.2,5.2,0.5,6.4s-3.3,3.2-7.8,6L135,43.6z"/>
					
						<linearGradient id="Path-379_1_" gradientUnits="userSpaceOnUse" x1="-713.1799" y1="-5.904623e-02" x2="-713.3235" y2="1.1361" gradientTransform="matrix(79.6507 0 0 72.2815 56864.6719 60.36)">
						<stop  offset="0" style="stop-color:#5AB155"/>
						<stop  offset="1" style="stop-color:#14AD9B"/>
					</linearGradient>
					<path id="Path-379" class="st41" d="M61.3,76.4L47,101.7c-1.6,2.8-5.1,4.1-8.1,2.8L15,94.7l-2.5,5.2l24,13.8
						c3.4,2,7.6,1.8,10.9-0.5l19.2-13.3l11,12.4c2.4,2.7,2.6,6.6,0.5,9.6l-16.7,23.6l5.2,3.2L90.2,123c1.9-2.1,2.5-5,1.6-7.6
						L81.7,84.6L61.3,76.4z"/>
					
						<g id="Group-71" transform="translate(89.121440, 57.301416) rotate(21.000000) translate(-89.121440, -57.301416) translate(47.043715, 12.171581)">
						<path id="Path-375" class="st8" d="M42.4,31.1l9.2,1.7c7.5,1.4,15.1-1.5,19.8-7.4l7-8.7c1-1.3,2.8-1.7,4.2-1.1l0,0
							c1.1,0.5,1.7,1.8,1.2,2.9c-0.1,0.1-0.1,0.3-0.2,0.4l-9.4,13.9c-3.8,5.6-10.1,9-16.8,9L50,41.9c0.3,5.6,0.5,10.1,0.7,13.5
							c0.2,3.4,2,9.1,5.5,17c-1.4,1.2-3,2-4.9,2.4c-1.9,0.4-4.5,0.8-7.9,1.1l-3-41.4L42.4,31.1z"/>
						
							<g id="Group-28" transform="translate(39.507228, 19.933192) scale(-1, 1) rotate(11.000000) translate(-39.507228, -19.933192) translate(28.903686, 1.821379)">
							<path id="Path-252" class="st11" d="M1.4,6.6c-1,6.2-1.3,9.9-0.9,11.2C0.9,19,2,21.5,3.9,25.1l4.4-0.3l0.3,6.7
								c2.5,3.2,3.4,4.7,2.8,4.6c-0.6-0.1,1.3-1.7,5.8-4.9l-3.4-11.3L16,9.6L1.4,6.6z"/>
							<path id="Path-251" class="st8" d="M7.6,0.3C14.4,0.9,18,2.7,18.4,5.7c0.5,4.5,3.3,3.1,2.4,7.2c-0.9,4.2-4.2,7.1-6,11.2
								c-2.2-4-2-5.2-0.8-7.9c1.9-4.6-0.9-4.3-1.2-2.1c-0.3,2.2-0.2,9.6-2.7,11.7s-5.6,2-6.5,1.6c-1.6-0.7-4.4-2.3-2.5-9.7
								c1.3-0.5,5.4,0,7.7,2.7c0.9-0.9,1.8-3.8,2.5-8.8C2.2,9.5-1.2,7.1,0.8,4.3S5.1,0.3,7.6,0.3z"/>
						</g>
						<path id="Path-374" class="st42" d="M35.4,31l6.7,4.3l2-2.9c0.7,0.5,1.1,1,1.3,1.6c0.6,1.8,0.2,5.7,0.2,6.5
							c0,0.2-1.7-1.8-1.7-0.5c1.8,4,2.8,16.1,3.1,36.3c-1.8,2.2-3.8,3.3-6.2,3.3c-1.5,0-3.6-1.1-6.2-3.2L35.4,31z"/>
						<path id="Path-377" class="st1" d="M40.3,39.9l1.3,2.7c-1.7,3.7-1.7,7.2,0,10.5c2.5,4.9,10.9,2.2,14.2,6.2
							c2.9,3.5,6.3,3.9,10.2,1.2c-0.5-0.8-0.9-1.6-1.3-2.3c-1-1.6-2.2-4-4.5-5.1C54.6,50.4,47,53.3,45,51.3c-1.4-1.3-2-4.1-1.8-8.5
							l1.8-2.6l-2.8-2.3L40.3,39.9z"/>
						<polyline id="Path-376" class="st43" points="39.9,40.5 42.2,37.9 46.3,41.6 						"/>
						<path id="Path-373" class="st8" d="M35.5,29.7c2.6,2.2,4.3,5,5.1,8.4c3.4,15.8,3.8,33.1,1.3,52c-7.3-1.2-12.8-3.4-16.5-6.6
							c-3.7-3.2-6.6-7.3-8.8-12.3c5.5-2.5,9-5.8,10.4-9.9s2-9.9,1.5-17.3l-7.4,1.2c-4,0.6-7.4,3.1-9.3,6.7L4.1,67
							c-0.5,1-1.6,1.5-2.7,1.3l0,0c-0.9-0.2-1.5-1.1-1.3-2c0-0.1,0-0.1,0-0.2l6.4-21.4C7.6,41,10.3,38,14,36.6
							c6.1-2.4,10.6-4.2,13.7-5.4C31.6,29.6,34.3,29.1,35.5,29.7z"/>
						<path id="Path-378" class="st44" d="M56,59.3c4.7,0.9,7.7-0.8,9-5c3.1-0.5,5.1-1.3,6.2-2.6l1,4.8c-2.9,3.7-6.6,5.6-11.1,5.6
							C59.8,62.2,58,61.2,56,59.3z"/>
					</g>
					<path id="Path-381" class="st8" d="M62.2,144.4l-3.4,3.4l1,4.3l0.6,12.7l0,0c1.8,0,3.3-1.2,3.6-3l2.6-13.5L62.2,144.4z"/>
					<path id="Path-380" class="st8" d="M14.2,98.8L2.3,109.4c-2.3-0.9-2.9-2.1-1.7-3.4s4.6-5.9,10.2-13.8l4.9,2.8L14.2,98.8z"/>
				</g>
				
					<g id="Group-29" transform="translate(1067.408013, 224.161314) scale(-1, 1) translate(-1067.408013, -224.161314) translate(1035.389273, 173.070934)">
					<path id="Path-261" class="st45" d="M44.4,45.6c0.5-16.8-2.2-28.5-8.1-35c-2.9,1.3-5.5,14.4-1.8,17.5c2.5,2.1,3.8,8.5,4.1,19
						L44.4,45.6z"/>
					<path id="Path-268" class="st46" d="M37.7,19.3c2.2,11.3,3,18.2,2.5,20.8"/>
					<path id="Path-260" class="st47" d="M39.3,40.7C45,25,53.2,17.1,63.7,17c0.6,10.9-2,14.3-10.2,16.5s3.6,4.8,0,9.1
						c-2.4,2.9-6.3,6.6-11.7,11.3l-4.1-6.7L39.3,40.7z"/>
					<path id="Path-266" class="st46" d="M41.5,50.7c2-16.5,7.2-26.4,15.5-29.9"/>
					<path class="st1" d="M37.4,50.7c0-2.5-22.1-8.7-20.5-16.2S18,18.5,5.5,24s1-18.7-4.3-23.7c16.5,0.8,42.6,19.2,39.4,50.3
						C37.4,52.4,37.4,53.2,37.4,50.7z"/>
					<path class="st46" d="M4.6,2.6C25.8,17,36.7,34.3,37.3,54.6"/>
					<polygon id="Rectangle-45" class="st48" points="32.7,49 51.3,49 51.3,102.2 32.7,102.2 					"/>
					<path class="st17" d="M32.7,55h18.6v0.9H32.7V55z M32.7,57.7h18.6v0.9H32.7V57.7z"/>
					<path id="Combined-Shape-Copy-4" class="st17" d="M32.7,90.8h18.6v0.9H32.7V90.8z M32.7,93.6h18.6v0.9H32.7V93.6z"/>
					<polygon id="Rectangle-45-Copy-3" class="st31" points="44.5,49 51.3,49 51.3,102.2 44.5,102.2 					"/>
					<path class="st46" d="M21.5,34.4c5.9-0.5,10.1,0.5,12.7,3c-0.7-1.8-0.2-4.6,1.5-8.5"/>
					<path class="st46" d="M9.6,13.9c6.3,0.5,10.5,1.7,12.6,3.7"/>
					<path class="st46" d="M25.2,21.2c-0.1-4.5,0.2-6.9,0.9-7.2"/>
					<path id="Path-267" class="st46" d="M46.8,31.3c4.1-2.3,7.3-2.9,9.7-1.8"/>
				</g>
				<path id="Path-384" class="st49" d="M889.7,186.2c58.3-3.7,47.6-49.4,31-52.3s-21.2,18.2-10.5,23.3
					c17.5,8.4,77.5-30.2,115.3-85.3"/>
				
					<g id="Group-73" transform="translate(1042.313085, 46.190570) rotate(-11.000000) translate(-1042.313085, -46.190570) translate(1006.889210, 22.405968)">
					
						<linearGradient id="Path-387_1_" gradientUnits="userSpaceOnUse" x1="-1200.8256" y1="-119.0927" x2="-1200.9692" y2="-117.8976" gradientTransform="matrix(33.9949 5.519914e-05 2.935452e-05 27.0131 40865.0312 3229.4028)">
						<stop  offset="0" style="stop-color:#298123"/>
						<stop  offset="1" style="stop-color:#0F9A89"/>
					</linearGradient>
					<polygon id="Path-387" class="st50" points="20.9,46.3 54.9,19.3 23.4,24.7 					"/>
					
						<linearGradient id="Path-385_1_" gradientUnits="userSpaceOnUse" x1="-1187.8363" y1="-117.28" x2="-1187.9801" y2="-116.0849" gradientTransform="matrix(69.9758 0 2.318604e-05 39.9756 83165.375 4678.4165)">
						<stop  offset="0" style="stop-color:#5AB155"/>
						<stop  offset="1" style="stop-color:#14AD9B"/>
					</linearGradient>
					<polygon id="Path-385" class="st51" points="0.2,14.9 48.6,40.2 70.2,0.2 					"/>
					<polygon id="Path-386" class="st8" points="17.2,23.9 53.4,10.6 27.8,29.2 20.8,47.3 					"/>
				</g>
				<path id="Path-359-Copy-4" class="st34" d="M770.2,273.5h160.7"/>
			</g>
		</g>
	</g>
</g>
<g>
	<g>
		<polygon class="st52" points="420.8,43.6 413.8,43.6 413.6,44.9 420.6,44.9 		"/>
		<linearGradient id="SVGID_1_" gradientUnits="userSpaceOnUse" x1="390.0513" y1="28.533" x2="430.1275" y2="28.533">
			<stop  offset="0" style="stop-color:#84F97C"/>
			<stop  offset="1" style="stop-color:#33BAAA"/>
		</linearGradient>
		<polygon class="st53" points="430.1,34.1 430.1,32.9 422,32.9 423.3,23 416.3,23 415.1,32.9 406,32.9 407.2,23 400.2,23 399,32.9 
			390.1,32.9 390.1,34.1 		"/>
		<polygon class="st52" points="404.8,42.2 405,40.9 398,40.9 397.9,42.2 		"/>
		<polygon class="st52" points="404.5,44.9 404.6,43.6 397.7,43.6 397.5,44.9 		"/>
		<polygon class="st52" points="390.1,35.4 390.1,36.8 430.2,36.8 430.1,35.4 		"/>
		<polygon class="st52" points="414.1,40.9 413.9,42.2 420.9,42.2 421.1,40.9 		"/>
		<polygon class="st54" points="420.4,46.3 413.4,46.3 413,49.8 403.8,49.8 404.3,46.3 397.3,46.3 396.9,49.8 387.9,49.8 
			387.9,56.5 396.1,56.5 394.8,66.5 401.8,66.5 403,56.5 412.2,56.5 410.9,66.5 417.9,66.5 419.2,56.5 428.1,56.5 428.1,49.8 
			420,49.8 		"/>
		<polygon class="st52" points="390.1,38.2 390.1,39.5 430.2,39.5 430.2,38.2 		"/>
	</g>
	<g>
		<polygon class="st52" points="461.8,43.6 449.4,43.6 450.5,44.9 462.9,44.9 		"/>
		<rect x="436.6" y="40.9" class="st52" width="9.9" height="1.3"/>
		<rect x="436.6" y="43.6" class="st52" width="9.9" height="1.4"/>
		<polygon class="st52" points="460.7,42.2 459.6,40.9 447.2,40.9 448.3,42.2 		"/>
		<polygon class="st52" points="458.4,39.5 457.3,38.2 436.6,38.2 436.6,39.5 		"/>
		<linearGradient id="SVGID_2_" gradientUnits="userSpaceOnUse" x1="466.5179" y1="28.533" x2="476.4566" y2="28.533">
			<stop  offset="0" style="stop-color:#84F97C"/>
			<stop  offset="1" style="stop-color:#33BAAA"/>
		</linearGradient>
		<rect x="466.5" y="23" class="st55" width="9.9" height="11.1"/>
		<polygon class="st52" points="436.6,35.4 436.6,36.8 456.2,36.8 455.1,35.4 		"/>
		<linearGradient id="SVGID_3_" gradientUnits="userSpaceOnUse" x1="436.5776" y1="28.533" x2="453.9964" y2="28.533">
			<stop  offset="0" style="stop-color:#84F97C"/>
			<stop  offset="1" style="stop-color:#33BAAA"/>
		</linearGradient>
		<polygon class="st56" points="454,34.1 444.9,23 436.6,23 436.6,34.1 		"/>
		<rect x="436.6" y="46.3" class="st54" width="9.9" height="20.2"/>
		<rect x="466.5" y="43.6" class="st52" width="9.9" height="1.4"/>
		<polygon class="st54" points="466.5,46.3 466.5,49.4 464,46.3 451.6,46.3 468.2,66.5 476.5,66.5 476.5,46.3 		"/>
		<rect x="466.5" y="35.4" class="st52" width="9.9" height="1.4"/>
		<rect x="466.5" y="40.9" class="st52" width="9.9" height="1.3"/>
		<rect x="466.5" y="38.2" class="st52" width="9.9" height="1.3"/>
	</g>
	<g>
		<rect x="486.4" y="43.6" class="st52" width="10.1" height="1.4"/>
		<rect x="486.4" y="40.9" class="st52" width="10.1" height="1.3"/>
		<rect x="486.4" y="38.2" class="st52" width="10.1" height="1.3"/>
		<rect x="515.8" y="43.6" class="st52" width="9.9" height="1.4"/>
		<linearGradient id="SVGID_4_" gradientUnits="userSpaceOnUse" x1="515.8403" y1="28.533" x2="525.7789" y2="28.533">
			<stop  offset="0" style="stop-color:#84F97C"/>
			<stop  offset="1" style="stop-color:#33BAAA"/>
		</linearGradient>
		<rect x="515.8" y="23" class="st57" width="9.9" height="11.1"/>
		<rect x="486.4" y="35.4" class="st52" width="10.1" height="1.4"/>
		<rect x="515.8" y="40.9" class="st52" width="9.9" height="1.3"/>
		<linearGradient id="SVGID_5_" gradientUnits="userSpaceOnUse" x1="486.3966" y1="28.533" x2="496.4596" y2="28.533">
			<stop  offset="0" style="stop-color:#84F97C"/>
			<stop  offset="1" style="stop-color:#33BAAA"/>
		</linearGradient>
		<rect x="486.4" y="23" class="st58" width="10.1" height="11.1"/>
		<path class="st54" d="M515.8,46.3V47c0,8.3-3.5,11.7-9.7,11.7c-6.1,0-9.7-3.4-9.7-11.7v-0.7h-10.1v1c0,12.8,7.3,19.9,19.7,19.9
			c12.4,0,19.7-7.1,19.7-19.9v-1H515.8z"/>
		<rect x="515.8" y="35.4" class="st52" width="9.9" height="1.4"/>
		<rect x="515.8" y="38.2" class="st52" width="9.9" height="1.3"/>
	</g>
	<g>
		<polygon class="st54" points="545.8,46.3 535.7,46.3 535.7,66.5 567.6,66.5 567.6,58.3 545.8,58.3 		"/>
		<linearGradient id="SVGID_6_" gradientUnits="userSpaceOnUse" x1="535.719" y1="28.533" x2="545.7815" y2="28.533">
			<stop  offset="0" style="stop-color:#84F97C"/>
			<stop  offset="1" style="stop-color:#33BAAA"/>
		</linearGradient>
		<rect x="535.7" y="23" class="st59" width="10.1" height="11.1"/>
		<rect x="535.7" y="43.6" class="st52" width="10.1" height="1.4"/>
		<rect x="535.7" y="40.9" class="st52" width="10.1" height="1.3"/>
		<rect x="535.7" y="38.2" class="st52" width="10.1" height="1.3"/>
		<rect x="535.7" y="35.4" class="st52" width="10.1" height="1.4"/>
	</g>
	<g>
		<path class="st52" d="M571.5,40.9c0.2,0.5,0.5,0.9,0.8,1.3h23.2c-1.7-0.5-3.5-1-5.2-1.3H571.5z"/>
		<linearGradient id="SVGID_7_" gradientUnits="userSpaceOnUse" x1="570.5541" y1="28.1603" x2="603.8613" y2="28.1603">
			<stop  offset="0" style="stop-color:#84F97C"/>
			<stop  offset="1" style="stop-color:#33BAAA"/>
		</linearGradient>
		<path class="st60" d="M580.6,34.1c0.6-2.2,3-3.8,8.1-3.8c3.9,0,8,1.1,12.1,3.4l3.1-7.6c-4-2.5-9.6-3.9-15.1-3.9
			c-11.4,0-17.4,5.2-18.2,11.9H580.6z"/>
		<path class="st52" d="M599.1,43.6h-25.6c0.5,0.5,1.1,1,1.7,1.4h26.2C600.7,44.4,599.9,44,599.1,43.6z"/>
		<path class="st54" d="M577.6,46.3c7.5,3.4,18.1,2.9,18.1,8.2c0,2.7-2.4,4.7-8.4,4.7c-5.2,0-10.7-1.9-14.3-4.5l-3.4,7.6
			c3.9,3,10.8,5,17.7,5c12.4,0,18.4-6.2,18.4-13.5c0-3.3-1.1-5.7-2.8-7.4H577.6z"/>
		<path class="st52" d="M570.7,38.2c0.1,0.5,0.2,0.9,0.3,1.3h14c-1.2-0.4-2.2-0.8-2.9-1.3H570.7z"/>
		<path class="st52" d="M570.5,35.4c0,0.1,0,0.2,0,0.3c0,0.4,0,0.7,0,1h10.3c-0.2-0.4-0.3-0.9-0.4-1.4H570.5z"/>
	</g>
	<g>
		<rect x="612.6" y="38.2" class="st52" width="10.1" height="1.3"/>
		<rect x="612.6" y="35.4" class="st52" width="10.1" height="1.4"/>
		<linearGradient id="SVGID_8_" gradientUnits="userSpaceOnUse" x1="612.6206" y1="28.533" x2="653.7836" y2="28.533">
			<stop  offset="0" style="stop-color:#84F97C"/>
			<stop  offset="1" style="stop-color:#33BAAA"/>
		</linearGradient>
		<path class="st61" d="M622.7,34.1v-2.8h9.2c3.8,0,7,1,9.5,2.8h12.4c-3.8-7-11.5-11.1-21.4-11.1h-19.8v11.1H622.7z"/>
		<path class="st52" d="M646.2,44.7c0,0.1,0,0.1,0,0.2h10.2c0-0.1,0-0.1,0-0.2c0-0.4,0-0.8,0-1.1h-10.2
			C646.1,44,646.2,44.3,646.2,44.7z"/>
		<rect x="612.6" y="40.9" class="st52" width="10.1" height="1.3"/>
		<path class="st52" d="M642.8,35.4c0.4,0.4,0.8,0.9,1.1,1.4H655c-0.2-0.5-0.4-0.9-0.6-1.4H642.8z"/>
		<rect x="612.6" y="43.6" class="st52" width="10.1" height="1.4"/>
		<path class="st54" d="M646.1,46.3c-0.7,7.4-6.1,11.9-14.2,11.9h-9.2V46.3h-10.1v20.2h19.8c13.6,0,23.2-7.9,23.9-20.2H646.1z"/>
		<path class="st52" d="M644.7,38.2c0.2,0.4,0.4,0.9,0.6,1.3h10.5c-0.1-0.5-0.2-0.9-0.3-1.3H644.7z"/>
		<path class="st52" d="M645.7,40.9c0.1,0.4,0.2,0.9,0.3,1.3h10.2c0-0.5-0.1-0.9-0.2-1.3H645.7z"/>
	</g>
	<g>
		<rect x="663.9" y="43.6" class="st52" width="30.2" height="1.4"/>
		<rect x="663.9" y="40.9" class="st52" width="30.2" height="1.3"/>
		<linearGradient id="SVGID_9_" gradientUnits="userSpaceOnUse" x1="663.9297" y1="28.533" x2="696.7895" y2="28.533">
			<stop  offset="0" style="stop-color:#84F97C"/>
			<stop  offset="1" style="stop-color:#33BAAA"/>
		</linearGradient>
		<polygon class="st62" points="673.9,34.1 673.9,31.1 696.8,31.1 696.8,23 663.9,23 663.9,34.1 		"/>
		<rect x="663.9" y="38.2" class="st52" width="10" height="1.3"/>
		<polygon class="st54" points="673.9,48.3 694.1,48.3 694.1,46.3 663.9,46.3 663.9,66.5 697.6,66.5 697.6,58.4 673.9,58.4 		"/>
		<rect x="663.9" y="35.4" class="st52" width="10" height="1.4"/>
	</g>
	<g>
		<rect x="705.6" y="40.9" class="st52" width="30.2" height="1.3"/>
		<linearGradient id="SVGID_10_" gradientUnits="userSpaceOnUse" x1="705.611" y1="28.533" x2="738.4703" y2="28.533">
			<stop  offset="0" style="stop-color:#84F97C"/>
			<stop  offset="1" style="stop-color:#33BAAA"/>
		</linearGradient>
		<polygon class="st63" points="715.6,34.1 715.6,31.1 738.5,31.1 738.5,23 705.6,23 705.6,34.1 		"/>
		<rect x="705.6" y="43.6" class="st52" width="30.2" height="1.4"/>
		<polygon class="st54" points="715.6,48.3 735.8,48.3 735.8,46.3 705.6,46.3 705.6,66.5 739.3,66.5 739.3,58.4 715.6,58.4 		"/>
		<rect x="705.6" y="38.2" class="st52" width="10" height="1.3"/>
		<rect x="705.6" y="35.4" class="st52" width="10" height="1.4"/>
	</g>
	<g>
		<rect x="747.3" y="35.4" class="st52" width="10.1" height="1.4"/>
		<rect x="747.3" y="40.9" class="st52" width="10.1" height="1.3"/>
		<path class="st52" d="M774.8,38.8c0,0.3,0,0.5,0,0.8H785c0-0.3,0-0.5,0-0.8c0-0.2,0-0.4,0-0.6h-10.2
			C774.8,38.4,774.8,38.6,774.8,38.8z"/>
		<linearGradient id="SVGID_11_" gradientUnits="userSpaceOnUse" x1="747.2917" y1="28.533" x2="784.3661" y2="28.533">
			<stop  offset="0" style="stop-color:#84F97C"/>
			<stop  offset="1" style="stop-color:#33BAAA"/>
		</linearGradient>
		<path class="st64" d="M757.4,34.1v-2.9h8.2c3.7,0,6.3,1,7.8,2.9h11c-2-7-8.6-11.1-18.3-11.1h-18.8v11.1H757.4z"/>
		<rect x="747.3" y="38.2" class="st52" width="10.1" height="1.3"/>
		<path class="st54" d="M747.3,46.3v20.2h10.1v-12h8.8c8.2,0,14.2-3,17.1-8.2H747.3z"/>
		<path class="st52" d="M774.2,35.4c0.2,0.4,0.3,0.9,0.4,1.4h10.3c0-0.5-0.1-0.9-0.2-1.4H774.2z"/>
		<path class="st52" d="M774.6,40.9c-0.1,0.5-0.3,0.9-0.5,1.3h10.6c0.1-0.4,0.2-0.9,0.2-1.3H774.6z"/>
		<rect x="747.3" y="43.6" class="st52" width="10.1" height="1.4"/>
		<path class="st52" d="M784.3,43.6h-11.1c-0.5,0.5-1,1-1.7,1.4h12.3C784,44.5,784.2,44,784.3,43.6z"/>
	</g>
	<g>
		<path class="st65" d="M419.1,48.8h8.1v6.8h-8.9l-1.2,9.9h-7l1.2-9.9h-9.1l-1.2,9.9h-7l1.2-9.9H387v-6.8h8.9l1.3-10.1h-8.1V32h8.9
			l1.2-9.9h7L405,32h9.1l1.2-9.9h7l-1.2,9.9h8.1l0.1,6.8h-8.9L419.1,48.8z M412,48.8l1.3-10.1h-9.1l-1.3,10.1H412z"/>
		<path class="st65" d="M475.5,22v43.5h-8.3l-21.7-26.4v26.4h-9.9V22h8.3l21.6,26.4V22H475.5z"/>
		<path class="st65" d="M485.5,46.4V22h10.1v24c0,8.3,3.6,11.7,9.7,11.7c6.1,0,9.7-3.4,9.7-11.7V22h9.9v24.3
			c0,12.8-7.3,19.9-19.7,19.9C492.8,66.3,485.5,59.2,485.5,46.4z"/>
		<path class="st65" d="M534.8,22h10.1v35.3h21.8v8.2h-31.9V22z"/>
		<path class="st65" d="M568.6,61.2l3.4-7.6c3.7,2.7,9.1,4.5,14.3,4.5c6,0,8.4-2,8.4-4.7c0-8.1-25.3-2.5-25.3-18.7
			c0-7.4,6-13.5,18.3-13.5c5.5,0,11.1,1.3,15.1,3.9l-3.1,7.6c-4-2.3-8.2-3.4-12.1-3.4c-6,0-8.3,2.2-8.3,5c0,8,25.3,2.5,25.3,18.4
			c0,7.3-6,13.5-18.4,13.5C579.4,66.3,572.5,64.2,568.6,61.2z"/>
		<path class="st65" d="M611.7,22h19.8c14.2,0,24,8.6,24,21.7c0,13.2-9.8,21.7-24,21.7h-19.8V22z M630.9,57.3
			c8.6,0,14.3-5.2,14.3-13.5c0-8.3-5.7-13.5-14.3-13.5h-9.2v27H630.9z"/>
		<path class="st65" d="M696.7,57.4v8.1H663V22h32.9v8.1H673v9.4h20.2v7.8H673v10.1H696.7z"/>
		<path class="st65" d="M738.3,57.4v8.1h-33.7V22h32.9v8.1h-22.9v9.4h20.2v7.8h-20.2v10.1H738.3z"/>
		<path class="st65" d="M784.1,37.8c0,9.7-7.3,15.7-18.9,15.7h-8.8v12h-10.1V22h18.8C776.8,22,784.1,28.1,784.1,37.8z M773.9,37.8
			c0-4.8-3.1-7.6-9.3-7.6h-8.2v15.1h8.2C770.8,45.3,773.9,42.5,773.9,37.8z"/>
	</g>
</g>
<g>
	<path id="Rectangle-76" class="st66" d="M487.3,97.8h197.5c5.7,0,10.4,4.6,10.4,10.4v163.8c0,5.7-4.6,10.4-10.4,10.4H487.3
		c-5.7,0-10.4-4.6-10.4-10.4V108.1C476.9,102.4,481.6,97.8,487.3,97.8z"/>
	
		<linearGradient id="Rectangle-82_1_" gradientUnits="userSpaceOnUse" x1="809.5607" y1="-2.5838" x2="810.3873" y2="-1.4269" gradientTransform="matrix(187.0121 0 0 62.7276 -150896.2656 292.2042)">
		<stop  offset="0" style="stop-color:#7ECC79"/>
		<stop  offset="1" style="stop-color:#1FAD9D"/>
	</linearGradient>
	<path id="Rectangle-82" class="st67" d="M495.6,138.4h180.3c1.9,0,3.4,1.5,3.4,3.4v56c0,1.9-1.5,3.4-3.4,3.4H495.6
		c-1.9,0-3.4-1.5-3.4-3.4v-56C492.2,139.9,493.7,138.4,495.6,138.4z"/>
	
		<linearGradient id="Rectangle-81-Copy_1_" gradientUnits="userSpaceOnUse" x1="800.3011" y1="-2.8104" x2="801.1276" y2="-1.6535" gradientTransform="matrix(61.478 -1.0731 0.7282 41.7174 -48579.9023 1190.5582)">
		<stop  offset="0" style="stop-color:#7ECC79"/>
		<stop  offset="1" style="stop-color:#1FAD9D"/>
	</linearGradient>
	<path id="Rectangle-81-Copy" class="st68" d="M619.1,220l55.3-1c1.7,0,3.1,1.3,3.1,3l0.6,35.6c0,1.7-1.3,3.1-3,3.1l-55.3,1
		c-1.7,0-3.1-1.3-3.1-3l-0.6-35.6C616.1,221.4,617.4,220,619.1,220z"/>
	
		<linearGradient id="Rectangle-81-Copy-3_1_" gradientUnits="userSpaceOnUse" x1="805.9137" y1="-2.8101" x2="806.7403" y2="-1.6532" gradientTransform="matrix(103.6554 -1.8093 0.7282 41.7175 -83036.8906 1790.575)">
		<stop  offset="0" style="stop-color:#7ECC79"/>
		<stop  offset="1" style="stop-color:#1FAD9D"/>
	</linearGradient>
	<path id="Rectangle-81-Copy-3" class="st69" d="M496.5,220.7L594,219c1.7,0,3.1,1.3,3.1,3l0.6,35.6c0,1.7-1.3,3.1-3,3.1l-97.5,1.7
		c-1.7,0-3.1-1.3-3.1-3l-0.6-35.6C493.4,222.2,494.8,220.7,496.5,220.7z"/>
	
		<linearGradient id="Rectangle-76-Copy_1_" gradientUnits="userSpaceOnUse" x1="810.194" y1="-2.2532" x2="811.0205" y2="-1.0964" gradientTransform="matrix(218.1808 0 0 27.8159 -176284.3281 157.0698)">
		<stop  offset="0" style="stop-color:#7ECC79"/>
		<stop  offset="1" style="stop-color:#1FAD9D"/>
	</linearGradient>
	<path id="Rectangle-76-Copy" class="st70" d="M487.3,97.8h197.5c5.7,0,10.4,4.6,10.4,10.4v17.5H476.9v-17.5
		C476.9,102.4,481.6,97.8,487.3,97.8z"/>
	<path id="Rectangle-77" class="st71" d="M538.7,108.3h137.5c1.7,0,3.1,1.4,3.1,3.1v0.1c0,1.7-1.4,3.1-3.1,3.1H538.7
		c-1.7,0-3.1-1.4-3.1-3.1v-0.1C535.6,109.6,536.9,108.3,538.7,108.3z"/>
	
		<ellipse id="Oval-31" transform="matrix(-0.9903 -0.1392 0.1392 -0.9903 957.5977 290.5341)" class="st17" cx="489" cy="111.8" rx="3.3" ry="3.3"/>
	
		<ellipse id="Oval-31-Copy" transform="matrix(-0.9903 -0.1392 0.1392 -0.9903 986.346 292.5571)" class="st72" cx="503.4" cy="111.8" rx="3.3" ry="3.3"/>
	
		<ellipse id="Oval-31-Copy-2" transform="matrix(-0.9903 -0.1392 0.1392 -0.9903 1015.1082 294.5655)" class="st66" cx="517.9" cy="111.8" rx="3.3" ry="3.3"/>
	<path id="Rectangle-81-Copy-2" class="st73" d="M558.1,191l55.3-1c1.7,0,3.1,1.3,3.1,3l0.6,35.6c0,1.7-1.3,3.1-3,3.1l-55.3,1
		c-1.7,0-3.1-1.3-3.1-3l-0.6-35.6C555,192.5,556.4,191.1,558.1,191z"/>
	<path id="Rectangle-81" class="st37" d="M566.4,181.9l55.3-1c1.7,0,3.1,1.3,3.1,3l0.6,35.6c0,1.7-1.3,3.1-3,3.1l-55.3,1
		c-1.7,0-3.1-1.3-3.1-3l-0.6-35.6C563.4,183.4,564.7,182,566.4,181.9z"/>
	
		<rect id="Rectangle-4" x="562.7" y="197.7" transform="matrix(-0.848 0.53 -0.53 -0.848 1172.2542 68.3609)" class="st23" width="27.3" height="9.1"/>
	
		<rect id="Rectangle-4-Copy" x="586.9" y="203.8" transform="matrix(-0.848 0.53 -0.53 -0.848 1209.1277 69.9402)" class="st23" width="15.2" height="9.1"/>
	
		<rect id="Rectangle-4-Copy-2" x="608.2" y="206.8" transform="matrix(-0.848 0.53 -0.53 -0.848 1244.4102 65.8823)" class="st23" width="9.1" height="9.1"/>
	
		<linearGradient id="Oval-33-Copy_1_" gradientUnits="userSpaceOnUse" x1="750.4523" y1="-1.2102" x2="751.2788" y2="-5.331708e-02" gradientTransform="matrix(13.3158 0 0 9.6412 -9377.8184 202.9577)">
		<stop  offset="0" style="stop-color:#7ECC79"/>
		<stop  offset="1" style="stop-color:#1FAD9D"/>
	</linearGradient>
	<path id="Oval-33-Copy" class="st74" d="M613.8,195.9l4-3c2.2,2.9,5.6,4.6,9.3,4.6v5C621.9,202.5,617,200,613.8,195.9z"/>
</g>
<g id="Group-69" transform="translate(444.295437, 133.970329)">
	<path id="Path-370" class="st11" d="M317.1,99.7c-1.1,22.6-3.2,36.8-6.4,42.7c2.1,0.2,3.7,0.2,4.8,0c8.6-21.6,12.1-36.1,10.5-43.6
		C323.7,97.7,320.7,98,317.1,99.7z"/>
	<path id="Path-368" class="st11" d="M331.7,99.1c4.5,23.6,6.8,38,6.8,43.2c2.8-0.1,4.6-0.1,5.5,0c-0.2-8.2-0.5-13.9-0.7-17.3
		c-1.1-17.8-2.3-27.1-2.9-28L331.7,99.1z"/>
	<path id="Path-367" class="st8" d="M311.1,68c-1.9,7.1,3.9,24.6,4.2,26c0.2,0.9,0.3,3.2,0.3,6.8c5.9,1.3,10.3,1.8,13.2,1.7
		c2.9-0.1,7.2-1.1,12.9-2.9l-5-30.2L311.1,68z"/>
	
		<linearGradient id="Path-366_1_" gradientUnits="userSpaceOnUse" x1="-90.8152" y1="0.3912" x2="-89.9887" y2="1.5481" gradientTransform="matrix(7.8115 0 0 4.6353 1060.7666 5.1828)">
		<stop  offset="0" style="stop-color:#7ECC79"/>
		<stop  offset="1" style="stop-color:#1FAD9D"/>
	</linearGradient>
	<path id="Path-366" class="st75" d="M351.8,11.9h7.8c-0.9-3.1-1.8-4.6-2.6-4.6s-2,0-3.6,0L351.8,11.9z"/>
	<g id="Path-365">
		<g>
			<path id="path-46" class="st36" d="M357.1,7.4c-6.3,0-1.8,14.1-6.9,15.6c-2.3,0.7-4.1,4.3-2.3,6.2c1.2,1.2,1,4.1-0.5,8.8l-11-0.9
				c-1.5-4.6-2.3-8.4-2.3-11.5c0-4.7,6.4-2.3,5.7-8.2s-0.3-8.7,1.8-9.7C349.6,6.7,354.7,6.7,357.1,7.4z"/>
		</g>
		<g>
			<path class="st37" d="M357.1,7.4c-6.3,0-1.8,14.1-6.9,15.6c-2.3,0.7-4.1,4.3-2.3,6.2c1.2,1.2,1,4.1-0.5,8.8l-11-0.9
				c-1.5-4.6-2.3-8.4-2.3-11.5c0-4.7,6.4-2.3,5.7-8.2s-0.3-8.7,1.8-9.7C349.6,6.7,354.7,6.7,357.1,7.4z"/>
		</g>
	</g>
	<path id="Path-364" class="st11" d="M348.7,27.6c-0.9-2.4-1.4-3.7-1.7-4c-0.4-0.4-1.4-3.4-0.4-2.9c1,0.5,1.9,2.5,2.7,1.8
		c0.6-0.4,1.9-2.5,3.8-6.2c1.6,1.4,2.3,2.5,2.1,3.5s-1.2,2.9-3.1,5.8v2.6L348.7,27.6z"/>
	<g id="Group-70" transform="translate(18.134508, 10.218076)">
		<path id="Path-362" class="st11" d="M314.6-3c2.4,6.8,3,10.5,1.7,11.3c-1.2,0.8-3.3,1.6-6.2,2.5l2.6,9.5h-7.3l-4-22L314.6-3z"/>
	</g>
	<path id="Path-363" class="st48" d="M313.2,31.6l-3,37.8c7.1,2.1,12.6,2.8,16.4,2.3s7.4-1,11-1.5l-2.8-24.4
		c3.6,7.6,6.7,11.2,9.5,10.6c2.7-0.5,5.5-9.6,8.6-27.2l0,0c0.2-1.2-0.6-2.3-1.8-2.5c-0.1,0-0.2,0-0.4,0l0,0c-1.5,0-2.8,1-3.2,2.5
		c-2.2,9-3.7,13.5-4.5,13.5c-1.4,0-4.6-18.6-14.1-15.7C325.3,28,320.1,29.6,313.2,31.6z"/>
	<path id="Path-361" class="st8" d="M315.2-1.4c-7.9,5.1-2.2,9.8-5,11.9c-3.8,2.8-9.3,2.4-7.3,7.3c4.5,11.2,3.3,8.9,1.2,12.6
		c-6.6,11.2,0.2,20.5,12.3,20.5c11.8,0,14.6-14.9,10.1-21.8c-2.2-3.4,4.4-2.3,5.6-9.8c1.2-7.4-6.2-8.4-3.8-8.8
		c4.9-0.8,4.7,1.1,7.7-5.8C338.6-1.4,321.6-5.5,315.2-1.4z"/>
	<path id="Path-369" class="st8" d="M338.8,141.3c-0.2,3.6,0,5.6,0.5,5.8c0.6,0.2,5.7,0.3,15.4,0.3c0.4-1.1,0.4-1.8,0-2.1
		c-5-3.1-9.6-4.2-11.5-4C342,142.3,340.5,142.3,338.8,141.3z"/>
	<path id="Path-369-Copy" class="st8" d="M311.4,141.3c-0.2,3.6,0,5.6,0.5,5.8c0.6,0.2,5.7,0.3,15.4,0.3c0.4-1.1,0.4-1.8,0-2.1
		c-5-3.1-9.6-4.2-11.5-4C314.6,142.3,313.1,142.3,311.4,141.3z"/>
</g>
</svg>
