<?xml version="1.0" encoding="utf-8"?>
<!-- Generator: Adobe Illustrator 23.0.4, SVG Export Plug-In . SVG Version: 6.00 Build 0)  -->
<svg version="1.1" xmlns="http://www.w3.org/2000/svg" xmlns:xlink="http://www.w3.org/1999/xlink" x="0px" y="0px"
	 viewBox="0 0 400 400" style="enable-background:new 0 0 400 400;" xml:space="preserve">
<style type="text/css">
	.st0{fill:none;stroke:#85B93E;stroke-width:3;stroke-linecap:round;stroke-miterlimit:10;}
	.st1{fill:none;stroke:#1D1D1D;stroke-width:3;stroke-linecap:round;stroke-miterlimit:10;}
	.st2{fill:url(#SVGID_1_);}
	.st3{fill:url(#SVGID_2_);}
	.st4{fill:url(#SVGID_3_);}
	.st5{clip-path:url(#SVGID_5_);}
</style>
<g id="Core">
	<g>
		<g>
			<g id="Layer_5">
			</g>
			<path class="st0" d="M20.6,198l-2-2c-5.9-5.8-5.9-15.3,0-21.2l66.1-66.1c5.9-5.8,15.3-5.8,21.2,0l1.9,1.9
				c5.8,5.8,5.8,15.3,0,21.2l-71.7,71.7c-2.7,2.7-2.7,7.2,0,10.1l0,0c2.7,2.7,7.2,2.7,10,0l76.5-76.5c3.2-3.2,8.4-3.2,11.5,0l0,0
				c3.2,3.2,3.2,8.4,0,11.6l-70.9,70.9c-5.9,5.8-5.9,15.3,0,21.1l74.2,74.2c5.8,5.9,15.3,5.9,21.2,0l30.4-30.4
				c5.8-5.8,15.3-5.8,21.2,0l30.5,30.4c5.8,5.9,15.3,5.9,21.2,0l74.2-74.2c5.9-5.8,5.9-15.3,0-21.1l-70.9-71
				c-3.2-3.2-3.2-8.4,0-11.5l0,0c3.2-3.2,8.4-3.2,11.6,0l76.5,76.5c2.7,2.7,7.2,2.7,10.1,0l0,0c2.7-2.7,2.7-7.2,0-10.1L292.1,132
				c-5.9-5.8-5.9-15.3,0-21.2l1.9-2c5.9-5.8,15.3-5.8,21.1,0l66.2,66.1c5.8,5.8,5.8,15.3,0,21.2l-1.9,1.9"/>
		</g>
	</g>
</g>
<g id="Top">
	<path class="st1" d="M170.9,120.9v-11.7c0-4.2-3.3-7.5-7.5-7.5h-22.7c-16.5,0-30-13.5-30-30v-1.2c0-16.5,13.5-30,30-30h118.7
		c16.5,0,30,13.5,30,30v1.2c0,16.5-13.5,30-30,30h-22.7c-4.2,0-7.5,3.3-7.5,7.5v11.7"/>
</g>
<g id="Flaps">
	<g>
		<g>
			
				<linearGradient id="SVGID_1_" gradientUnits="userSpaceOnUse" x1="176" y1="-88.9" x2="224" y2="-88.9" gradientTransform="matrix(1 0 0 1 0 160)">
				<stop  offset="1.685078e-03" style="stop-color:#00DA9D"/>
				<stop  offset="1" style="stop-color:#55DF60"/>
			</linearGradient>
			<circle class="st2" cx="200" cy="71.1" r="24"/>
			
				<linearGradient id="SVGID_2_" gradientUnits="userSpaceOnUse" x1="122.9" y1="-88.9" x2="170.9" y2="-88.9" gradientTransform="matrix(1 0 0 1 0 160)">
				<stop  offset="1.685078e-03" style="stop-color:#00DA9D"/>
				<stop  offset="1" style="stop-color:#55DF60"/>
			</linearGradient>
			<circle class="st3" cx="146.9" cy="71.1" r="24"/>
			
				<linearGradient id="SVGID_3_" gradientUnits="userSpaceOnUse" x1="229.1" y1="-88.9" x2="277.1" y2="-88.9" gradientTransform="matrix(1 0 0 1 0 160)">
				<stop  offset="1.685078e-03" style="stop-color:#00DA9D"/>
				<stop  offset="1" style="stop-color:#55DF60"/>
			</linearGradient>
			<circle class="st4" cx="253.1" cy="71.1" r="24"/>
		</g>
	</g>
</g>
<g id="Guide">
	<g>
		<g>
			<defs>
				<polygon id="SVGID_4_" points="145,237.9 165.9,260.5 229.1,260.9 255.7,237.9 271.4,250.8 249.7,329.3 227.5,352.2 
					221.9,334.6 212,328.2 199.6,324.3 188,328.2 178.1,334.6 171.6,352.2 147.3,332.1 131.3,237.9 				"/>
			</defs>
			<clipPath id="SVGID_5_">
				<use xlink:href="#SVGID_4_"  style="overflow:visible;"/>
			</clipPath>
			<g class="st5">
				<path id="Chain_Brush_1_2_" class="st0" d="M150.9,203.2l4.3,14.2c0.3,1.1-0.3,2.4-1.5,2.7l1.5,5c3.9-1.2,6.2-5.3,5.1-9.2
					l-4.3-14.2c-1.2-3.9-5.4-6.1-9.3-4.9l1.5,5C149.4,201.4,150.6,202,150.9,203.2z M161.6,238.6l4.3,14.2c0.3,1.1-0.3,2.4-1.5,2.7
					l1.5,5c3.9-1.2,6.2-5.3,5.1-9.2l-4.3-14.2c-1.2-3.9-5.4-6.1-9.3-4.9l1.5,5C160,236.8,161.3,237.5,161.6,238.6z M153.6,241.9
					c0.4,1.3,1.9,2.1,3.2,1.7s2.1-1.9,1.7-3.2l-7-23.4c-0.4-1.3-1.9-2.1-3.2-1.7s-2.1,1.9-1.7,3.2L153.6,241.9z M143.7,220.8
					l-4.3-14.2c-0.3-1.1,0.3-2.4,1.5-2.7l-1.5-5c-3.9,1.2-6.2,5.3-5.1,9.2l4.3,14.2c1.2,3.9,5.4,6.1,9.3,4.9l-1.5-5
					C145.4,222.6,144.1,222,143.7,220.8z M154.4,256.3l-4.3-14.2c-0.3-1.1,0.3-2.4,1.5-2.7l-1.5-5c-3.9,1.2-6.2,5.3-5.1,9.2
					l4.3,14.2c1.2,3.9,5.4,6.1,9.3,4.9l-1.5-5C156.1,258.1,154.7,257.5,154.4,256.3z M164.3,277.3c0.4,1.3,1.9,2.1,3.2,1.7
					s2.1-1.9,1.7-3.2l-7-23.4c-0.4-1.3-1.9-2.1-3.2-1.7s-2.1,1.9-1.7,3.2L164.3,277.3z M172.3,274.2l4.3,14.2
					c0.3,1.1-0.3,2.4-1.5,2.7l1.5,5c3.9-1.2,6.2-5.3,5.1-9.2l-4.3-14.2c-1.2-3.9-5.4-6.1-9.3-4.9l1.5,5
					C170.7,272.2,171.9,272.9,172.3,274.2z M165.1,291.8l-4.3-14.2c-0.3-1.1,0.3-2.4,1.5-2.7l-1.5-5c-3.9,1.2-6.2,5.3-5.1,9.2
					l4.3,14.2c1.2,3.9,5.4,6.1,9.3,4.9l-1.5-5C166.7,293.6,165.4,292.9,165.1,291.8z M174.9,312.7c0.4,1.3,1.9,2.1,3.2,1.7
					s2.1-1.9,1.7-3.2l-7-23.4c-0.4-1.3-1.9-2.1-3.2-1.7s-2.1,1.9-1.7,3.2L174.9,312.7z M182.9,309.6l4.3,14.2
					c0.3,1.1-0.3,2.4-1.5,2.7l1.5,5c3.9-1.2,6.2-5.3,5.1-9.2l-4.3-14.2c-1.2-3.9-5.4-6.1-9.3-4.9l1.5,5
					C181.4,307.8,182.6,308.4,182.9,309.6z M175.7,327.2l-4.3-14.2c-0.3-1.1,0.3-2.4,1.5-2.7l-1.5-5c-3.9,1.2-6.2,5.3-5.1,9.2
					l4.3,14.2c1.2,3.9,5.4,6.1,9.3,4.9l-1.5-5C177.4,329,176.1,328.4,175.7,327.2z M185.6,348.3c0.4,1.3,1.9,2.1,3.2,1.7
					s2.1-1.9,1.7-3.2l-7-23.4c-0.4-1.3-1.9-2.1-3.2-1.7s-2.1,1.9-1.7,3.2L185.6,348.3z M193.6,345l4.3,14.2c0.3,1.1-0.3,2.4-1.5,2.7
					l1.5,5c3.9-1.2,6.2-5.3,5.1-9.2l-4.3-14.2c-1.2-3.9-5.4-6.1-9.3-4.9l1.5,5C192,343.2,193.3,343.9,193.6,345z M196.3,383.7
					c0.4,1.3,1.9,2.1,3.2,1.7s2.1-1.9,1.7-3.2l-7-23.4c-0.4-1.3-1.9-2.1-3.2-1.7s-2.1,1.9-1.7,3.2L196.3,383.7z M186.4,362.7
					l-4.3-14.2c-0.3-1.1,0.3-2.4,1.5-2.7l-1.5-5c-3.9,1.2-6.2,5.3-5.1,9.2l4.3,14.2c1.2,3.9,5.4,6.1,9.3,4.9l-1.5-4.9
					C188.1,364.5,186.7,363.9,186.4,362.7z M204.3,380.6l4.3,14.2c0.3,1.1-0.3,2.4-1.5,2.7l1.5,5c3.9-1.2,6.2-5.3,5.1-9.2l-4.3-14.2
					c-1.2-3.9-5.4-6.1-9.3-4.9l1.5,5C202.7,378.6,203.9,379.3,204.3,380.6z M214.9,416l4.3,14.2c0.3,1.1-0.3,2.4-1.5,2.7l1.5,5
					c3.9-1.2,6.2-5.3,5.1-9.2l-4.3-14.2c-1.2-3.9-5.4-6.1-9.3-4.9l1.5,5C213.4,414.2,214.6,414.8,214.9,416z M197.1,398.2l-4.3-14.2
					c-0.3-1.1,0.3-2.4,1.5-2.7l-1.5-5c-3.9,1.2-6.2,5.3-5.1,9.2l4.3,14.2c1.2,3.9,5.4,6.1,9.3,4.9l-1.5-5
					C198.7,400,197.4,399.3,197.1,398.2z M206.9,419.1c0.4,1.3,1.9,2.1,3.2,1.7s2.1-1.9,1.7-3.2l-7-23.4c-0.4-1.3-1.9-2.1-3.2-1.7
					s-2.1,1.9-1.7,3.2L206.9,419.1z M225.6,451.4l4.3,14.2c0.3,1.1-0.3,2.4-1.5,2.7l1.5,5c3.9-1.2,6.2-5.3,5.1-9.2l-4.3-14.2
					c-1.2-3.9-5.4-6.1-9.3-4.9l1.5,5C224,449.6,225.3,450.3,225.6,451.4z M207.7,433.6l-4.3-14.2c-0.3-1.1,0.3-2.4,1.5-2.7l-1.5-5
					c-3.9,1.2-6.2,5.3-5.1,9.2l4.3,14.2c1.2,3.9,5.4,6.1,9.3,4.9l-1.5-5C209.4,435.4,208.1,434.8,207.7,433.6z M217.6,454.7
					c0.4,1.3,1.9,2.1,3.2,1.7s2.1-1.9,1.7-3.2l-7-23.4c-0.4-1.3-1.9-2.1-3.2-1.7s-2.1,1.9-1.7,3.2L217.6,454.7z M218.4,469.1
					l-4.3-14.3c-0.3-1.1,0.3-2.4,1.5-2.7l-1.5-5c-3.9,1.2-6.2,5.3-5.1,9.2l4.3,14.2c1.2,3.9,5.4,6.1,9.3,4.9l-1.5-5
					C220.1,470.9,218.7,470.3,218.4,469.1z M228.3,490.1c0.4,1.3,1.9,2.1,3.2,1.7c1.3-0.4,2.1-1.9,1.7-3.2l-7-23.4
					c-0.4-1.3-1.9-2.1-3.2-1.7c-1.3,0.4-2.1,1.9-1.7,3.2L228.3,490.1z M236.3,486.9l4.3,14.2c0.3,1.1-0.3,2.4-1.5,2.7l1.5,5
					c3.9-1.2,6.2-5.3,5.1-9.2l-4.3-14.2c-1.2-3.9-5.4-6.1-9.3-4.9l1.5,5C234.7,485.1,235.9,485.7,236.3,486.9z M238.9,525.6
					c0.4,1.3,1.9,2.1,3.2,1.7c1.3-0.4,2.1-1.9,1.7-3.2l-7-23.4c-0.4-1.3-1.9-2.1-3.2-1.7c-1.3,0.4-2.1,1.9-1.7,3.2L238.9,525.6z
					 M229.1,504.6l-4.3-14.2c-0.3-1.1,0.3-2.4,1.5-2.7l-1.5-5c-3.9,1.2-6.2,5.3-5.1,9.2l4.3,14.2c1.2,3.9,5.4,6.1,9.3,4.9l-1.5-5
					C230.7,506.4,229.4,505.7,229.1,504.6z"/>
				<path id="Chain_Brush_1_1_" class="st0" d="M251.8,201.7l1.5-5c-3.9-1.2-8.1,1-9.3,4.9l-4.3,14.2c-1.2,3.9,1.1,8.1,5.1,9.2
					l1.5-5c-1.1-0.3-1.8-1.6-1.5-2.7l4.3-14.2C249.4,202,250.6,201.4,251.8,201.7z M241.1,237.2l1.5-5c-3.9-1.2-8.1,1-9.3,4.9
					l-4.3,14.2c-1.2,3.9,1.1,8.1,5.1,9.2l1.5-5c-1.1-0.3-1.8-1.6-1.5-2.7l4.3-14.2C238.7,237.5,240,236.8,241.1,237.2z M253.4,218.5
					c0.4-1.3-0.4-2.8-1.7-3.2c-1.3-0.4-2.8,0.4-3.2,1.7l-7,23.4c-0.4,1.3,0.4,2.8,1.7,3.2c1.3,0.4,2.8-0.4,3.2-1.7L253.4,218.5z
					 M253.5,222.3l-1.5,5c3.9,1.2,8.1-1,9.3-4.9l4.3-14.2c1.2-3.9-1.1-8.1-5.1-9.2l-1.5,5c1.1,0.3,1.8,1.6,1.5,2.7l-4.3,14.2
					C255.9,222,254.6,222.6,253.5,222.3z M242.9,257.7l-1.5,5c3.9,1.2,8.1-1,9.3-4.9l4.3-14.2c1.2-3.9-1.1-8.1-5.1-9.2l-1.5,5
					c1.1,0.3,1.8,1.6,1.5,2.7l-4.3,14.2C245.3,257.5,243.9,258.1,242.9,257.7z M242.8,253.9c0.4-1.3-0.4-2.8-1.7-3.2
					c-1.3-0.4-2.8,0.4-3.2,1.7l-7,23.4c-0.4,1.3,0.4,2.8,1.7,3.2c1.3,0.4,2.8-0.4,3.2-1.7L242.8,253.9z M230.5,272.7l1.5-5
					c-3.9-1.2-8.1,1-9.3,4.9l-4.3,14.2c-1.2,3.9,1.1,8.1,5.1,9.2l1.5-5c-1.1-0.3-1.8-1.6-1.5-2.7l4.3-14.2
					C228.1,272.9,229.3,272.2,230.5,272.7z M232.2,293.3l-1.5,5c3.9,1.2,8.1-1,9.3-4.9l4.3-14.2c1.2-3.9-1.1-8.1-5.1-9.2l-1.5,5
					c1.1,0.3,1.8,1.6,1.5,2.7l-4.3,14.2C234.6,292.9,233.3,293.6,232.2,293.3z M232.1,289.4c0.4-1.3-0.4-2.8-1.7-3.2
					s-2.8,0.4-3.2,1.7l-7,23.4c-0.4,1.3,0.4,2.8,1.7,3.2s2.8-0.4,3.2-1.7L232.1,289.4z M219.8,308.1l1.5-5c-3.9-1.2-8.1,1-9.3,4.9
					l-4.3,14.2c-1.2,3.9,1.1,8.1,5.1,9.2l1.5-5c-1.1-0.3-1.8-1.6-1.5-2.7l4.3-14.2C217.4,308.4,218.6,307.8,219.8,308.1z
					 M221.5,328.7l-1.5,5c3.9,1.2,8.1-1,9.3-4.9l4.3-14.2c1.2-3.9-1.1-8.1-5.1-9.2l-1.5,5c1.1,0.3,1.8,1.6,1.5,2.7l-4.3,14.2
					C223.9,328.4,222.6,329,221.5,328.7z M221.4,324.9c0.4-1.3-0.4-2.8-1.7-3.2s-2.8,0.4-3.2,1.7l-7,23.4c-0.4,1.3,0.4,2.8,1.7,3.2
					c1.3,0.4,2.8-0.4,3.2-1.7L221.4,324.9z M209.1,343.5l1.5-5c-3.9-1.2-8.1,1-9.3,4.9l-4.3,14.2c-1.2,3.9,1.1,8.1,5.1,9.2l1.5-5
					c-1.1-0.3-1.8-1.6-1.5-2.7l4.3-14.2C206.7,343.9,208,343.2,209.1,343.5z M210.8,360.3c0.4-1.3-0.4-2.8-1.7-3.2s-2.8,0.4-3.2,1.7
					l-7,23.4c-0.4,1.3,0.4,2.8,1.7,3.2c1.3,0.4,2.8-0.4,3.2-1.7L210.8,360.3z M210.9,364.2l-1.5,4.9c3.9,1.2,8.1-1,9.3-4.9L223,350
					c1.2-3.9-1.1-8.1-5.1-9.2l-1.5,5c1.1,0.3,1.8,1.6,1.5,2.7l-4.3,14.2C213.3,363.9,211.9,364.5,210.9,364.2z M198.5,379.1l1.5-5
					c-3.9-1.2-8.1,1-9.3,4.9l-4.3,14.2c-1.2,3.9,1.1,8.1,5.1,9.2l1.5-5c-1.1-0.3-1.8-1.6-1.5-2.7l4.3-14.2
					C196.1,379.3,197.3,378.6,198.5,379.1z M187.8,414.5l1.5-5c-3.9-1.2-8.1,1-9.3,4.9l-4.3,14.2c-1.2,3.9,1.1,8.1,5.1,9.2l1.5-5
					c-1.1-0.3-1.8-1.6-1.5-2.7l4.3-14.2C185.4,414.8,186.6,414.2,187.8,414.5z M200.2,399.7l-1.5,5c3.9,1.2,8.1-1,9.3-4.9l4.3-14.2
					c1.2-3.9-1.1-8.1-5.1-9.2l-1.5,5c1.1,0.3,1.8,1.6,1.5,2.7l-4.3,14.2C202.6,399.3,201.3,400,200.2,399.7z M200.1,395.8
					c0.4-1.3-0.4-2.8-1.7-3.2c-1.3-0.4-2.8,0.4-3.2,1.7l-7,23.4c-0.4,1.3,0.4,2.8,1.7,3.2c1.3,0.4,2.8-0.4,3.2-1.7L200.1,395.8z
					 M177.1,449.9l1.5-5c-3.9-1.2-8.1,1-9.3,4.9L165,464c-1.2,3.9,1.1,8.1,5.1,9.2l1.5-5c-1.1-0.3-1.8-1.6-1.5-2.7l4.3-14.2
					C174.7,450.3,176,449.6,177.1,449.9z M189.5,435.1l-1.5,5c3.9,1.2,8.1-1,9.3-4.9l4.3-14.2c1.2-3.9-1.1-8.1-5.1-9.2l-1.5,5
					c1.1,0.3,1.8,1.6,1.5,2.7l-4.3,14.2C191.9,434.8,190.6,435.4,189.5,435.1z M189.4,431.3c0.4-1.3-0.4-2.8-1.7-3.2
					c-1.3-0.4-2.8,0.4-3.2,1.7l-7,23.4c-0.4,1.3,0.4,2.8,1.7,3.2c1.3,0.4,2.8-0.4,3.2-1.7L189.4,431.3z M178.9,470.5l-1.5,5
					c3.9,1.2,8.1-1,9.3-4.9l4.3-14.2c1.2-3.9-1.1-8.1-5.1-9.2l-1.5,5c1.1,0.3,1.8,1.6,1.5,2.7l-4.3,14.3
					C181.3,470.3,179.9,470.9,178.9,470.5z M178.8,466.7c0.4-1.3-0.4-2.8-1.7-3.2s-2.8,0.4-3.2,1.7l-7,23.4
					c-0.4,1.3,0.4,2.8,1.7,3.2s2.8-0.4,3.2-1.7L178.8,466.7z M166.5,485.5l1.5-5c-3.9-1.2-8.1,1-9.3,4.9l-4.3,14.2
					c-1.2,3.9,1.1,8.1,5.1,9.2l1.5-5c-1.1-0.3-1.8-1.6-1.5-2.7l4.3-14.2C164.1,485.7,165.3,485.1,166.5,485.5z M168.1,502.3
					c0.4-1.3-0.4-2.8-1.7-3.2s-2.8,0.4-3.2,1.7l-7,23.4c-0.4,1.3,0.4,2.8,1.7,3.2s2.8-0.4,3.2-1.7L168.1,502.3z M168.2,506l-1.5,5
					c3.9,1.2,8.1-1,9.3-4.9l4.3-14.2c1.2-3.9-1.1-8.1-5.1-9.2l-1.5,5c1.1,0.3,1.8,1.6,1.5,2.7l-4.3,14.2
					C170.6,505.7,169.3,506.4,168.2,506z"/>
			</g>
		</g>
	</g>
</g>
<g id="Circle">
	<ellipse class="st1" cx="199.6" cy="352.1" rx="27.9" ry="27.9"/>
</g>
<g id="Cog_1_">
	<g id="Cog_3_">
		<g>
			<path class="st1" d="M256.6,189.3c-3.5-0.4-4.7-4.7-1.8-6.8l4.2-3c2.5-1.8,3.2-5.2,1.7-7.8l-5-8.6c-1.7-2.5-4.8-3.8-7.7-2.5
				l-4.8,2.1c-3.2,1.5-6.6-1.8-5.1-5.1l2.1-4.8c1.3-2.7,0.2-6.2-2.6-7.7l-8.5-4.9c-2.6-1.7-6.2-0.8-7.8,1.7l-3,4.2
				c-1.9,2.7-6.6,1.7-6.8-1.8l-0.4-5.2c-0.3-3-2.8-5.4-5.8-5.4h-9.9c-3,0-5.7,2.4-5.8,5.4l-0.5,5.2c-0.4,3.4-4.7,4.7-6.8,1.8l-3-4.2
				c-1.8-2.6-5.2-3.2-7.8-1.7l-8.6,4.9c-2.5,1.7-3.8,4.8-2.5,7.7l2.1,4.8c1.5,3.2-1.8,6.6-5.1,5.1l-4.8-2.1
				c-2.7-1.3-6.2-0.2-7.7,2.5l-4.9,8.6c-1.7,2.5-0.8,6.2,1.7,7.8l4.2,3c2.7,2,1.7,6.6-1.8,6.8l-5.2,0.5c-3,0.3-5.4,2.8-5.4,5.8v9.9
				c0,3,2.4,5.7,5.4,5.8l5.2,0.5c3.4,0.4,4.7,4.6,1.8,6.8l-4.2,3c-2.6,1.8-3.2,5.2-1.7,7.8l4.9,8.6c1.7,2.6,4.8,3.8,7.7,2.6l4.8-2.1
				c3.2-1.5,6.6,1.8,5.1,5.1l-2.1,4.8c-1.3,2.7-0.2,6.2,2.5,7.7l8.6,4.9c2.5,1.6,6.2,0.8,7.8-1.7l3-4.2c2-2.7,6.6-1.6,6.8,1.8
				l0.5,5.2c0.3,3,2.8,5.4,5.8,5.4h9.9c3,0,5.7-2.4,5.8-5.4l0.4-5.2c0.5-3.4,4.7-4.6,6.8-1.8l3,4.2c1.8,2.6,5.2,3.2,7.8,1.7l8.5-4.9
				c2.6-1.7,3.8-4.8,2.6-7.7l-2.1-4.8c-1.5-3.1,1.8-6.6,5.1-5.1l4.8,2.1c2.7,1.4,6.2,0.2,7.7-2.6l5-8.6c1.7-2.6,0.8-6.1-1.7-7.8
				l-4.2-3c-2.7-1.9-1.7-6.6,1.8-6.8l5.2-0.4c3-0.3,5.4-2.9,5.4-5.9v-9.9c0-3-2.4-5.7-5.4-5.8L256.6,189.3z"/>
			<ellipse class="st1" cx="199.6" cy="200.7" rx="36.6" ry="36.6"/>
		</g>
	</g>
</g>
<g id="Chain">
	<g>
		<path id="Chain_Brush_1_3_" class="st0" d="M206,35.4v14.8c0,1.2-1,2.2-2.2,2.2v5.2c4.1,0,7.5-3.3,7.5-7.4V35.4
			c0-4.1-3.4-7.4-7.5-7.4v5.2C205,33.2,206,34.2,206,35.4z M206,72.4v14.8c0,1.2-1,2.2-2.2,2.2v5.2c4.1,0,7.5-3.3,7.5-7.4V72.3
			c0-4.1-3.4-7.4-7.5-7.4v5.2C205,70.1,206,71.1,206,72.4z M197.4,73.1c0,1.4,1.2,2.6,2.6,2.6s2.6-1.2,2.6-2.6V48.7
			c0-1.4-1.2-2.6-2.6-2.6s-2.6,1.2-2.6,2.6V73.1z M194,50.2V35.4c0-1.2,1-2.2,2.2-2.2V28c-4.1,0-7.5,3.3-7.5,7.4v14.8
			c0,4.1,3.4,7.4,7.5,7.4v-5.2C195.1,52.4,194,51.4,194,50.2z M194,87.3V72.5c0-1.2,1-2.2,2.2-2.2v-5.2c-4.1,0-7.5,3.3-7.5,7.4v14.8
			c0,4.1,3.4,7.4,7.5,7.4v-5.2C195.1,89.5,194,88.5,194,87.3z M197.4,110.1c0,1.4,1.2,2.6,2.6,2.6s2.6-1.2,2.6-2.6V85.7
			c0-1.4-1.2-2.6-2.6-2.6s-2.6,1.2-2.6,2.6V110.1z M206,109.5v14.8c0,1.2-1,2.2-2.2,2.2v5.2c4.1,0,7.5-3.3,7.5-7.4v-14.8
			c0-4.1-3.4-7.4-7.5-7.4v5.2C205,107.3,206,108.3,206,109.5z M194,124.3v-14.8c0-1.2,1-2.2,2.2-2.2v-5.2c-4.1,0-7.5,3.3-7.5,7.4
			v14.8c0,4.1,3.4,7.4,7.5,7.4v-5.2C195.1,126.5,194,125.5,194,124.3z M197.4,147.3c0,1.4,1.2,2.6,2.6,2.6s2.6-1.2,2.6-2.6v-24.4
			c0-1.4-1.2-2.6-2.6-2.6s-2.6,1.2-2.6,2.6V147.3z M206,146.5v14.8c0,1.2-1,2.2-2.2,2.2v5.2c4.1,0,7.5-3.3,7.5-7.4v-14.8
			c0-4.1-3.4-7.4-7.5-7.4v5.2C205,144.3,206,145.3,206,146.5z M194,161.3v-14.8c0-1.2,1-2.2,2.2-2.2v-5.2c-4.1,0-7.5,3.3-7.5,7.4
			v14.8c0,4.1,3.4,7.4,7.5,7.4v-5.2C195.1,163.6,194,162.6,194,161.3z M197.4,184.3c0,1.4,1.2,2.6,2.6,2.6s2.6-1.2,2.6-2.6v-24.4
			c0-1.4-1.2-2.6-2.6-2.6s-2.6,1.2-2.6,2.6V184.3z M206,183.6v14.8c0,1.2-1,2.2-2.2,2.2v5.2c4.1,0,7.5-3.3,7.5-7.4v-14.8
			c0-4.1-3.4-7.4-7.5-7.4v5.2C205,181.3,206,182.3,206,183.6z M197.4,221.3c0,1.4,1.2,2.6,2.6,2.6s2.6-1.2,2.6-2.6v-24.4
			c0-1.4-1.2-2.6-2.6-2.6s-2.6,1.2-2.6,2.6V221.3z M194,198.4v-14.8c0-1.2,1-2.2,2.2-2.2v-5.2c-4.1,0-7.5,3.3-7.5,7.4v14.8
			c0,4.1,3.4,7.4,7.5,7.4v-5.2C195.1,200.6,194,199.6,194,198.4z M206,220.6v14.8c0,1.2-1,2.2-2.2,2.2v5.2c4.1,0,7.5-3.3,7.5-7.4
			v-14.8c0-4.1-3.4-7.4-7.5-7.4v5.2C205,218.4,206,219.4,206,220.6z M206,257.6v14.8c0,1.2-1,2.2-2.2,2.2v5.2c4.1,0,7.5-3.3,7.5-7.4
			v-14.8c0-4.1-3.4-7.4-7.5-7.4v5.2C205,255.4,206,256.4,206,257.6z M194,235.4v-14.8c0-1.2,1-2.2,2.2-2.2v-5.2
			c-4.1,0-7.5,3.3-7.5,7.4v14.8c0,4.1,3.4,7.4,7.5,7.4v-5.2C195.1,237.6,194,236.6,194,235.4z M197.4,258.4c0,1.4,1.2,2.6,2.6,2.6
			s2.6-1.2,2.6-2.6V234c0-1.4-1.2-2.6-2.6-2.6s-2.6,1.2-2.6,2.6V258.4z M206,294.6v14.8c0,1.2-1,2.2-2.2,2.2v5.2
			c4.1,0,7.5-3.3,7.5-7.4v-14.8c0-4.1-3.4-7.4-7.5-7.4v5.2C205,292.4,206,293.4,206,294.6z M194,272.4v-14.8c0-1.2,1-2.2,2.2-2.2
			v-5.2c-4.1,0-7.5,3.3-7.5,7.4v14.8c0,4.1,3.4,7.4,7.5,7.4v-5.2C195.1,274.6,194,273.6,194,272.4z M197.4,295.4
			c0,1.4,1.2,2.6,2.6,2.6s2.6-1.2,2.6-2.6V271c0-1.4-1.2-2.6-2.6-2.6s-2.6,1.2-2.6,2.6V295.4z M194,309.5v-14.8c0-1.2,1-2.2,2.2-2.2
			v-5.2c-4.1,0-7.5,3.3-7.5,7.4v14.8c0,4.1,3.4,7.4,7.5,7.4v-5.2C195.1,311.6,194,310.6,194,309.5z M197.4,332.4
			c0,1.4,1.2,2.6,2.6,2.6s2.6-1.2,2.6-2.6V308c0-1.4-1.2-2.6-2.6-2.6s-2.6,1.2-2.6,2.6V332.4z M206,331.6v14.8c0,1.2-1,2.2-2.2,2.2
			v5.2c4.1,0,7.5-3.3,7.5-7.4v-14.8c0-4.1-3.4-7.4-7.5-7.4v5.2C205,329.5,206,330.5,206,331.6z M197.4,369.5c0,1.4,1.2,2.6,2.6,2.6
			s2.6-1.2,2.6-2.6V345c0-1.4-1.2-2.6-2.6-2.6s-2.6,1.2-2.6,2.6V369.5z M194,346.5v-14.8c0-1.2,1-2.2,2.2-2.2v-5.2
			c-4.1,0-7.5,3.3-7.5,7.4v14.8c0,4.1,3.4,7.4,7.5,7.4v-5.2C195.1,348.6,194,347.6,194,346.5z"/>
	</g>
</g>
</svg>
