<?xml version="1.0" encoding="utf-8"?>
<!-- Generator: Adobe Illustrator 23.0.4, SVG Export Plug-In . SVG Version: 6.00 Build 0)  -->
<svg version="1.1" id="Layer_2" xmlns="http://www.w3.org/2000/svg" xmlns:xlink="http://www.w3.org/1999/xlink" x="0px" y="0px"
	 viewBox="0 0 963 677" style="enable-background:new 0 0 963 677;" xml:space="preserve">
<style type="text/css">
	.st0{fill:none;stroke:#FFFFFF;stroke-width:3;stroke-linecap:round;stroke-linejoin:round;stroke-miterlimit:10;}
	.st1{fill:none;stroke:#1D1D1D;stroke-width:3;stroke-linecap:round;stroke-linejoin:round;stroke-miterlimit:10;}
</style>
<polyline class="st0" points="462.5,664.9 435,664.9 450.3,232.5 "/>
<line class="st0" x1="512.7" y1="232.5" x2="519.4" y2="422.4"/>
<polyline class="st0" points="451,213.5 455,100.9 508,100.9 512,213.5 "/>
<g>
	<g>
		<path class="st1" d="M481.6,193.7l-18.5-8.1v-38c0-2.3,1.9-4.2,4.2-4.2h0.9l0,0l17.7,24.6l9.1,5.5v-30.3l-8.2-3.6v19.8l-5.1-7
			v-20.3l18.4,8.1v35.1c0,2.3-1.9,4.2-4.2,4.2h-0.9l0,0l-13.2-8.2l-13.6-18.9v30.1l8.4,3.7V173l5.1,7L481.6,193.7L481.6,193.7z"/>
	</g>
</g>
<line class="st1" x1="438.7" y1="253.7" x2="497.4" y2="253.7"/>
<line class="st1" x1="438.7" y1="276.3" x2="497.4" y2="276.3"/>
<line class="st1" x1="438.7" y1="343.9" x2="497.4" y2="343.9"/>
<line class="st1" x1="438.7" y1="366.5" x2="497.4" y2="366.5"/>
<line class="st1" x1="438.7" y1="298.8" x2="497.4" y2="298.8"/>
<line class="st1" x1="438.7" y1="321.4" x2="497.4" y2="321.4"/>
<line class="st1" x1="438.7" y1="389.1" x2="497.4" y2="389.1"/>
<line class="st1" x1="438.7" y1="411.6" x2="497.4" y2="411.6"/>
<g>
	<line class="st1" x1="492.4" y1="100.9" x2="492.4" y2="49.9"/>
	<line class="st1" x1="470.6" y1="100.9" x2="470.6" y2="82.9"/>
</g>
<g>
	<rect x="307" y="437.1" class="st0" width="119.1" height="227.8"/>
	<g>
		<g>
			<rect x="351.7" y="452.2" class="st0" width="29.9" height="29.9"/>
			<line class="st0" x1="334.3" y1="482.1" x2="398.9" y2="482.1"/>
		</g>
		<g>
			<rect x="351.7" y="500.7" class="st1" width="29.9" height="29.9"/>
			<line class="st1" x1="334.3" y1="530.6" x2="398.9" y2="530.6"/>
		</g>
		<g>
			<rect x="351.7" y="549.2" class="st0" width="29.9" height="29.9"/>
			<line class="st0" x1="334.3" y1="579.1" x2="398.9" y2="579.1"/>
		</g>
		<g>
			<rect x="351.7" y="597.7" class="st1" width="29.9" height="29.9"/>
			<line class="st1" x1="334.3" y1="627.6" x2="398.9" y2="627.6"/>
		</g>
		<line class="st0" x1="398.9" y1="437.1" x2="398.9" y2="664.9"/>
	</g>
</g>
<line class="st0" x1="593.5" y1="664.9" x2="593.5" y2="634"/>
<polyline class="st0" points="593.5,579.1 593.5,478 528,478 528,422.4 462.5,422.4 462.5,664.9 528,664.9 "/>
<polyline class="st0" points="643.4,664.9 627.8,664.9 627.8,626.7 "/>
<polyline class="st1" points="627.8,586.3 627.8,375 643.4,375 "/>
<polyline class="st0" points="643.4,437.1 659,437.1 659,664.9 643.4,664.9 "/>
<rect x="659" y="437.1" class="st0" width="88.2" height="227.8"/>
<g>
	<line class="st1" x1="167.4" y1="636.5" x2="167.4" y2="664.9"/>
	<path class="st1" d="M167.4,606.5v19.8l-8.8,8.8c-12.3-3.8-21.2-15.2-21.2-28.7c0-16.6,13.4-30,30-30s30,13.4,30,30
		c0,16.6-13.4,30-30,30"/>
	<line class="st1" x1="167.4" y1="626.4" x2="160.4" y2="619.4"/>
</g>
<g>
	<line class="st1" x1="605.6" y1="636.5" x2="605.6" y2="664.9"/>
	<path class="st1" d="M605.6,606.5v19.8l-8.8,8.8c-12.3-3.8-21.2-15.2-21.2-28.7c0-16.6,13.4-30,30-30c16.6,0,30,13.4,30,30
		c0,16.6-13.4,30-30,30"/>
	<line class="st1" x1="605.6" y1="626.4" x2="598.6" y2="619.4"/>
</g>
<g>
	<line class="st1" x1="118" y1="644.2" x2="118" y2="664.9"/>
	<path class="st1" d="M118,622.3v14.5l-6.4,6.4c-8.9-2.7-15.4-11.1-15.4-20.9c0-12.1,9.8-21.9,21.9-21.9s21.9,9.8,21.9,21.9
		s-9.8,21.9-21.9,21.9"/>
	<line class="st1" x1="118" y1="636.8" x2="113" y2="631.7"/>
</g>
<g>
	<line class="st1" x1="875.1" y1="644.2" x2="875.1" y2="664.9"/>
	<path class="st1" d="M875.1,622.3v14.5l-6.4,6.4c-8.9-2.7-15.4-11.1-15.4-20.9c0-12.1,9.8-21.9,21.9-21.9
		c12.1,0,21.9,9.8,21.9,21.9s-9.8,21.9-21.9,21.9"/>
	<line class="st1" x1="875.1" y1="636.8" x2="870" y2="631.7"/>
</g>
<polyline class="st0" points="254.5,664.9 254.5,487.1 211.8,487.1 211.8,664.9 231.8,664.9 "/>
<line class="st0" x1="211.8" y1="504.7" x2="233.1" y2="504.7"/>
<line class="st0" x1="211.8" y1="520.5" x2="233.1" y2="520.5"/>
<line class="st0" x1="211.8" y1="536.3" x2="233.1" y2="536.3"/>
<line class="st0" x1="211.8" y1="552" x2="233.1" y2="552"/>
<line class="st0" x1="211.8" y1="567.8" x2="233.1" y2="567.8"/>
<line class="st0" x1="211.8" y1="583.6" x2="233.1" y2="583.6"/>
<line class="st0" x1="211.8" y1="599.4" x2="233.1" y2="599.4"/>
<line class="st0" x1="211.8" y1="615.2" x2="233.1" y2="615.2"/>
<line class="st0" x1="211.8" y1="631" x2="233.1" y2="631"/>
<polyline class="st1" points="271.6,664.9 291.6,664.9 291.6,460.9 233.1,460.9 233.1,487.1 "/>
<rect x="684.2" y="437.1" class="st0" width="63.1" height="27.6"/>
<rect x="684.2" y="491.2" class="st0" width="63.1" height="27.6"/>
<rect x="684.2" y="546.5" class="st0" width="63.1" height="27.6"/>
<rect x="747.2" y="530.9" class="st0" width="113" height="134"/>
<line class="st0" x1="614.5" y1="635.2" x2="614.5" y2="664.9"/>
<polyline class="st0" points="546.8,478 546.8,293.1 614.5,323.1 614.5,577.9 "/>
<polyline class="st0" points="385.3,437.1 385.3,330.1 446.2,357.1 "/>
<path class="st0" d="M532.5,232.5h-102c-5.3,0-9.5-4.3-9.5-9.5v0c0-5.3,4.3-9.5,9.5-9.5h102c5.3,0,9.5,4.3,9.5,9.5v0
	C542,228.3,537.8,232.5,532.5,232.5z"/>
<g>
	<ellipse class="st1" cx="170.2" cy="170.3" rx="52.2" ry="38.1"/>
	<path class="st1" d="M192.1,204.9v4c0,5.5-4.5,10-10,10h-23.7c-5.5,0-10-4.5-10-10v-4"/>
	<ellipse class="st1" cx="170.2" cy="170.3" rx="52.2" ry="18.4"/>
	<polyline class="st1" points="221.5,177.5 237.7,193.7 237.7,146.9 221.5,163.1 	"/>
</g>
<g>
	<line class="st1" x1="872.4" y1="39.4" x2="860.3" y2="63.2"/>
	<line class="st1" x1="878.2" y1="57.3" x2="854.4" y2="45.2"/>
</g>
<g>
	<line class="st1" x1="313.3" y1="61.1" x2="326.7" y2="84.2"/>
	<line class="st1" x1="313.3" y1="84.2" x2="326.7" y2="61.1"/>
	<line class="st1" x1="333.3" y1="72.7" x2="306.6" y2="72.7"/>
</g>
<g>
	<polyline class="st1" points="50.3,352.4 37.1,374.7 42,383.4 	"/>
	<polyline class="st1" points="49.8,397.3 75.7,397.5 88.8,375.3 76.1,352.7 	"/>
	<polyline class="st1" points="56.6,375.2 63.3,375.5 66.8,381.7 	"/>
	<line class="st1" x1="37.1" y1="374.7" x2="45.6" y2="374.9"/>
	<path class="st1" d="M76.1,352.7"/>
	<path class="st1" d="M76.1,352.7"/>
	<line class="st1" x1="63.3" y1="375.5" x2="66.4" y2="369.7"/>
	<path class="st1" d="M55.5,371"/>
	<polyline class="st1" points="50.3,352.4 76.1,352.7 81.1,361.4 	"/>
	<line class="st1" x1="76.1" y1="352.7" x2="71.9" y2="360.1"/>
</g>
<g>
	<g>
		<line class="st1" x1="783" y1="255.7" x2="786.1" y2="247.2"/>
		<line class="st1" x1="722.2" y1="234.1" x2="725.2" y2="225.6"/>
		<path class="st1" d="M777.1,261.1l-11-3.9c0.4-1.1-0.2-2.3-1.3-2.7l-27.8-9.9c-1.1-0.4-2.3,0.2-2.7,1.3l-11-3.9"/>
		<path class="st1" d="M778.4,257.5c0.6-1.7,2.4-2.5,4.1-2l3.3,1.2l-4.9,13.7c-0.6,1.7-2.4,2.5-4.1,2l-0.3-0.1
			c-1.7-0.6-2.5-2.4-2-4.1l1-2.8l-11.5-4.1c-0.4,1.1-1.6,1.7-2.7,1.3l-26.6-9.4c-1.1-0.4-1.7-1.6-1.3-2.7l-11.5-4.1l-1,2.8
			c-0.6,1.7-2.4,2.5-4.1,2l-0.3-0.1c-1.7-0.6-2.5-2.4-2-4.1l4.9-13.7l3.3,1.2c1.7,0.6,2.5,2.4,2,4.1"/>
		<g>
			<path class="st1" d="M763.6,278.6l-5.7-2l1.4-6.2l-3.1-6.1v0c-0.9,2.5-3.7,3.9-6.2,3l-9.1-3.2c-2.5-0.9-3.9-3.7-3-6.2v0l-6.4,2.9
				l-2.8,5.7l-5.7-2"/>
		</g>
	</g>
	<line class="st1" x1="770.6" y1="244.8" x2="798.4" y2="254.7"/>
	<line class="st1" x1="710.9" y1="223.6" x2="738.8" y2="233.5"/>
</g>
<polyline class="st0" points="807.7,168.1 814.4,178.6 819.5,164.2 834.2,160.3 822.2,151 823,135.8 810.5,144.4 796.3,138.9 
	800.5,153.5 790.9,165.3 803.4,165.7 "/>
<g>
	<path class="st0" d="M118.9,70.4c-6.3-11.6-2-26.1,9.6-32.4s26.1-2,32.4,9.6c6.3,11.6,2,26.1-9.6,32.4l-10.9-20.2l-2.8,9.4"/>
	<polyline class="st0" points="151.3,80 140.4,59.8 149.7,62.6 	"/>
	<line class="st0" x1="135.7" y1="51.3" x2="145.1" y2="54.1"/>
	<line class="st0" x1="135.7" y1="51.3" x2="132.9" y2="60.7"/>
</g>
<g>
	<g>
		<line class="st0" x1="640.3" y1="102.2" x2="640.3" y2="112.7"/>
		<line class="st0" x1="645.6" y1="107.6" x2="635.2" y2="107.6"/>
	</g>
	<g>
		<line class="st0" x1="617.8" y1="85.9" x2="617.8" y2="96.4"/>
		<line class="st0" x1="622.9" y1="91" x2="612.6" y2="91"/>
	</g>
	<circle class="st0" cx="659.5" cy="76" r="4.9"/>
</g>
<g id="Chain_1_">
	<g>
		<path class="st0" d="M919.9,320.9L919.9,320.9c-4.9-4.9-12.9-4.9-17.7,0l0,0l0,0l-9.1,9.1c3.1-0.3,6.3,0.4,9.2,1.8l5.7-5.7l0,0
			c0.9-0.9,2.1-1.4,3.4-1.4s2.4,0.4,3.4,1.4l0,0c0.7,0.7,1.2,1.7,1.3,2.6c0,0.3,0.1,0.4,0.1,0.7c0,0,0,0,0,0.1
			c0,1.3-0.4,2.4-1.4,3.4l-12.5,12.5c-1.2,1.2-3.4,0.9-5,0.5c-0.9-0.2-1.6-0.6-2.4-1.1c-1.7-1.1-4.1-0.5-5.2,1.5
			c-0.7,1.3-0.4,3,0.7,4.2l0,0c4.9,4.9,12.9,4.9,17.7,0l2.7-2.7l9.1-9.1l0,0C924.8,333.8,924.8,325.8,919.9,320.9z"/>
		<path class="st0" d="M874,367L874,367c4.9,4.9,12.9,4.9,17.7,0l0,0l0,0l9.1-9.1c-3.1,0.3-6.3-0.4-9.2-1.8l-5.7,5.7l0,0
			c-0.9,0.9-2.1,1.4-3.4,1.4s-2.4-0.4-3.4-1.4l0,0c-0.7-0.7-1.2-1.7-1.3-2.6c0-0.3-0.1-0.4-0.1-0.7c0,0,0,0,0-0.1
			c0-1.3,0.4-2.4,1.4-3.4l12.5-12.5c1.2-1.2,3.4-0.9,5-0.5c0.9,0.2,1.6,0.6,2.4,1.1c1.7,1.1,4.1,0.5,5.2-1.5c0.7-1.3,0.4-3-0.7-4.2
			l0,0c-4.9-4.9-12.9-4.9-17.7,0l-2.7,2.7l-9.1,9.2l0,0C869.1,354.1,869.1,362,874,367z"/>
	</g>
</g>
<g>
	<path class="st0" d="M251.5,388.8l7.4-3.3l2.4,5.3c1,2.1,1.5,3.9,1.7,5.3c0.2,1.4,0,2.8-0.6,4.2c-0.6,1.4-1.5,2.8-2.9,4l-2.8-2.4
		c1.3-1.2,2-2.3,2.3-3.5c0.2-1.2,0.1-2.5-0.6-3.9l-3.6,1.6L251.5,388.8z M245.6,375.7l-3.3-7.4l7.4-3.3l3.3,7.4L245.6,375.7z"/>
</g>
<g>
	<path class="st0" d="M266.5,378l-2.8-6.3c1.2-0.6,2.1-1.3,2.6-1.9c0.5-0.6,0.8-1.4,1-2.3c0.1-1,0-2-0.3-3.2
		c-0.2-0.9-0.8-2.4-1.7-4.5c-1.5-3.4-2.4-5.8-2.7-7.3c-0.3-1.5-0.2-2.8,0.3-4c0.5-1.2,1.4-2.4,2.7-3.5c0.9-0.8,2.5-1.7,4.8-2.7
		l1.4-0.6l2.8,6.3c-1.9,0.9-3.1,1.5-3.6,2c-0.5,0.5-0.7,1-0.8,1.5c-0.1,0.6,0.1,1.4,0.6,2.5c0.5,1.1,1.3,3.2,2.6,6.4
		c0.7,1.8,1.1,3.3,1.2,4.5c0.1,1.2,0,2.3-0.2,3.3c-0.3,1-0.8,2.1-1.6,3.3c1.3,0.1,2.5,0.5,3.5,1c1,0.5,1.9,1.2,2.8,2.2
		c0.9,1,1.8,2.4,2.7,4.3c1.4,2.8,2.3,4.7,2.7,5.5c0.5,1.2,1,1.9,1.5,2.2c0.5,0.3,1.1,0.5,1.7,0.5c0.7,0,2-0.4,3.8-1.3l2.8,6.3
		l-1.4,0.6c-2.4,1.1-4.3,1.7-5.7,1.9c-1.4,0.2-2.8,0-4-0.5c-1.3-0.5-2.3-1.3-3.2-2.5c-0.9-1.2-1.9-3.1-3.2-5.9
		c-1.4-3.2-2.5-5.2-3.2-6.1c-1-1.2-2-2-3.1-2.2C269.5,377.2,268.1,377.4,266.5,378z"/>
</g>
</svg>
